{
.appVersion = "1075";
classes = (
{
code = "A Aacute Abreve Acircumflex Adieresis Agrave Amacron Aogonek Aring Atilde AE AEacute B C Cacute Ccaron Ccedilla Ccircumflex Cdotaccent D Eth Dcaron Dcroat E Eacute Ebreve Ecaron Ecircumflex Edieresis Edotaccent Egrave Emacron Eogonek F G Gbreve Gcircumflex Gcommaaccent Gdotaccent H Hbar Hcircumflex I Iacute Ibreve Icircumflex Idieresis Idotaccent Igrave Imacron Iogonek Itilde J Jacute Jcircumflex K Kcommaaccent L Lacute Lcaron Lcommaaccent Ldot Lslash M N Nacute Ncaron Ncommaaccent Eng Ntilde O Oacute Obreve Ocircumflex Odieresis Ograve Ohungarumlaut Omacron Oslash Oslashacute Otilde OE P Thorn Q R Racute Rcaron Rcommaaccent S Sacute Scaron Scedilla Scircumflex Scommaaccent Germandbls T Tbar Tcaron Tcedilla Tcommaaccent U Uacute Ubreve Ucircumflex Udieresis Ugrave Uhungarumlaut Umacron Uogonek Uring Utilde V W Wacute Wcircumflex Wdieresis Wgrave X Y Yacute Ycircumflex Ydieresis Ygrave Z Zacute Zcaron Zdotaccent Germandbls";
name = Uppercase;
}
);
copyright = "Copyright © 2018 Sometype Mono Project Authors (https://github.com/dharmatype/Sometype-Mono)";
customParameters = (
{
name = fsType;
value = (
);
},
{
name = licenseURL;
value = "http://scripts.sil.org/OFL";
},
{
name = license;
value = "This Font Software is licensed under the SIL Open Font License, Version 1.1. This license is available with a FAQ at: http://scripts.sil.org/OFL";
},
{
name = trademark;
value = "Sometype Mono is a trademark of Dharma Type.";
},
{
name = description;
value = "Original Designed by Ryoichi Tsunekawa from Dharma Type in 2017-2018.";
},
{
name = vendorID;
value = dhrm;
},
{
name = isFixedPitch;
value = 1;
},
{
name = glyphOrder;
value = (
.notdef,
space
);
},
{
name = note;
value = "Add “Scale to UPM 2048” in Instance before Export for TTF, If necessary.";
},
{
name = "Disable Last Change";
value = 1;
},
{
name = "Family Alignment Zones";
value = (
"{710, 12}",
"{650, 12}",
"{630, 12}",
"{470, 12}",
"{0, -12}",
"{-210, -12}"
);
}
);

glyphs = (
{
color = 0;
glyphname = .notdef;
layers = (
{
background = {
paths = (
{
closed = 1;
nodes = (
"596 355 LINE",
"393 722 LINE",
"36 355 LINE",
"237 -12 LINE"
);
},
{
closed = 1;
nodes = (
"274 163 OFFCURVE",
"258 179 OFFCURVE",
"258 201 CURVE SMOOTH",
"258 223 OFFCURVE",
"274 240 OFFCURVE",
"296 240 CURVE SMOOTH",
"318 240 OFFCURVE",
"335 223 OFFCURVE",
"335 201 CURVE SMOOTH",
"335 179 OFFCURVE",
"318 163 OFFCURVE",
"296 163 CURVE SMOOTH"
);
},
{
closed = 1;
nodes = (
"264 293 OFFCURVE",
"262 304 OFFCURVE",
"262 314 CURVE SMOOTH",
"262 343 OFFCURVE",
"278 360 OFFCURVE",
"308 369 CURVE SMOOTH",
"324 374 LINE SMOOTH",
"352 383 OFFCURVE",
"361 388 OFFCURVE",
"361 404 CURVE SMOOTH",
"361 426 OFFCURVE",
"345 434 OFFCURVE",
"310 434 CURVE SMOOTH",
"273 434 OFFCURVE",
"248 425 OFFCURVE",
"223 403 CURVE",
"192 448 LINE",
"227 476 OFFCURVE",
"262 488 OFFCURVE",
"308 488 CURVE SMOOTH",
"382 488 OFFCURVE",
"419 460 OFFCURVE",
"419 405 CURVE SMOOTH",
"419 363 OFFCURVE",
"398 341 OFFCURVE",
"351 329 CURVE SMOOTH",
"335 325 LINE SMOOTH",
"319 321 OFFCURVE",
"312 315 OFFCURVE",
"312 300 CURVE SMOOTH",
"312 295 OFFCURVE",
"313 288 OFFCURVE",
"315 280 CURVE",
"268 280 LINE"
);
}
);
};
layerId = "B9B856C8-1FA2-46F4-A929-F36A99765E59";
paths = (
{
closed = 1;
nodes = (
"596 355 LINE",
"393 722 LINE",
"36 355 LINE",
"237 -12 LINE"
);
},
{
closed = 1;
nodes = (
"274 163 OFFCURVE",
"258 179 OFFCURVE",
"258 201 CURVE SMOOTH",
"258 223 OFFCURVE",
"274 240 OFFCURVE",
"296 240 CURVE SMOOTH",
"318 240 OFFCURVE",
"335 223 OFFCURVE",
"335 201 CURVE SMOOTH",
"335 179 OFFCURVE",
"318 163 OFFCURVE",
"296 163 CURVE SMOOTH"
);
},
{
closed = 1;
nodes = (
"264 293 OFFCURVE",
"262 304 OFFCURVE",
"262 314 CURVE SMOOTH",
"262 343 OFFCURVE",
"278 360 OFFCURVE",
"308 369 CURVE SMOOTH",
"324 374 LINE SMOOTH",
"352 383 OFFCURVE",
"361 388 OFFCURVE",
"361 404 CURVE SMOOTH",
"361 426 OFFCURVE",
"345 434 OFFCURVE",
"310 434 CURVE SMOOTH",
"273 434 OFFCURVE",
"248 425 OFFCURVE",
"223 403 CURVE",
"192 448 LINE",
"227 476 OFFCURVE",
"262 488 OFFCURVE",
"308 488 CURVE SMOOTH",
"382 488 OFFCURVE",
"419 460 OFFCURVE",
"419 405 CURVE SMOOTH",
"419 363 OFFCURVE",
"398 341 OFFCURVE",
"351 329 CURVE SMOOTH",
"335 325 LINE SMOOTH",
"319 321 OFFCURVE",
"312 315 OFFCURVE",
"312 300 CURVE SMOOTH",
"312 295 OFFCURVE",
"313 288 OFFCURVE",
"315 280 CURVE",
"268 280 LINE"
);
}
);
width = 580;
},
{
background = {
paths = (
{
closed = 1;
nodes = (
"596 355 LINE",
"393 722 LINE",
"36 355 LINE",
"237 -12 LINE"
);
},
{
closed = 1;
nodes = (
"274 163 OFFCURVE",
"258 179 OFFCURVE",
"258 201 CURVE SMOOTH",
"258 223 OFFCURVE",
"274 240 OFFCURVE",
"296 240 CURVE SMOOTH",
"318 240 OFFCURVE",
"335 223 OFFCURVE",
"335 201 CURVE SMOOTH",
"335 179 OFFCURVE",
"318 163 OFFCURVE",
"296 163 CURVE SMOOTH"
);
},
{
closed = 1;
nodes = (
"264 293 OFFCURVE",
"262 304 OFFCURVE",
"262 314 CURVE SMOOTH",
"262 343 OFFCURVE",
"278 360 OFFCURVE",
"308 369 CURVE SMOOTH",
"324 374 LINE SMOOTH",
"352 383 OFFCURVE",
"361 388 OFFCURVE",
"361 404 CURVE SMOOTH",
"361 426 OFFCURVE",
"345 434 OFFCURVE",
"310 434 CURVE SMOOTH",
"273 434 OFFCURVE",
"248 425 OFFCURVE",
"223 403 CURVE",
"192 448 LINE",
"227 476 OFFCURVE",
"262 488 OFFCURVE",
"308 488 CURVE SMOOTH",
"382 488 OFFCURVE",
"419 460 OFFCURVE",
"419 405 CURVE SMOOTH",
"419 363 OFFCURVE",
"398 341 OFFCURVE",
"351 329 CURVE SMOOTH",
"335 325 LINE SMOOTH",
"319 321 OFFCURVE",
"312 315 OFFCURVE",
"312 300 CURVE SMOOTH",
"312 295 OFFCURVE",
"313 288 OFFCURVE",
"315 280 CURVE",
"268 280 LINE"
);
}
);
};
layerId = "27302DAC-E04E-41A7-B2D2-BD8305143A0A";
paths = (
{
closed = 1;
nodes = (
"596 355 LINE",
"393 722 LINE",
"36 355 LINE",
"237 -12 LINE"
);
},
{
closed = 1;
nodes = (
"274 163 OFFCURVE",
"258 179 OFFCURVE",
"258 201 CURVE SMOOTH",
"258 223 OFFCURVE",
"274 240 OFFCURVE",
"296 240 CURVE SMOOTH",
"318 240 OFFCURVE",
"335 223 OFFCURVE",
"335 201 CURVE SMOOTH",
"335 179 OFFCURVE",
"318 163 OFFCURVE",
"296 163 CURVE SMOOTH"
);
},
{
closed = 1;
nodes = (
"264 293 OFFCURVE",
"262 304 OFFCURVE",
"262 314 CURVE SMOOTH",
"262 343 OFFCURVE",
"278 360 OFFCURVE",
"308 369 CURVE SMOOTH",
"324 374 LINE SMOOTH",
"352 383 OFFCURVE",
"361 388 OFFCURVE",
"361 404 CURVE SMOOTH",
"361 426 OFFCURVE",
"345 434 OFFCURVE",
"310 434 CURVE SMOOTH",
"273 434 OFFCURVE",
"248 425 OFFCURVE",
"223 403 CURVE",
"192 448 LINE",
"227 476 OFFCURVE",
"262 488 OFFCURVE",
"308 488 CURVE SMOOTH",
"382 488 OFFCURVE",
"419 460 OFFCURVE",
"419 405 CURVE SMOOTH",
"419 363 OFFCURVE",
"398 341 OFFCURVE",
"351 329 CURVE SMOOTH",
"335 325 LINE SMOOTH",
"319 321 OFFCURVE",
"312 315 OFFCURVE",
"312 300 CURVE SMOOTH",
"312 295 OFFCURVE",
"313 288 OFFCURVE",
"315 280 CURVE",
"268 280 LINE"
);
}
);
width = 580;
}
);
},
{
color = 0;
glyphname = A;
layers = (
{
anchors = (
{
name = bottom;
position = "{239, 0}";
},
{
name = ogonek;
position = "{509, 0}";
},
{
name = top;
position = "{378, 650}";
}
);
background = {
anchors = (
{
name = bottom;
position = "{239, 0}";
},
{
name = ogonek;
position = "{509, 0}";
},
{
name = top;
position = "{378, 650}";
}
);
paths = (
{
closed = 1;
nodes = (
"515 0 LINE",
"439 650 LINE",
"369 650 LINE",
"307 549 LINE",
"331 650 LINE",
"379 144 LINE",
"394 0 LINE"
);
},
{
closed = 1;
nodes = (
"422 144 LINE",
"445 254 LINE",
"145 254 LINE",
"122 144 LINE"
);
},
{
closed = 1;
nodes = (
"88 0 LINE",
"165 144 LINE",
"427 650 LINE",
"403 549 LINE",
"385 650 LINE",
"315 650 LINE",
"-37 0 LINE"
);
}
);
};
layerId = "27302DAC-E04E-41A7-B2D2-BD8305143A0A";
paths = (
{
closed = 1;
nodes = (
"88 0 LINE",
"165 144 LINE",
"379 144 LINE",
"394 0 LINE",
"515 0 LINE",
"439 650 LINE",
"315 650 LINE",
"-37 0 LINE"
);
},
{
closed = 1;
nodes = (
"346 493 LINE",
"369 254 LINE",
"222 254 LINE"
);
}
);
width = 580;
},
{
anchors = (
{
name = bottom;
position = "{240, 0}";
},
{
name = ogonek;
position = "{496, 0}";
},
{
name = top;
position = "{378, 650}";
}
);
background = {
anchors = (
{
name = bottom;
position = "{240, 0}";
},
{
name = ogonek;
position = "{496, 0}";
},
{
name = top;
position = "{378, 650}";
}
);
paths = (
{
closed = 1;
nodes = (
"501 0 LINE",
"422 650 LINE",
"369 650 LINE",
"332 568 LINE",
"352 650 LINE",
"403 214 LINE",
"427 0 LINE"
);
},
{
closed = 1;
nodes = (
"441 180 LINE",
"456 250 LINE",
"132 250 LINE",
"117 180 LINE"
);
},
{
closed = 1;
nodes = (
"57 0 LINE",
"173 214 LINE",
"408 650 LINE",
"388 568 LINE",
"387 650 LINE",
"334 650 LINE",
"-21 0 LINE"
);
}
);
};
layerId = "B9B856C8-1FA2-46F4-A929-F36A99765E59";
paths = (
{
closed = 1;
nodes = (
"57 0 LINE",
"155 180 LINE",
"407 180 LINE",
"427 0 LINE",
"501 0 LINE",
"422 650 LINE",
"334 650 LINE",
"-21 0 LINE"
);
},
{
closed = 1;
nodes = (
"362 565 LINE",
"399 250 LINE",
"192 250 LINE"
);
}
);
width = 580;
},
{
anchors = (
{
name = bottom;
position = "{240, 0}";
},
{
name = ogonek;
position = "{496, 0}";
},
{
name = top;
position = "{378, 650}";
}
);
associatedMasterId = "B9B856C8-1FA2-46F4-A929-F36A99765E59";
background = {
anchors = (
{
name = bottom;
position = "{240, 0}";
},
{
name = ogonek;
position = "{496, 0}";
},
{
name = top;
position = "{378, 650}";
}
);
paths = (
{
closed = 1;
nodes = (
"500 0 LINE",
"421 650 LINE",
"367 650 LINE",
"330 568 LINE",
"349 650 LINE",
"400 214 LINE",
"424 0 LINE"
);
},
{
closed = 1;
nodes = (
"439 180 LINE",
"454 250 LINE",
"130 250 LINE",
"115 180 LINE"
);
},
{
closed = 1;
nodes = (
"54 0 LINE",
"170 214 LINE",
"405 650 LINE",
"386 568 LINE",
"385 650 LINE",
"333 650 LINE",
"-22 0 LINE"
);
}
);
};
layerId = "DE3F869E-44B7-45E4-B0A9-F976EC1C17EC";
name = slanted;
paths = (
{
closed = 1;
nodes = (
"501 0 LINE",
"422 650 LINE",
"367 650 LINE",
"331 568 LINE",
"348 650 LINE",
"399 214 LINE",
"423 0 LINE"
);
},
{
closed = 1;
nodes = (
"439 180 LINE",
"454 250 LINE",
"130 250 LINE",
"115 180 LINE"
);
},
{
closed = 1;
nodes = (
"53 0 LINE",
"169 214 LINE",
"404 650 LINE",
"387 568 LINE",
"385 650 LINE",
"334 650 LINE",
"-21 0 LINE"
);
}
);
width = 580;
},
{
anchors = (
{
name = bottom;
position = "{239, 0}";
},
{
name = ogonek;
position = "{509, 0}";
},
{
name = top;
position = "{378, 650}";
}
);
associatedMasterId = "27302DAC-E04E-41A7-B2D2-BD8305143A0A";
background = {
anchors = (
{
name = bottom;
position = "{239, 0}";
},
{
name = ogonek;
position = "{509, 0}";
},
{
name = top;
position = "{378, 650}";
}
);
paths = (
{
closed = 1;
nodes = (
"514 0 LINE",
"438 650 LINE",
"368 650 LINE",
"304 549 LINE",
"328 650 LINE",
"376 144 LINE",
"391 0 LINE"
);
},
{
closed = 1;
nodes = (
"419 144 LINE",
"442 254 LINE",
"142 254 LINE",
"119 144 LINE"
);
},
{
closed = 1;
nodes = (
"85 0 LINE",
"162 144 LINE",
"424 650 LINE",
"400 549 LINE",
"384 650 LINE",
"314 650 LINE",
"-38 0 LINE"
);
}
);
};
layerId = "D27FF60D-931C-4681-A32F-DCDF685AAC31";
name = slanted;
paths = (
{
closed = 1;
nodes = (
"515 0 LINE",
"440 650 LINE",
"370 650 LINE",
"305 549 LINE",
"327 650 LINE",
"374 144 LINE",
"389 0 LINE"
);
},
{
closed = 1;
nodes = (
"419 144 LINE",
"442 254 LINE",
"142 254 LINE",
"119 144 LINE"
);
},
{
closed = 1;
nodes = (
"83 0 LINE",
"160 144 LINE",
"423 650 LINE",
"401 549 LINE",
"386 650 LINE",
"316 650 LINE",
"-37 0 LINE"
);
}
);
width = 580;
},
{
anchors = (
{
name = bottom;
position = "{239, 0}";
},
{
name = ogonek;
position = "{509, 0}";
},
{
name = top;
position = "{378, 650}";
}
);
associatedMasterId = "27302DAC-E04E-41A7-B2D2-BD8305143A0A";
background = {
anchors = (
{
name = bottom;
position = "{239, 0}";
},
{
name = ogonek;
position = "{509, 0}";
},
{
name = top;
position = "{378, 650}";
}
);
paths = (
{
closed = 1;
nodes = (
"515 0 LINE",
"440 650 LINE",
"370 650 LINE",
"305 549 LINE",
"327 650 LINE",
"374 144 LINE",
"389 0 LINE"
);
},
{
closed = 1;
nodes = (
"419 144 LINE",
"442 254 LINE",
"142 254 LINE",
"119 144 LINE"
);
},
{
closed = 1;
nodes = (
"83 0 LINE",
"160 144 LINE",
"423 650 LINE",
"401 549 LINE",
"386 650 LINE",
"316 650 LINE",
"-37 0 LINE"
);
}
);
};
layerId = "029DEB6D-CFC7-426D-B1D0-6A365918B138";
name = cursify;
paths = (
{
closed = 1;
nodes = (
"514 0 LINE",
"438 650 LINE",
"368 650 LINE",
"304 549 LINE",
"328 650 LINE",
"376 144 LINE",
"391 0 LINE"
);
},
{
closed = 1;
nodes = (
"419 144 LINE",
"442 254 LINE",
"142 254 LINE",
"119 144 LINE"
);
},
{
closed = 1;
nodes = (
"85 0 LINE",
"162 144 LINE",
"424 650 LINE",
"400 549 LINE",
"384 650 LINE",
"314 650 LINE",
"-38 0 LINE"
);
}
);
width = 580;
},
{
anchors = (
{
name = bottom;
position = "{240, 0}";
},
{
name = ogonek;
position = "{496, 0}";
},
{
name = top;
position = "{378, 650}";
}
);
associatedMasterId = "B9B856C8-1FA2-46F4-A929-F36A99765E59";
background = {
anchors = (
{
name = bottom;
position = "{240, 0}";
},
{
name = ogonek;
position = "{496, 0}";
},
{
name = top;
position = "{378, 650}";
}
);
paths = (
{
closed = 1;
nodes = (
"501 0 LINE",
"422 650 LINE",
"367 650 LINE",
"331 568 LINE",
"348 650 LINE",
"399 214 LINE",
"423 0 LINE"
);
},
{
closed = 1;
nodes = (
"439 180 LINE",
"454 250 LINE",
"130 250 LINE",
"115 180 LINE"
);
},
{
closed = 1;
nodes = (
"53 0 LINE",
"169 214 LINE",
"404 650 LINE",
"387 568 LINE",
"385 650 LINE",
"334 650 LINE",
"-21 0 LINE"
);
}
);
};
layerId = "B23C7F39-4B24-4305-8101-3E7306F798D8";
name = cursify;
paths = (
{
closed = 1;
nodes = (
"500 0 LINE",
"421 650 LINE",
"367 650 LINE",
"330 568 LINE",
"349 650 LINE",
"400 214 LINE",
"424 0 LINE"
);
},
{
closed = 1;
nodes = (
"439 180 LINE",
"454 250 LINE",
"130 250 LINE",
"115 180 LINE"
);
},
{
closed = 1;
nodes = (
"54 0 LINE",
"170 214 LINE",
"405 650 LINE",
"386 568 LINE",
"385 650 LINE",
"333 650 LINE",
"-22 0 LINE"
);
}
);
width = 580;
}
);
unicode = 0041;
},
{
color = 0;
glyphname = AE;
layers = (
{
anchors = (
{
name = bottom;
position = "{240, 0}";
},
{
name = top;
position = "{392, 650}";
}
);
background = {
anchors = (
{
name = bottom;
position = "{240, 0}";
},
{
name = top;
position = "{392, 650}";
}
);
paths = (
{
closed = 1;
nodes = (
"56 0 LINE",
"140 158 LINE",
"401 650 LINE",
"300 650 LINE",
"-59 0 LINE"
);
},
{
closed = 1;
nodes = (
"271 130 LINE",
"292 230 LINE",
"114 230 LINE",
"93 130 LINE"
);
},
{
closed = 1;
nodes = (
"519 0 LINE",
"541 100 LINE",
"352 100 LINE",
"330 0 LINE"
);
},
{
closed = 1;
nodes = (
"340 0 LINE",
"479 650 LINE",
"372 650 LINE",
"233 0 LINE"
);
},
{
closed = 1;
nodes = (
"550 281 LINE",
"571 381 LINE",
"411 381 LINE",
"390 281 LINE"
);
},
{
closed = 1;
nodes = (
"636 550 LINE",
"658 650 LINE",
"350 650 LINE",
"328 550 LINE"
);
}
);
};
layerId = "27302DAC-E04E-41A7-B2D2-BD8305143A0A";
paths = (
{
closed = 1;
nodes = (
"56 0 LINE",
"125 130 LINE",
"261 130 LINE",
"233 0 LINE",
"519 0 LINE",
"541 100 LINE",
"361 100 LINE",
"400 281 LINE",
"550 281 LINE",
"571 381 LINE",
"421 381 LINE",
"458 550 LINE",
"636 550 LINE",
"658 650 LINE",
"300 650 LINE",
"-59 0 LINE"
);
},
{
closed = 1;
nodes = (
"348 550 LINE",
"351 550 LINE",
"282 230 LINE",
"178 230 LINE"
);
}
);
width = 580;
},
{
anchors = (
{
name = bottom;
position = "{239, 0}";
},
{
name = top;
position = "{396, 650}";
}
);
background = {
anchors = (
{
name = bottom;
position = "{239, 0}";
},
{
name = top;
position = "{396, 650}";
}
);
paths = (
{
closed = 1;
nodes = (
"30 0 LINE",
"151 210 LINE",
"407 650 LINE",
"335 650 LINE",
"-47 0 LINE"
);
},
{
closed = 1;
nodes = (
"288 154 LINE",
"302 223 LINE",
"98 223 LINE",
"84 154 LINE"
);
},
{
closed = 1;
nodes = (
"516 0 LINE",
"531 69 LINE",
"322 69 LINE",
"307 0 LINE"
);
},
{
closed = 1;
nodes = (
"317 0 LINE",
"455 650 LINE",
"384 650 LINE",
"246 0 LINE"
);
},
{
closed = 1;
nodes = (
"550 297 LINE",
"565 365 LINE",
"384 365 LINE",
"369 297 LINE"
);
},
{
closed = 1;
nodes = (
"640 581 LINE",
"654 650 LINE",
"365 650 LINE",
"351 581 LINE"
);
}
);
};
layerId = "B9B856C8-1FA2-46F4-A929-F36A99765E59";
paths = (
{
closed = 1;
nodes = (
"30 0 LINE",
"119 154 LINE",
"279 154 LINE",
"246 0 LINE",
"516 0 LINE",
"531 69 LINE",
"332 69 LINE",
"380 297 LINE",
"550 297 LINE",
"565 365 LINE",
"394 365 LINE",
"440 581 LINE",
"640 581 LINE",
"654 650 LINE",
"335 650 LINE",
"-47 0 LINE"
);
},
{
closed = 1;
nodes = (
"367 581 LINE",
"369 581 LINE",
"293 223 LINE",
"159 223 LINE"
);
}
);
width = 580;
},
{
anchors = (
{
name = bottom;
position = "{239, 0}";
},
{
name = top;
position = "{396, 650}";
}
);
associatedMasterId = "B9B856C8-1FA2-46F4-A929-F36A99765E59";
background = {
anchors = (
{
name = bottom;
position = "{239, 0}";
},
{
name = top;
position = "{396, 650}";
}
);
paths = (
{
closed = 1;
nodes = (
"28 0 LINE",
"150 210 LINE",
"406 650 LINE",
"337 650 LINE",
"-46 0 LINE"
);
},
{
closed = 1;
nodes = (
"278 154 LINE",
"292 223 LINE",
"98 223 LINE",
"84 154 LINE"
);
},
{
closed = 1;
nodes = (
"516 0 LINE",
"531 69 LINE",
"331 69 LINE",
"316 0 LINE"
);
},
{
closed = 1;
nodes = (
"316 0 LINE",
"454 650 LINE",
"383 650 LINE",
"245 0 LINE"
);
},
{
closed = 1;
nodes = (
"550 297 LINE",
"565 365 LINE",
"394 365 LINE",
"379 297 LINE"
);
},
{
closed = 1;
nodes = (
"640 581 LINE",
"654 650 LINE",
"365 650 LINE",
"351 581 LINE"
);
}
);
};
layerId = "9665E261-7A2C-45CA-A99A-CA384A8FF69D";
name = slanted;
paths = (
{
closed = 1;
nodes = (
"28 0 LINE",
"150 210 LINE",
"406 650 LINE",
"337 650 LINE",
"-46 0 LINE"
);
},
{
closed = 1;
nodes = (
"278 154 LINE",
"292 223 LINE",
"98 223 LINE",
"84 154 LINE"
);
},
{
closed = 1;
nodes = (
"516 0 LINE",
"531 69 LINE",
"331 69 LINE",
"316 0 LINE"
);
},
{
closed = 1;
nodes = (
"316 0 LINE",
"454 650 LINE",
"383 650 LINE",
"245 0 LINE"
);
},
{
closed = 1;
nodes = (
"550 297 LINE",
"565 365 LINE",
"394 365 LINE",
"379 297 LINE"
);
},
{
closed = 1;
nodes = (
"640 581 LINE",
"654 650 LINE",
"365 650 LINE",
"351 581 LINE"
);
}
);
width = 580;
},
{
anchors = (
{
name = bottom;
position = "{239, 0}";
},
{
name = top;
position = "{396, 650}";
}
);
associatedMasterId = "B9B856C8-1FA2-46F4-A929-F36A99765E59";
background = {
anchors = (
{
name = bottom;
position = "{239, 0}";
},
{
name = top;
position = "{396, 650}";
}
);
paths = (
{
closed = 1;
nodes = (
"28 0 LINE",
"150 210 LINE",
"406 650 LINE",
"337 650 LINE",
"-46 0 LINE"
);
},
{
closed = 1;
nodes = (
"278 154 LINE",
"292 223 LINE",
"98 223 LINE",
"84 154 LINE"
);
},
{
closed = 1;
nodes = (
"516 0 LINE",
"531 69 LINE",
"331 69 LINE",
"316 0 LINE"
);
},
{
closed = 1;
nodes = (
"316 0 LINE",
"454 650 LINE",
"383 650 LINE",
"245 0 LINE"
);
},
{
closed = 1;
nodes = (
"550 297 LINE",
"565 365 LINE",
"394 365 LINE",
"379 297 LINE"
);
},
{
closed = 1;
nodes = (
"640 581 LINE",
"654 650 LINE",
"365 650 LINE",
"351 581 LINE"
);
}
);
};
layerId = "DAAF9DF7-9C6B-41CE-9E41-F33FD90244B3";
name = cursify;
paths = (
{
closed = 1;
nodes = (
"29 0 LINE",
"151 210 LINE",
"407 650 LINE",
"336 650 LINE",
"-47 0 LINE"
);
},
{
closed = 1;
nodes = (
"278 154 LINE",
"292 223 LINE",
"98 223 LINE",
"84 154 LINE"
);
},
{
closed = 1;
nodes = (
"516 0 LINE",
"531 69 LINE",
"331 69 LINE",
"316 0 LINE"
);
},
{
closed = 1;
nodes = (
"316 0 LINE",
"454 650 LINE",
"383 650 LINE",
"245 0 LINE"
);
},
{
closed = 1;
nodes = (
"550 297 LINE",
"565 365 LINE",
"394 365 LINE",
"379 297 LINE"
);
},
{
closed = 1;
nodes = (
"640 581 LINE",
"654 650 LINE",
"365 650 LINE",
"351 581 LINE"
);
}
);
width = 580;
},
{
anchors = (
{
name = bottom;
position = "{240, 0}";
},
{
name = top;
position = "{392, 650}";
}
);
associatedMasterId = "27302DAC-E04E-41A7-B2D2-BD8305143A0A";
background = {
anchors = (
{
name = bottom;
position = "{240, 0}";
},
{
name = top;
position = "{392, 650}";
}
);
paths = (
{
closed = 1;
nodes = (
"52 0 LINE",
"138 158 LINE",
"400 650 LINE",
"303 650 LINE",
"-58 0 LINE"
);
},
{
closed = 1;
nodes = (
"259 130 LINE",
"280 230 LINE",
"112 230 LINE",
"91 130 LINE"
);
},
{
closed = 1;
nodes = (
"519 0 LINE",
"541 100 LINE",
"360 100 LINE",
"338 0 LINE"
);
},
{
closed = 1;
nodes = (
"338 0 LINE",
"477 650 LINE",
"370 650 LINE",
"231 0 LINE"
);
},
{
closed = 1;
nodes = (
"550 281 LINE",
"571 381 LINE",
"419 381 LINE",
"398 281 LINE"
);
},
{
closed = 1;
nodes = (
"636 550 LINE",
"658 650 LINE",
"350 650 LINE",
"328 550 LINE"
);
}
);
};
layerId = "6699D447-CB91-408C-B976-8DDE511C9413";
name = slanted;
paths = (
{
closed = 1;
nodes = (
"52 0 LINE",
"138 158 LINE",
"400 650 LINE",
"303 650 LINE",
"-58 0 LINE"
);
},
{
closed = 1;
nodes = (
"259 130 LINE",
"280 230 LINE",
"112 230 LINE",
"91 130 LINE"
);
},
{
closed = 1;
nodes = (
"519 0 LINE",
"541 100 LINE",
"360 100 LINE",
"338 0 LINE"
);
},
{
closed = 1;
nodes = (
"338 0 LINE",
"477 650 LINE",
"370 650 LINE",
"231 0 LINE"
);
},
{
closed = 1;
nodes = (
"550 281 LINE",
"571 381 LINE",
"419 381 LINE",
"398 281 LINE"
);
},
{
closed = 1;
nodes = (
"636 550 LINE",
"658 650 LINE",
"350 650 LINE",
"328 550 LINE"
);
}
);
width = 580;
},
{
anchors = (
{
name = bottom;
position = "{240, 0}";
},
{
name = top;
position = "{392, 650}";
}
);
associatedMasterId = "27302DAC-E04E-41A7-B2D2-BD8305143A0A";
background = {
anchors = (
{
name = bottom;
position = "{240, 0}";
},
{
name = top;
position = "{392, 650}";
}
);
paths = (
{
closed = 1;
nodes = (
"52 0 LINE",
"138 158 LINE",
"400 650 LINE",
"303 650 LINE",
"-58 0 LINE"
);
},
{
closed = 1;
nodes = (
"259 130 LINE",
"280 230 LINE",
"112 230 LINE",
"91 130 LINE"
);
},
{
closed = 1;
nodes = (
"519 0 LINE",
"541 100 LINE",
"360 100 LINE",
"338 0 LINE"
);
},
{
closed = 1;
nodes = (
"338 0 LINE",
"477 650 LINE",
"370 650 LINE",
"231 0 LINE"
);
},
{
closed = 1;
nodes = (
"550 281 LINE",
"571 381 LINE",
"419 381 LINE",
"398 281 LINE"
);
},
{
closed = 1;
nodes = (
"636 550 LINE",
"658 650 LINE",
"350 650 LINE",
"328 550 LINE"
);
}
);
};
layerId = "4054C2CA-5CA8-45AC-902D-3582DDF17F21";
name = cursify;
paths = (
{
closed = 1;
nodes = (
"54 0 LINE",
"140 158 LINE",
"401 650 LINE",
"301 650 LINE",
"-59 0 LINE"
);
},
{
closed = 1;
nodes = (
"259 130 LINE",
"280 230 LINE",
"112 230 LINE",
"91 130 LINE"
);
},
{
closed = 1;
nodes = (
"519 0 LINE",
"541 100 LINE",
"360 100 LINE",
"338 0 LINE"
);
},
{
closed = 1;
nodes = (
"338 0 LINE",
"477 650 LINE",
"370 650 LINE",
"231 0 LINE"
);
},
{
closed = 1;
nodes = (
"550 281 LINE",
"571 381 LINE",
"419 381 LINE",
"398 281 LINE"
);
},
{
closed = 1;
nodes = (
"636 550 LINE",
"658 650 LINE",
"350 650 LINE",
"328 550 LINE"
);
}
);
width = 580;
}
);
unicode = 00C6;
},
{
color = 0;
glyphname = B;
layers = (
{
anchors = (
{
name = bottom;
position = "{238, 0}";
},
{
name = top;
position = "{377, 650}";
}
);
background = {
anchors = (
{
name = bottom;
position = "{238, 0}";
},
{
name = top;
position = "{377, 650}";
}
);
paths = (
{
closed = 1;
nodes = (
"280 0 LINE SMOOTH",
"420 0 OFFCURVE",
"496 55 OFFCURVE",
"519 170 CURVE SMOOTH",
"543 293 OFFCURVE",
"483 352 OFFCURVE",
"338 352 CURVE SMOOTH",
"201 352 LINE",
"186 279 LINE",
"306 279 LINE SMOOTH",
"384 279 OFFCURVE",
"413 253 OFFCURVE",
"401 192 CURVE SMOOTH",
"390 135 OFFCURVE",
"355 110 OFFCURVE",
"286 110 CURVE SMOOTH",
"150 110 LINE",
"126 0 LINE"
);
},
{
closed = 1;
nodes = (
"146 0 LINE",
"285 650 LINE",
"164 650 LINE",
"25 0 LINE"
);
},
{
closed = 1;
nodes = (
"445 335 LINE",
"445 339 LINE",
"435 339 LINE",
"435 335 LINE"
);
},
{
closed = 1;
nodes = (
"336 326 LINE SMOOTH",
"481 326 OFFCURVE",
"545 370 OFFCURVE",
"565 471 CURVE SMOOTH",
"588 588 OFFCURVE",
"528 650 OFFCURVE",
"388 650 CURVE SMOOTH",
"265 650 LINE",
"241 540 LINE",
"363 540 LINE SMOOTH",
"432 540 OFFCURVE",
"453 519 OFFCURVE",
"443 467 CURVE SMOOTH",
"432 412 OFFCURVE",
"399 389 OFFCURVE",
"321 389 CURVE SMOOTH",
"209 389 LINE",
"196 326 LINE"
);
}
);
};
layerId = "27302DAC-E04E-41A7-B2D2-BD8305143A0A";
paths = (
{
closed = 1;
nodes = (
"280 0 LINE SMOOTH",
"436 0 OFFCURVE",
"524 79 OFFCURVE",
"524 219 CURVE SMOOTH",
"524 278 OFFCURVE",
"497 316 OFFCURVE",
"444 336 CURVE",
"444 338 LINE",
"530 363 OFFCURVE",
"570 420 OFFCURVE",
"570 517 CURVE SMOOTH",
"570 605 OFFCURVE",
"508 650 OFFCURVE",
"388 650 CURVE SMOOTH",
"164 650 LINE",
"25 0 LINE"
);
},
{
closed = 1;
nodes = (
"206 279 LINE",
"306 279 LINE SMOOTH",
"373 279 OFFCURVE",
"404 259 OFFCURVE",
"404 216 CURVE SMOOTH",
"404 147 OFFCURVE",
"363 110 OFFCURVE",
"286 110 CURVE SMOOTH",
"170 110 LINE"
);
},
{
closed = 1;
nodes = (
"261 540 LINE",
"363 540 LINE SMOOTH",
"421 540 OFFCURVE",
"445 525 OFFCURVE",
"445 489 CURVE SMOOTH",
"445 420 OFFCURVE",
"407 389 OFFCURVE",
"321 389 CURVE SMOOTH",
"229 389 LINE"
);
}
);
width = 580;
},
{
anchors = (
{
name = bottom;
position = "{241, 0}";
},
{
name = top;
position = "{379, 650}";
}
);
background = {
anchors = (
{
name = bottom;
position = "{241, 0}";
},
{
name = top;
position = "{379, 650}";
}
);
paths = (
{
closed = 1;
nodes = (
"283 0 LINE SMOOTH",
"414 0 OFFCURVE",
"487 56 OFFCURVE",
"510 173 CURVE SMOOTH",
"533 292 OFFCURVE",
"479 350 OFFCURVE",
"344 350 CURVE SMOOTH",
"164 350 LINE",
"154 300 LINE",
"316 300 LINE SMOOTH",
"416 300 OFFCURVE",
"451 264 OFFCURVE",
"436 182 CURVE SMOOTH",
"420 104 OFFCURVE",
"375 70 OFFCURVE",
"284 70 CURVE SMOOTH",
"105 70 LINE",
"90 0 LINE"
);
},
{
closed = 1;
nodes = (
"110 0 LINE",
"248 650 LINE",
"174 650 LINE",
"36 0 LINE"
);
},
{
closed = 1;
nodes = (
"437 336 LINE",
"437 340 LINE",
"427 340 LINE",
"427 336 LINE"
);
},
{
closed = 1;
nodes = (
"339 328 LINE SMOOTH",
"475 328 OFFCURVE",
"537 373 OFFCURVE",
"557 477 CURVE SMOOTH",
"579 591 OFFCURVE",
"525 650 OFFCURVE",
"394 650 CURVE SMOOTH",
"228 650 LINE",
"213 580 LINE",
"376 580 LINE SMOOTH",
"467 580 OFFCURVE",
"496 549 OFFCURVE",
"481 477 CURVE SMOOTH",
"467 401 OFFCURVE",
"422 369 OFFCURVE",
"322 369 CURVE SMOOTH",
"168 369 LINE",
"160 328 LINE"
);
}
);
};
layerId = "B9B856C8-1FA2-46F4-A929-F36A99765E59";
paths = (
{
closed = 1;
nodes = (
"283 0 LINE SMOOTH",
"431 0 OFFCURVE",
"515 80 OFFCURVE",
"515 222 CURVE SMOOTH",
"515 281 OFFCURVE",
"489 319 OFFCURVE",
"436 337 CURVE",
"436 339 LINE",
"520 363 OFFCURVE",
"562 424 OFFCURVE",
"562 523 CURVE SMOOTH",
"562 607 OFFCURVE",
"505 650 OFFCURVE",
"394 650 CURVE SMOOTH",
"174 650 LINE",
"36 0 LINE"
);
},
{
closed = 1;
nodes = (
"174 300 LINE",
"316 300 LINE SMOOTH",
"401 300 OFFCURVE",
"439 274 OFFCURVE",
"439 215 CURVE SMOOTH",
"439 121 OFFCURVE",
"385 70 OFFCURVE",
"284 70 CURVE SMOOTH",
"125 70 LINE"
);
},
{
closed = 1;
nodes = (
"233 580 LINE",
"376 580 LINE SMOOTH",
"451 580 OFFCURVE",
"485 558 OFFCURVE",
"485 509 CURVE SMOOTH",
"485 415 OFFCURVE",
"431 369 OFFCURVE",
"322 369 CURVE SMOOTH",
"188 369 LINE"
);
}
);
width = 580;
},
{
anchors = (
{
name = bottom;
position = "{241, 0}";
},
{
name = top;
position = "{379, 650}";
}
);
associatedMasterId = "B9B856C8-1FA2-46F4-A929-F36A99765E59";
background = {
anchors = (
{
name = bottom;
position = "{241, 0}";
},
{
name = top;
position = "{379, 650}";
}
);
paths = (
{
closed = 1;
nodes = (
"279 0 LINE SMOOTH",
"410 0 OFFCURVE",
"485 57 OFFCURVE",
"510 174 CURVE SMOOTH",
"535 293 OFFCURVE",
"482 350 OFFCURVE",
"347 350 CURVE SMOOTH",
"184 350 LINE",
"174 300 LINE",
"321 300 LINE SMOOTH",
"421 300 OFFCURVE",
"454 267 OFFCURVE",
"437 188 CURVE SMOOTH",
"420 107 OFFCURVE",
"370 70 OFFCURVE",
"279 70 CURVE SMOOTH",
"125 70 LINE",
"110 0 LINE"
);
},
{
closed = 1;
nodes = (
"110 0 LINE",
"248 650 LINE",
"174 650 LINE",
"36 0 LINE"
);
},
{
closed = 1;
nodes = (
"436 339 LINE",
"437 343 LINE",
"427 343 LINE",
"426 339 LINE"
);
},
{
closed = 1;
nodes = (
"336 328 LINE SMOOTH",
"471 328 OFFCURVE",
"535 374 OFFCURVE",
"557 478 CURVE SMOOTH",
"581 592 OFFCURVE",
"529 650 OFFCURVE",
"397 650 CURVE SMOOTH",
"248 650 LINE",
"233 580 LINE",
"381 580 LINE SMOOTH",
"472 580 OFFCURVE",
"497 552 OFFCURVE",
"483 483 CURVE SMOOTH",
"466 404 OFFCURVE",
"418 369 OFFCURVE",
"318 369 CURVE SMOOTH",
"188 369 LINE",
"180 328 LINE"
);
}
);
};
layerId = "5C0F1A64-5971-4508-A549-1D1326A3355C";
name = slanted;
paths = (
{
closed = 1;
nodes = (
"276 0 LINE SMOOTH",
"407 0 OFFCURVE",
"486 60 OFFCURVE",
"511 180 CURVE SMOOTH",
"536 296 OFFCURVE",
"484 350 OFFCURVE",
"349 350 CURVE SMOOTH",
"184 350 LINE",
"174 300 LINE",
"318 300 LINE SMOOTH",
"418 300 OFFCURVE",
"453 264 OFFCURVE",
"436 182 CURVE SMOOTH",
"419 104 OFFCURVE",
"373 70 OFFCURVE",
"282 70 CURVE SMOOTH",
"125 70 LINE",
"110 0 LINE"
);
},
{
closed = 1;
nodes = (
"110 0 LINE",
"248 650 LINE",
"174 650 LINE",
"36 0 LINE"
);
},
{
closed = 1;
nodes = (
"436 339 LINE",
"437 343 LINE",
"427 343 LINE",
"426 339 LINE"
);
},
{
closed = 1;
nodes = (
"333 328 LINE SMOOTH",
"468 328 OFFCURVE",
"535 377 OFFCURVE",
"558 484 CURVE SMOOTH",
"582 595 OFFCURVE",
"532 650 OFFCURVE",
"400 650 CURVE SMOOTH",
"248 650 LINE",
"233 580 LINE",
"378 580 LINE SMOOTH",
"469 580 OFFCURVE",
"497 549 OFFCURVE",
"481 477 CURVE SMOOTH",
"465 401 OFFCURVE",
"420 369 OFFCURVE",
"320 369 CURVE SMOOTH",
"188 369 LINE",
"180 328 LINE"
);
}
);
width = 580;
},
{
anchors = (
{
name = bottom;
position = "{241, 0}";
},
{
name = top;
position = "{379, 650}";
}
);
associatedMasterId = "B9B856C8-1FA2-46F4-A929-F36A99765E59";
background = {
anchors = (
{
name = bottom;
position = "{241, 0}";
},
{
name = top;
position = "{379, 650}";
}
);
paths = (
{
closed = 1;
nodes = (
"276 0 LINE SMOOTH",
"407 0 OFFCURVE",
"486 60 OFFCURVE",
"511 180 CURVE SMOOTH",
"536 296 OFFCURVE",
"484 350 OFFCURVE",
"349 350 CURVE SMOOTH",
"184 350 LINE",
"174 300 LINE",
"318 300 LINE SMOOTH",
"418 300 OFFCURVE",
"453 264 OFFCURVE",
"436 182 CURVE SMOOTH",
"419 104 OFFCURVE",
"373 70 OFFCURVE",
"282 70 CURVE SMOOTH",
"125 70 LINE",
"110 0 LINE"
);
},
{
closed = 1;
nodes = (
"110 0 LINE",
"248 650 LINE",
"174 650 LINE",
"36 0 LINE"
);
},
{
closed = 1;
nodes = (
"436 339 LINE",
"437 343 LINE",
"427 343 LINE",
"426 339 LINE"
);
},
{
closed = 1;
nodes = (
"333 328 LINE SMOOTH",
"468 328 OFFCURVE",
"535 377 OFFCURVE",
"558 484 CURVE SMOOTH",
"582 595 OFFCURVE",
"532 650 OFFCURVE",
"400 650 CURVE SMOOTH",
"248 650 LINE",
"233 580 LINE",
"378 580 LINE SMOOTH",
"469 580 OFFCURVE",
"497 549 OFFCURVE",
"481 477 CURVE SMOOTH",
"465 401 OFFCURVE",
"420 369 OFFCURVE",
"320 369 CURVE SMOOTH",
"188 369 LINE",
"180 328 LINE"
);
}
);
};
layerId = "02FECDD3-5931-4733-B96F-95926EA980BB";
name = cursify;
paths = (
{
closed = 1;
nodes = (
"279 0 LINE SMOOTH",
"410 0 OFFCURVE",
"485 57 OFFCURVE",
"510 174 CURVE SMOOTH",
"535 293 OFFCURVE",
"482 350 OFFCURVE",
"347 350 CURVE SMOOTH",
"184 350 LINE",
"174 300 LINE",
"321 300 LINE SMOOTH",
"421 300 OFFCURVE",
"454 267 OFFCURVE",
"437 188 CURVE SMOOTH",
"420 107 OFFCURVE",
"370 70 OFFCURVE",
"279 70 CURVE SMOOTH",
"125 70 LINE",
"110 0 LINE"
);
},
{
closed = 1;
nodes = (
"110 0 LINE",
"248 650 LINE",
"174 650 LINE",
"36 0 LINE"
);
},
{
closed = 1;
nodes = (
"436 339 LINE",
"437 343 LINE",
"427 343 LINE",
"426 339 LINE"
);
},
{
closed = 1;
nodes = (
"336 328 LINE SMOOTH",
"471 328 OFFCURVE",
"535 374 OFFCURVE",
"557 478 CURVE SMOOTH",
"581 592 OFFCURVE",
"529 650 OFFCURVE",
"397 650 CURVE SMOOTH",
"248 650 LINE",
"233 580 LINE",
"381 580 LINE SMOOTH",
"472 580 OFFCURVE",
"497 552 OFFCURVE",
"483 483 CURVE SMOOTH",
"466 404 OFFCURVE",
"418 369 OFFCURVE",
"318 369 CURVE SMOOTH",
"188 369 LINE",
"180 328 LINE"
);
}
);
width = 580;
},
{
anchors = (
{
name = bottom;
position = "{238, 0}";
},
{
name = top;
position = "{377, 650}";
}
);
associatedMasterId = "27302DAC-E04E-41A7-B2D2-BD8305143A0A";
background = {
anchors = (
{
name = bottom;
position = "{238, 0}";
},
{
name = top;
position = "{377, 650}";
}
);
paths = (
{
closed = 1;
nodes = (
"276 0 LINE SMOOTH",
"416 0 OFFCURVE",
"494 56 OFFCURVE",
"519 172 CURVE SMOOTH",
"545 294 OFFCURVE",
"487 352 OFFCURVE",
"342 352 CURVE SMOOTH",
"221 352 LINE",
"206 279 LINE",
"312 279 LINE SMOOTH",
"390 279 OFFCURVE",
"415 258 OFFCURVE",
"403 202 CURVE SMOOTH",
"390 140 OFFCURVE",
"349 110 OFFCURVE",
"280 110 CURVE SMOOTH",
"170 110 LINE",
"146 0 LINE"
);
},
{
closed = 1;
nodes = (
"146 0 LINE",
"285 650 LINE",
"164 650 LINE",
"25 0 LINE"
);
},
{
closed = 1;
nodes = (
"445 339 LINE",
"446 343 LINE",
"436 343 LINE",
"435 339 LINE"
);
},
{
closed = 1;
nodes = (
"332 326 LINE SMOOTH",
"477 326 OFFCURVE",
"543 371 OFFCURVE",
"565 473 CURVE SMOOTH",
"590 589 OFFCURVE",
"532 650 OFFCURVE",
"392 650 CURVE SMOOTH",
"285 650 LINE",
"261 540 LINE",
"369 540 LINE SMOOTH",
"438 540 OFFCURVE",
"455 524 OFFCURVE",
"445 477 CURVE SMOOTH",
"432 417 OFFCURVE",
"393 389 OFFCURVE",
"315 389 CURVE SMOOTH",
"229 389 LINE",
"216 326 LINE"
);
}
);
};
layerId = "446DFFE7-CD04-496A-B99D-8EBC749F6E5A";
name = slanted;
paths = (
{
closed = 1;
nodes = (
"271 0 LINE SMOOTH",
"411 0 OFFCURVE",
"495 61 OFFCURVE",
"521 182 CURVE SMOOTH",
"546 299 OFFCURVE",
"491 352 OFFCURVE",
"346 352 CURVE SMOOTH",
"221 352 LINE",
"206 279 LINE",
"308 279 LINE SMOOTH",
"386 279 OFFCURVE",
"414 253 OFFCURVE",
"401 192 CURVE SMOOTH",
"389 135 OFFCURVE",
"354 110 OFFCURVE",
"285 110 CURVE SMOOTH",
"170 110 LINE",
"146 0 LINE"
);
},
{
closed = 1;
nodes = (
"146 0 LINE",
"285 650 LINE",
"164 650 LINE",
"25 0 LINE"
);
},
{
closed = 1;
nodes = (
"445 339 LINE",
"446 343 LINE",
"436 343 LINE",
"435 339 LINE"
);
},
{
closed = 1;
nodes = (
"328 326 LINE SMOOTH",
"473 326 OFFCURVE",
"544 376 OFFCURVE",
"567 483 CURVE SMOOTH",
"591 594 OFFCURVE",
"537 650 OFFCURVE",
"397 650 CURVE SMOOTH",
"285 650 LINE",
"261 540 LINE",
"364 540 LINE SMOOTH",
"433 540 OFFCURVE",
"454 519 OFFCURVE",
"443 467 CURVE SMOOTH",
"431 412 OFFCURVE",
"397 389 OFFCURVE",
"319 389 CURVE SMOOTH",
"229 389 LINE",
"216 326 LINE"
);
}
);
width = 580;
},
{
anchors = (
{
name = bottom;
position = "{238, 0}";
},
{
name = top;
position = "{377, 650}";
}
);
associatedMasterId = "27302DAC-E04E-41A7-B2D2-BD8305143A0A";
background = {
anchors = (
{
name = bottom;
position = "{238, 0}";
},
{
name = top;
position = "{377, 650}";
}
);
paths = (
{
closed = 1;
nodes = (
"271 0 LINE SMOOTH",
"411 0 OFFCURVE",
"495 61 OFFCURVE",
"521 182 CURVE SMOOTH",
"546 299 OFFCURVE",
"491 352 OFFCURVE",
"346 352 CURVE SMOOTH",
"221 352 LINE",
"206 279 LINE",
"308 279 LINE SMOOTH",
"386 279 OFFCURVE",
"414 253 OFFCURVE",
"401 192 CURVE SMOOTH",
"389 135 OFFCURVE",
"354 110 OFFCURVE",
"285 110 CURVE SMOOTH",
"170 110 LINE",
"146 0 LINE"
);
},
{
closed = 1;
nodes = (
"146 0 LINE",
"285 650 LINE",
"164 650 LINE",
"25 0 LINE"
);
},
{
closed = 1;
nodes = (
"445 339 LINE",
"446 343 LINE",
"436 343 LINE",
"435 339 LINE"
);
},
{
closed = 1;
nodes = (
"328 326 LINE SMOOTH",
"473 326 OFFCURVE",
"544 376 OFFCURVE",
"567 483 CURVE SMOOTH",
"591 594 OFFCURVE",
"537 650 OFFCURVE",
"397 650 CURVE SMOOTH",
"285 650 LINE",
"261 540 LINE",
"364 540 LINE SMOOTH",
"433 540 OFFCURVE",
"454 519 OFFCURVE",
"443 467 CURVE SMOOTH",
"431 412 OFFCURVE",
"397 389 OFFCURVE",
"319 389 CURVE SMOOTH",
"229 389 LINE",
"216 326 LINE"
);
}
);
};
layerId = "676DD244-CDC1-4AE0-AA22-EB6E22BF4DC0";
name = cursify;
paths = (
{
closed = 1;
nodes = (
"276 0 LINE SMOOTH",
"416 0 OFFCURVE",
"494 56 OFFCURVE",
"519 172 CURVE SMOOTH",
"545 294 OFFCURVE",
"487 352 OFFCURVE",
"342 352 CURVE SMOOTH",
"221 352 LINE",
"206 279 LINE",
"312 279 LINE SMOOTH",
"390 279 OFFCURVE",
"415 258 OFFCURVE",
"403 202 CURVE SMOOTH",
"390 140 OFFCURVE",
"349 110 OFFCURVE",
"280 110 CURVE SMOOTH",
"170 110 LINE",
"146 0 LINE"
);
},
{
closed = 1;
nodes = (
"146 0 LINE",
"285 650 LINE",
"164 650 LINE",
"25 0 LINE"
);
},
{
closed = 1;
nodes = (
"445 339 LINE",
"446 343 LINE",
"436 343 LINE",
"435 339 LINE"
);
},
{
closed = 1;
nodes = (
"332 326 LINE SMOOTH",
"477 326 OFFCURVE",
"543 371 OFFCURVE",
"565 473 CURVE SMOOTH",
"590 589 OFFCURVE",
"532 650 OFFCURVE",
"392 650 CURVE SMOOTH",
"285 650 LINE",
"261 540 LINE",
"369 540 LINE SMOOTH",
"438 540 OFFCURVE",
"455 524 OFFCURVE",
"445 477 CURVE SMOOTH",
"432 417 OFFCURVE",
"393 389 OFFCURVE",
"315 389 CURVE SMOOTH",
"229 389 LINE",
"216 326 LINE"
);
}
);
width = 580;
}
);
unicode = 0042;
},
{
color = 0;
glyphname = C;
layers = (
{
anchors = (
{
name = bottom;
position = "{262, 0}";
},
{
name = top;
position = "{396, 650}";
}
);
background = {
anchors = (
{
name = bottom;
position = "{262, 0}";
},
{
name = top;
position = "{396, 650}";
}
);
paths = (
{
closed = 1;
nodes = (
"372 -14 OFFCURVE",
"450 14 OFFCURVE",
"531 89 CURVE",
"522 57 LINE",
"434 188 LINE",
"462 171 LINE",
"405 119 OFFCURVE",
"354 99 OFFCURVE",
"299 101 CURVE SMOOTH",
"199 104 OFFCURVE",
"166 180 OFFCURVE",
"197 328 CURVE SMOOTH",
"229 477 OFFCURVE",
"296 551 OFFCURVE",
"396 548 CURVE SMOOTH",
"451 546 OFFCURVE",
"492 524 OFFCURVE",
"532 477 CURVE",
"499 478 LINE",
"608 607 LINE",
"622 535 LINE",
"573 617 OFFCURVE",
"511 656 OFFCURVE",
"414 659 CURVE SMOOTH",
"240 665 OFFCURVE",
"122 553 OFFCURVE",
"76 338 CURVE SMOOTH",
"29 118 OFFCURVE",
"101 -4 OFFCURVE",
"279 -10 CURVE SMOOTH"
);
}
);
};
layerId = "27302DAC-E04E-41A7-B2D2-BD8305143A0A";
paths = (
{
closed = 1;
nodes = (
"377 -12 OFFCURVE",
"446 14 OFFCURVE",
"512 70 CURVE",
"452 161 LINE",
"403 119 OFFCURVE",
"358 100 OFFCURVE",
"306 100 CURVE SMOOTH",
"226 100 OFFCURVE",
"184 144 OFFCURVE",
"184 234 CURVE SMOOTH",
"184 355 OFFCURVE",
"238 550 OFFCURVE",
"393 550 CURVE SMOOTH",
"443 550 OFFCURVE",
"481 534 OFFCURVE",
"516 498 CURVE",
"590 586 LINE",
"544 638 OFFCURVE",
"486 662 OFFCURVE",
"403 662 CURVE SMOOTH",
"158 662 OFFCURVE",
"62 411 OFFCURVE",
"62 218 CURVE SMOOTH",
"62 69 OFFCURVE",
"144 -12 OFFCURVE",
"296 -12 CURVE SMOOTH"
);
}
);
width = 580;
},
{
anchors = (
{
name = bottom;
position = "{266, 0}";
},
{
name = top;
position = "{399, 650}";
}
);
background = {
anchors = (
{
name = bottom;
position = "{266, 0}";
},
{
name = top;
position = "{399, 650}";
}
);
paths = (
{
closed = 1;
nodes = (
"372 -13 OFFCURVE",
"444 15 OFFCURVE",
"536 98 CURVE",
"524 25 LINE",
"444 143 LINE",
"493 152 LINE",
"417 85 OFFCURVE",
"360 58 OFFCURVE",
"289 61 CURVE SMOOTH",
"167 65 OFFCURVE",
"124 152 OFFCURVE",
"161 325 CURVE SMOOTH",
"199 504 OFFCURVE",
"286 593 OFFCURVE",
"413 588 CURVE SMOOTH",
"479 586 OFFCURVE",
"522 559 OFFCURVE",
"568 488 CURVE",
"495 492 LINE",
"614 629 LINE",
"626 531 LINE",
"569 619 OFFCURVE",
"510 656 OFFCURVE",
"417 659 CURVE SMOOTH",
"248 665 OFFCURVE",
"133 553 OFFCURVE",
"87 340 CURVE SMOOTH",
"40 120 OFFCURVE",
"110 -4 OFFCURVE",
"285 -10 CURVE SMOOTH"
);
}
);
};
layerId = "B9B856C8-1FA2-46F4-A929-F36A99765E59";
paths = (
{
closed = 1;
nodes = (
"369 -12 OFFCURVE",
"429 11 OFFCURVE",
"497 63 CURVE",
"458 121 LINE",
"401 77 OFFCURVE",
"355 59 OFFCURVE",
"299 59 CURVE SMOOTH",
"198 59 OFFCURVE",
"148 112 OFFCURVE",
"148 219 CURVE SMOOTH",
"148 366 OFFCURVE",
"219 591 OFFCURVE",
"405 591 CURVE SMOOTH",
"460 591 OFFCURVE",
"499 575 OFFCURVE",
"534 538 CURVE",
"582 593 LINE",
"536 641 OFFCURVE",
"483 662 OFFCURVE",
"406 662 CURVE SMOOTH",
"168 662 OFFCURVE",
"73 407 OFFCURVE",
"73 218 CURVE SMOOTH",
"73 69 OFFCURVE",
"151 -12 OFFCURVE",
"297 -12 CURVE SMOOTH"
);
}
);
width = 580;
},
{
anchors = (
{
name = bottom;
position = "{266, 0}";
},
{
name = top;
position = "{399, 650}";
}
);
associatedMasterId = "B9B856C8-1FA2-46F4-A929-F36A99765E59";
background = {
anchors = (
{
name = bottom;
position = "{266, 0}";
},
{
name = top;
position = "{399, 650}";
}
);
paths = (
{
closed = 1;
nodes = (
"372 -12 OFFCURVE",
"444 19 OFFCURVE",
"536 105 CURVE",
"516 20 LINE",
"449 146 LINE",
"493 158 LINE",
"417 88 OFFCURVE",
"360 59 OFFCURVE",
"289 59 CURVE SMOOTH",
"167 59 OFFCURVE",
"124 145 OFFCURVE",
"161 319 CURVE SMOOTH",
"199 499 OFFCURVE",
"286 591 OFFCURVE",
"413 591 CURVE SMOOTH",
"479 591 OFFCURVE",
"522 566 OFFCURVE",
"568 496 CURVE",
"495 492 LINE",
"614 629 LINE",
"626 541 LINE",
"569 627 OFFCURVE",
"510 662 OFFCURVE",
"417 662 CURVE SMOOTH",
"248 662 OFFCURVE",
"133 546 OFFCURVE",
"87 331 CURVE SMOOTH",
"40 110 OFFCURVE",
"110 -12 OFFCURVE",
"285 -12 CURVE SMOOTH"
);
}
);
};
layerId = "63C85C1A-823F-4B09-AE8A-88D6F0107437";
name = slanted;
paths = (
{
closed = 1;
nodes = (
"369 -12 OFFCURVE",
"443 21 OFFCURVE",
"535 107 CURVE",
"517 20 LINE",
"450 146 LINE",
"494 156 LINE",
"418 86 OFFCURVE",
"363 59 OFFCURVE",
"295 59 CURVE SMOOTH",
"170 59 OFFCURVE",
"125 148 OFFCURVE",
"162 325 CURVE SMOOTH",
"200 502 OFFCURVE",
"283 591 OFFCURVE",
"408 591 CURVE SMOOTH",
"476 591 OFFCURVE",
"520 564 OFFCURVE",
"566 494 CURVE",
"494 492 LINE",
"612 629 LINE",
"627 543 LINE",
"572 629 OFFCURVE",
"513 662 OFFCURVE",
"423 662 CURVE SMOOTH",
"251 662 OFFCURVE",
"132 543 OFFCURVE",
"86 325 CURVE SMOOTH",
"40 107 OFFCURVE",
"107 -12 OFFCURVE",
"279 -12 CURVE SMOOTH"
);
}
);
width = 580;
},
{
anchors = (
{
name = bottom;
position = "{262, 0}";
},
{
name = top;
position = "{396, 650}";
}
);
associatedMasterId = "27302DAC-E04E-41A7-B2D2-BD8305143A0A";
background = {
anchors = (
{
name = bottom;
position = "{262, 0}";
},
{
name = top;
position = "{396, 650}";
}
);
paths = (
{
closed = 1;
nodes = (
"374 -12 OFFCURVE",
"448 18 OFFCURVE",
"531 97 CURVE",
"517 54 LINE",
"441 192 LINE",
"462 176 LINE",
"405 122 OFFCURVE",
"354 100 OFFCURVE",
"299 100 CURVE SMOOTH",
"199 100 OFFCURVE",
"166 174 OFFCURVE",
"197 324 CURVE SMOOTH",
"229 474 OFFCURVE",
"296 550 OFFCURVE",
"396 550 CURVE SMOOTH",
"451 550 OFFCURVE",
"492 528 OFFCURVE",
"532 482 CURVE",
"498 479 LINE",
"609 606 LINE",
"622 545 LINE",
"571 624 OFFCURVE",
"509 662 OFFCURVE",
"408 662 CURVE SMOOTH",
"238 662 OFFCURVE",
"123 550 OFFCURVE",
"78 336 CURVE SMOOTH",
"30 112 OFFCURVE",
"103 -12 OFFCURVE",
"285 -12 CURVE SMOOTH"
);
}
);
};
layerId = "BED3BBA3-0505-4757-9FB8-9FB8566DFEA7";
name = slanted;
paths = (
{
closed = 1;
nodes = (
"370 -12 OFFCURVE",
"446 22 OFFCURVE",
"529 101 CURVE",
"519 54 LINE",
"441 192 LINE",
"463 172 LINE",
"405 122 OFFCURVE",
"355 100 OFFCURVE",
"300 100 CURVE SMOOTH",
"200 100 OFFCURVE",
"166 175 OFFCURVE",
"197 325 CURVE SMOOTH",
"229 475 OFFCURVE",
"295 550 OFFCURVE",
"395 550 CURVE SMOOTH",
"450 550 OFFCURVE",
"492 528 OFFCURVE",
"528 478 CURVE",
"496 479 LINE",
"605 606 LINE",
"624 549 LINE",
"575 628 OFFCURVE",
"513 662 OFFCURVE",
"418 662 CURVE SMOOTH",
"242 662 OFFCURVE",
"122 544 OFFCURVE",
"75 325 CURVE SMOOTH",
"29 106 OFFCURVE",
"99 -12 OFFCURVE",
"275 -12 CURVE SMOOTH"
);
}
);
width = 580;
},
{
anchors = (
{
name = bottom;
position = "{262, 0}";
},
{
name = top;
position = "{396, 650}";
}
);
associatedMasterId = "27302DAC-E04E-41A7-B2D2-BD8305143A0A";
background = {
anchors = (
{
name = bottom;
position = "{262, 0}";
},
{
name = top;
position = "{396, 650}";
}
);
paths = (
{
closed = 1;
nodes = (
"370 -12 OFFCURVE",
"446 22 OFFCURVE",
"529 101 CURVE",
"519 54 LINE",
"441 192 LINE",
"463 172 LINE",
"405 122 OFFCURVE",
"355 100 OFFCURVE",
"300 100 CURVE SMOOTH",
"200 100 OFFCURVE",
"166 175 OFFCURVE",
"197 325 CURVE SMOOTH",
"229 475 OFFCURVE",
"295 550 OFFCURVE",
"395 550 CURVE SMOOTH",
"450 550 OFFCURVE",
"492 528 OFFCURVE",
"528 478 CURVE",
"496 479 LINE",
"605 606 LINE",
"624 549 LINE",
"575 628 OFFCURVE",
"513 662 OFFCURVE",
"418 662 CURVE SMOOTH",
"242 662 OFFCURVE",
"122 544 OFFCURVE",
"75 325 CURVE SMOOTH",
"29 106 OFFCURVE",
"99 -12 OFFCURVE",
"275 -12 CURVE SMOOTH"
);
}
);
};
layerId = "04C4E4ED-855C-49D4-8570-A4FF5B531FE2";
name = cursify;
paths = (
{
closed = 1;
nodes = (
"374 -12 OFFCURVE",
"448 18 OFFCURVE",
"531 97 CURVE",
"517 54 LINE",
"441 192 LINE",
"462 176 LINE",
"405 122 OFFCURVE",
"354 100 OFFCURVE",
"299 100 CURVE SMOOTH",
"199 100 OFFCURVE",
"166 174 OFFCURVE",
"197 324 CURVE SMOOTH",
"229 474 OFFCURVE",
"296 550 OFFCURVE",
"396 550 CURVE SMOOTH",
"451 550 OFFCURVE",
"492 528 OFFCURVE",
"532 482 CURVE",
"498 479 LINE",
"609 606 LINE",
"622 545 LINE",
"571 624 OFFCURVE",
"509 662 OFFCURVE",
"408 662 CURVE SMOOTH",
"238 662 OFFCURVE",
"123 550 OFFCURVE",
"78 336 CURVE SMOOTH",
"30 112 OFFCURVE",
"103 -12 OFFCURVE",
"285 -12 CURVE SMOOTH"
);
}
);
width = 580;
},
{
anchors = (
{
name = bottom;
position = "{266, 0}";
},
{
name = top;
position = "{399, 650}";
}
);
associatedMasterId = "B9B856C8-1FA2-46F4-A929-F36A99765E59";
background = {
anchors = (
{
name = bottom;
position = "{266, 0}";
},
{
name = top;
position = "{399, 650}";
}
);
paths = (
{
closed = 1;
nodes = (
"369 -12 OFFCURVE",
"443 21 OFFCURVE",
"535 107 CURVE",
"517 20 LINE",
"450 146 LINE",
"494 156 LINE",
"418 86 OFFCURVE",
"363 59 OFFCURVE",
"295 59 CURVE SMOOTH",
"170 59 OFFCURVE",
"125 148 OFFCURVE",
"162 325 CURVE SMOOTH",
"200 502 OFFCURVE",
"283 591 OFFCURVE",
"408 591 CURVE SMOOTH",
"476 591 OFFCURVE",
"520 564 OFFCURVE",
"566 494 CURVE",
"494 492 LINE",
"612 629 LINE",
"627 543 LINE",
"572 629 OFFCURVE",
"513 662 OFFCURVE",
"423 662 CURVE SMOOTH",
"251 662 OFFCURVE",
"132 543 OFFCURVE",
"86 325 CURVE SMOOTH",
"40 107 OFFCURVE",
"107 -12 OFFCURVE",
"279 -12 CURVE SMOOTH"
);
}
);
};
layerId = "2B680734-1240-401E-87BB-C23A6C2157FC";
name = cursify;
paths = (
{
closed = 1;
nodes = (
"372 -12 OFFCURVE",
"444 19 OFFCURVE",
"536 105 CURVE",
"516 20 LINE",
"449 146 LINE",
"493 158 LINE",
"417 88 OFFCURVE",
"360 59 OFFCURVE",
"289 59 CURVE SMOOTH",
"167 59 OFFCURVE",
"124 145 OFFCURVE",
"161 319 CURVE SMOOTH",
"199 499 OFFCURVE",
"286 591 OFFCURVE",
"413 591 CURVE SMOOTH",
"479 591 OFFCURVE",
"522 566 OFFCURVE",
"568 496 CURVE",
"495 492 LINE",
"614 629 LINE",
"626 541 LINE",
"569 627 OFFCURVE",
"510 662 OFFCURVE",
"417 662 CURVE SMOOTH",
"248 662 OFFCURVE",
"133 546 OFFCURVE",
"87 331 CURVE SMOOTH",
"40 110 OFFCURVE",
"110 -12 OFFCURVE",
"285 -12 CURVE SMOOTH"
);
}
);
width = 580;
}
);
unicode = 0043;
},
{
color = 0;
glyphname = D;
layers = (
{
anchors = (
{
name = bottom;
position = "{238, 0}";
},
{
name = center;
position = "{148, 325}";
},
{
name = top;
position = "{347, 650}";
}
);
background = {
anchors = (
{
name = bottom;
position = "{238, 0}";
},
{
name = center;
position = "{148, 325}";
},
{
name = top;
position = "{347, 650}";
}
);
paths = (
{
closed = 1;
nodes = (
"210 0 LINE SMOOTH",
"395 0 OFFCURVE",
"513 109 OFFCURVE",
"552 315 CURVE SMOOTH",
"594 531 OFFCURVE",
"511 650 OFFCURVE",
"324 650 CURVE SMOOTH",
"260 650 LINE",
"236 540 LINE",
"301 540 LINE SMOOTH",
"419 540 OFFCURVE",
"461 472 OFFCURVE",
"432 325 CURVE SMOOTH",
"404 178 OFFCURVE",
"336 110 OFFCURVE",
"218 110 CURVE SMOOTH",
"145 110 LINE",
"121 0 LINE"
);
},
{
closed = 1;
nodes = (
"141 0 LINE",
"280 650 LINE",
"160 650 LINE",
"21 0 LINE"
);
}
);
};
layerId = "27302DAC-E04E-41A7-B2D2-BD8305143A0A";
paths = (
{
closed = 1;
nodes = (
"210 0 LINE SMOOTH",
"465 0 OFFCURVE",
"563 220 OFFCURVE",
"563 417 CURVE SMOOTH",
"563 568 OFFCURVE",
"479 650 OFFCURVE",
"324 650 CURVE SMOOTH",
"160 650 LINE",
"21 0 LINE"
);
},
{
closed = 1;
nodes = (
"256 540 LINE",
"301 540 LINE SMOOTH",
"396 540 OFFCURVE",
"441 497 OFFCURVE",
"441 405 CURVE SMOOTH",
"441 275 OFFCURVE",
"389 110 OFFCURVE",
"218 110 CURVE SMOOTH",
"165 110 LINE"
);
}
);
width = 580;
},
{
anchors = (
{
name = bottom;
position = "{240, 0}";
},
{
name = center;
position = "{158, 325}";
},
{
name = top;
position = "{348, 650}";
}
);
background = {
anchors = (
{
name = bottom;
position = "{240, 0}";
},
{
name = center;
position = "{158, 325}";
},
{
name = top;
position = "{348, 650}";
}
);
paths = (
{
closed = 1;
nodes = (
"205 0 LINE SMOOTH",
"392 0 OFFCURVE",
"501 104 OFFCURVE",
"543 319 CURVE SMOOTH",
"586 540 OFFCURVE",
"511 650 OFFCURVE",
"321 650 CURVE SMOOTH",
"224 650 LINE",
"209 580 LINE",
"307 580 LINE SMOOTH",
"454 580 OFFCURVE",
"503 503 OFFCURVE",
"469 328 CURVE SMOOTH",
"434 151 OFFCURVE",
"351 70 OFFCURVE",
"204 70 CURVE SMOOTH",
"101 70 LINE",
"86 0 LINE"
);
},
{
closed = 1;
nodes = (
"106 0 LINE",
"244 650 LINE",
"170 650 LINE",
"32 0 LINE"
);
}
);
};
layerId = "B9B856C8-1FA2-46F4-A929-F36A99765E59";
paths = (
{
closed = 1;
nodes = (
"205 0 LINE SMOOTH",
"465 0 OFFCURVE",
"555 228 OFFCURVE",
"555 429 CURVE SMOOTH",
"555 577 OFFCURVE",
"476 650 OFFCURVE",
"321 650 CURVE SMOOTH",
"170 650 LINE",
"32 0 LINE"
);
},
{
closed = 1;
nodes = (
"229 580 LINE",
"307 580 LINE SMOOTH",
"424 580 OFFCURVE",
"480 531 OFFCURVE",
"480 422 CURVE SMOOTH",
"480 262 OFFCURVE",
"414 70 OFFCURVE",
"204 70 CURVE SMOOTH",
"121 70 LINE"
);
}
);
width = 580;
},
{
anchors = (
{
name = bottom;
position = "{238, 0}";
},
{
name = center;
position = "{148, 325}";
},
{
name = top;
position = "{347, 650}";
}
);
associatedMasterId = "27302DAC-E04E-41A7-B2D2-BD8305143A0A";
background = {
anchors = (
{
name = bottom;
position = "{238, 0}";
},
{
name = center;
position = "{148, 325}";
},
{
name = top;
position = "{347, 650}";
}
);
paths = (
{
closed = 1;
nodes = (
"204 0 LINE SMOOTH",
"389 0 OFFCURVE",
"509 109 OFFCURVE",
"552 315 CURVE SMOOTH",
"598 531 OFFCURVE",
"517 650 OFFCURVE",
"330 650 CURVE SMOOTH",
"280 650 LINE",
"256 540 LINE",
"310 540 LINE SMOOTH",
"428 540 OFFCURVE",
"465 477 OFFCURVE",
"435 335 CURVE SMOOTH",
"402 183 OFFCURVE",
"327 110 OFFCURVE",
"209 110 CURVE SMOOTH",
"165 110 LINE",
"141 0 LINE"
);
},
{
closed = 1;
nodes = (
"141 0 LINE",
"280 650 LINE",
"160 650 LINE",
"21 0 LINE"
);
}
);
};
layerId = "8BAF5508-4BC7-4649-B117-28779EFFC0F6";
name = slanted;
paths = (
{
closed = 1;
nodes = (
"199 0 LINE SMOOTH",
"384 0 OFFCURVE",
"510 114 OFFCURVE",
"554 325 CURVE SMOOTH",
"599 536 OFFCURVE",
"522 650 OFFCURVE",
"335 650 CURVE SMOOTH",
"280 650 LINE",
"256 540 LINE",
"305 540 LINE SMOOTH",
"423 540 OFFCURVE",
"464 472 OFFCURVE",
"432 325 CURVE SMOOTH",
"401 178 OFFCURVE",
"332 110 OFFCURVE",
"214 110 CURVE SMOOTH",
"165 110 LINE",
"141 0 LINE"
);
},
{
closed = 1;
nodes = (
"141 0 LINE",
"280 650 LINE",
"160 650 LINE",
"21 0 LINE"
);
}
);
width = 580;
},
{
anchors = (
{
name = bottom;
position = "{238, 0}";
},
{
name = center;
position = "{148, 325}";
},
{
name = top;
position = "{347, 650}";
}
);
associatedMasterId = "27302DAC-E04E-41A7-B2D2-BD8305143A0A";
background = {
anchors = (
{
name = bottom;
position = "{238, 0}";
},
{
name = center;
position = "{148, 325}";
},
{
name = top;
position = "{347, 650}";
}
);
paths = (
{
closed = 1;
nodes = (
"199 0 LINE SMOOTH",
"384 0 OFFCURVE",
"510 114 OFFCURVE",
"554 325 CURVE SMOOTH",
"599 536 OFFCURVE",
"522 650 OFFCURVE",
"335 650 CURVE SMOOTH",
"280 650 LINE",
"256 540 LINE",
"305 540 LINE SMOOTH",
"423 540 OFFCURVE",
"464 472 OFFCURVE",
"432 325 CURVE SMOOTH",
"401 178 OFFCURVE",
"332 110 OFFCURVE",
"214 110 CURVE SMOOTH",
"165 110 LINE",
"141 0 LINE"
);
},
{
closed = 1;
nodes = (
"141 0 LINE",
"280 650 LINE",
"160 650 LINE",
"21 0 LINE"
);
}
);
};
layerId = "C241A0B1-84E0-4CFF-8501-2C0D716F1D8F";
name = cursify;
paths = (
{
closed = 1;
nodes = (
"204 0 LINE SMOOTH",
"389 0 OFFCURVE",
"509 109 OFFCURVE",
"552 315 CURVE SMOOTH",
"598 531 OFFCURVE",
"517 650 OFFCURVE",
"330 650 CURVE SMOOTH",
"280 650 LINE",
"256 540 LINE",
"310 540 LINE SMOOTH",
"428 540 OFFCURVE",
"465 477 OFFCURVE",
"435 335 CURVE SMOOTH",
"402 183 OFFCURVE",
"327 110 OFFCURVE",
"209 110 CURVE SMOOTH",
"165 110 LINE",
"141 0 LINE"
);
},
{
closed = 1;
nodes = (
"141 0 LINE",
"280 650 LINE",
"160 650 LINE",
"21 0 LINE"
);
}
);
width = 580;
},
{
anchors = (
{
name = bottom;
position = "{240, 0}";
},
{
name = center;
position = "{158, 325}";
},
{
name = top;
position = "{348, 650}";
}
);
associatedMasterId = "B9B856C8-1FA2-46F4-A929-F36A99765E59";
background = {
anchors = (
{
name = bottom;
position = "{240, 0}";
},
{
name = center;
position = "{158, 325}";
},
{
name = top;
position = "{348, 650}";
}
);
paths = (
{
closed = 1;
nodes = (
"199 0 LINE SMOOTH",
"386 0 OFFCURVE",
"497 104 OFFCURVE",
"543 319 CURVE SMOOTH",
"590 540 OFFCURVE",
"517 650 OFFCURVE",
"327 650 CURVE SMOOTH",
"244 650 LINE",
"229 580 LINE",
"312 580 LINE SMOOTH",
"459 580 OFFCURVE",
"506 504 OFFCURVE",
"469 331 CURVE SMOOTH",
"431 152 OFFCURVE",
"345 70 OFFCURVE",
"198 70 CURVE SMOOTH",
"121 70 LINE",
"106 0 LINE"
);
},
{
closed = 1;
nodes = (
"106 0 LINE",
"244 650 LINE",
"170 650 LINE",
"32 0 LINE"
);
}
);
};
layerId = "D4AFC545-05D6-4AB8-A63D-9F579CE21808";
name = slanted;
paths = (
{
closed = 1;
nodes = (
"196 0 LINE SMOOTH",
"383 0 OFFCURVE",
"498 107 OFFCURVE",
"544 325 CURVE SMOOTH",
"590 543 OFFCURVE",
"520 650 OFFCURVE",
"330 650 CURVE SMOOTH",
"244 650 LINE",
"229 580 LINE",
"309 580 LINE SMOOTH",
"456 580 OFFCURVE",
"506 501 OFFCURVE",
"468 325 CURVE SMOOTH",
"431 149 OFFCURVE",
"348 70 OFFCURVE",
"201 70 CURVE SMOOTH",
"121 70 LINE",
"106 0 LINE"
);
},
{
closed = 1;
nodes = (
"106 0 LINE",
"244 650 LINE",
"170 650 LINE",
"32 0 LINE"
);
}
);
width = 580;
},
{
anchors = (
{
name = bottom;
position = "{240, 0}";
},
{
name = center;
position = "{158, 325}";
},
{
name = top;
position = "{348, 650}";
}
);
associatedMasterId = "B9B856C8-1FA2-46F4-A929-F36A99765E59";
background = {
anchors = (
{
name = bottom;
position = "{240, 0}";
},
{
name = center;
position = "{158, 325}";
},
{
name = top;
position = "{348, 650}";
}
);
paths = (
{
closed = 1;
nodes = (
"196 0 LINE SMOOTH",
"383 0 OFFCURVE",
"498 107 OFFCURVE",
"544 325 CURVE SMOOTH",
"590 543 OFFCURVE",
"520 650 OFFCURVE",
"330 650 CURVE SMOOTH",
"244 650 LINE",
"229 580 LINE",
"309 580 LINE SMOOTH",
"456 580 OFFCURVE",
"506 501 OFFCURVE",
"468 325 CURVE SMOOTH",
"431 149 OFFCURVE",
"348 70 OFFCURVE",
"201 70 CURVE SMOOTH",
"121 70 LINE",
"106 0 LINE"
);
},
{
closed = 1;
nodes = (
"106 0 LINE",
"244 650 LINE",
"170 650 LINE",
"32 0 LINE"
);
}
);
};
layerId = "CD6E2214-93B6-44AC-ADF5-95111E3954E7";
name = cursify;
paths = (
{
closed = 1;
nodes = (
"199 0 LINE SMOOTH",
"386 0 OFFCURVE",
"497 104 OFFCURVE",
"543 319 CURVE SMOOTH",
"590 540 OFFCURVE",
"517 650 OFFCURVE",
"327 650 CURVE SMOOTH",
"244 650 LINE",
"229 580 LINE",
"312 580 LINE SMOOTH",
"459 580 OFFCURVE",
"506 504 OFFCURVE",
"469 331 CURVE SMOOTH",
"431 152 OFFCURVE",
"345 70 OFFCURVE",
"198 70 CURVE SMOOTH",
"121 70 LINE",
"106 0 LINE"
);
},
{
closed = 1;
nodes = (
"106 0 LINE",
"244 650 LINE",
"170 650 LINE",
"32 0 LINE"
);
}
);
width = 580;
}
);
unicode = 0044;
},
{
color = 1;
glyphname = Eth;
layers = (
{
anchors = (
{
name = _center;
position = "{192, 325}";
}
);
background = {
anchors = (
{
name = _center;
position = "{192, 325}";
}
);
components = (
{
name = D;
transform = "{1, 0, 0, 1, 25, 0}";
}
);
paths = (
{
closed = 1;
nodes = (
"339 294 LINE",
"352 356 LINE",
"40 356 LINE",
"27 294 LINE"
);
}
);
};
components = (
{
name = D;
transform = "{1, 0, 0, 1, 25, 0}";
}
);
layerId = "B9B856C8-1FA2-46F4-A929-F36A99765E59";
paths = (
{
closed = 1;
nodes = (
"339 294 LINE",
"352 356 LINE",
"40 356 LINE",
"27 294 LINE"
);
}
);
width = 580;
},
{
anchors = (
{
name = _center;
position = "{178, 325}";
}
);
background = {
anchors = (
{
name = _center;
position = "{178, 325}";
}
);
components = (
{
name = D;
transform = "{1, 0, 0, 1, 20, 0}";
}
);
paths = (
{
closed = 1;
nodes = (
"334 277 LINE",
"355 373 LINE",
"39 373 LINE",
"18 277 LINE"
);
}
);
};
components = (
{
name = D;
transform = "{1, 0, 0, 1, 20, 0}";
}
);
layerId = "27302DAC-E04E-41A7-B2D2-BD8305143A0A";
paths = (
{
closed = 1;
nodes = (
"334 277 LINE",
"355 373 LINE",
"39 373 LINE",
"18 277 LINE"
);
}
);
width = 580;
}
);
unicode = 00D0;
},
{
color = 0;
glyphname = E;
layers = (
{
anchors = (
{
name = bottom;
position = "{238, 0}";
},
{
name = ogonek;
position = "{468, 0}";
},
{
name = top;
position = "{393, 650}";
},
{
name = topleft;
position = "{97, 650}";
}
);
background = {
anchors = (
{
name = bottom;
position = "{238, 0}";
},
{
name = ogonek;
position = "{468, 0}";
},
{
name = top;
position = "{393, 650}";
},
{
name = topleft;
position = "{97, 650}";
}
);
paths = (
{
closed = 1;
nodes = (
"161 0 LINE",
"300 650 LINE",
"180 650 LINE",
"41 0 LINE"
);
},
{
closed = 1;
nodes = (
"468 0 LINE",
"492 110 LINE",
"175 110 LINE",
"151 0 LINE"
);
},
{
closed = 1;
nodes = (
"479 276 LINE",
"502 386 LINE",
"233 386 LINE",
"210 276 LINE"
);
},
{
closed = 1;
nodes = (
"583 540 LINE",
"607 650 LINE",
"290 650 LINE",
"266 540 LINE"
);
}
);
};
layerId = "27302DAC-E04E-41A7-B2D2-BD8305143A0A";
paths = (
{
closed = 1;
nodes = (
"468 0 LINE",
"492 110 LINE",
"185 110 LINE",
"220 276 LINE",
"479 276 LINE",
"502 386 LINE",
"244 386 LINE",
"276 540 LINE",
"583 540 LINE",
"607 650 LINE",
"180 650 LINE",
"41 0 LINE"
);
}
);
width = 580;
},
{
anchors = (
{
name = bottom;
position = "{241, 0}";
},
{
name = ogonek;
position = "{460, 0}";
},
{
name = top;
position = "{397, 650}";
},
{
name = topleft;
position = "{99, 650}";
}
);
background = {
anchors = (
{
name = bottom;
position = "{241, 0}";
},
{
name = ogonek;
position = "{460, 0}";
},
{
name = top;
position = "{397, 650}";
},
{
name = topleft;
position = "{99, 650}";
}
);
paths = (
{
closed = 1;
nodes = (
"132 0 LINE",
"270 650 LINE",
"196 650 LINE",
"58 0 LINE"
);
},
{
closed = 1;
nodes = (
"460 0 LINE",
"475 70 LINE",
"137 70 LINE",
"122 0 LINE"
);
},
{
closed = 1;
nodes = (
"475 296 LINE",
"490 366 LINE",
"200 366 LINE",
"185 296 LINE"
);
},
{
closed = 1;
nodes = (
"583 580 LINE",
"598 650 LINE",
"260 650 LINE",
"245 580 LINE"
);
}
);
};
layerId = "B9B856C8-1FA2-46F4-A929-F36A99765E59";
paths = (
{
closed = 1;
nodes = (
"460 0 LINE",
"475 70 LINE",
"147 70 LINE",
"195 296 LINE",
"475 296 LINE",
"490 366 LINE",
"210 366 LINE",
"255 580 LINE",
"583 580 LINE",
"598 650 LINE",
"196 650 LINE",
"58 0 LINE"
);
}
);
width = 580;
}
);
unicode = 0045;
},
{
color = 0;
glyphname = F;
layers = (
{
anchors = (
{
name = bottom;
position = "{238, 0}";
},
{
name = top;
position = "{377, 650}";
}
);
background = {
anchors = (
{
name = bottom;
position = "{238, 0}";
},
{
name = top;
position = "{377, 650}";
}
);
paths = (
{
closed = 1;
nodes = (
"167 0 LINE",
"306 650 LINE",
"186 650 LINE",
"47 0 LINE"
);
},
{
closed = 1;
nodes = (
"483 268 LINE",
"507 378 LINE",
"238 378 LINE",
"214 268 LINE"
);
},
{
closed = 1;
nodes = (
"589 540 LINE",
"613 650 LINE",
"296 650 LINE",
"272 540 LINE"
);
}
);
};
layerId = "27302DAC-E04E-41A7-B2D2-BD8305143A0A";
paths = (
{
closed = 1;
nodes = (
"167 0 LINE",
"224 268 LINE",
"483 268 LINE",
"507 378 LINE",
"248 378 LINE",
"282 540 LINE",
"589 540 LINE",
"613 650 LINE",
"186 650 LINE",
"47 0 LINE"
);
}
);
width = 580;
},
{
anchors = (
{
name = bottom;
position = "{242, 0}";
},
{
name = top;
position = "{380, 650}";
}
);
background = {
anchors = (
{
name = bottom;
position = "{242, 0}";
},
{
name = top;
position = "{380, 650}";
}
);
paths = (
{
closed = 1;
nodes = (
"136 0 LINE",
"274 650 LINE",
"200 650 LINE",
"62 0 LINE"
);
},
{
closed = 1;
nodes = (
"478 292 LINE",
"493 362 LINE",
"203 362 LINE",
"188 292 LINE"
);
},
{
closed = 1;
nodes = (
"587 580 LINE",
"602 650 LINE",
"264 650 LINE",
"249 580 LINE"
);
}
);
};
layerId = "B9B856C8-1FA2-46F4-A929-F36A99765E59";
paths = (
{
closed = 1;
nodes = (
"136 0 LINE",
"198 292 LINE",
"478 292 LINE",
"493 362 LINE",
"213 362 LINE",
"259 580 LINE",
"587 580 LINE",
"602 650 LINE",
"200 650 LINE",
"62 0 LINE"
);
}
);
width = 580;
}
);
unicode = 0046;
},
{
color = 0;
glyphname = G;
layers = (
{
anchors = (
{
name = bottom;
position = "{249, 0}";
},
{
name = top;
position = "{378, 650}";
}
);
background = {
anchors = (
{
name = bottom;
position = "{249, 0}";
},
{
name = top;
position = "{378, 650}";
}
);
paths = (
{
closed = 1;
nodes = (
"20 128 OFFCURVE",
"88 -4 OFFCURVE",
"242 -9 CURVE SMOOTH",
"320 -12 OFFCURVE",
"382 23 OFFCURVE",
"453 103 CURVE",
"475 38 LINE",
"419 167 LINE",
"447 185 LINE",
"389 127 OFFCURVE",
"338 99 OFFCURVE",
"277 101 CURVE SMOOTH",
"184 105 OFFCURVE",
"154 177 OFFCURVE",
"185 325 CURVE SMOOTH",
"217 473 OFFCURVE",
"289 551 OFFCURVE",
"393 547 CURVE SMOOTH",
"444 546 OFFCURVE",
"485 526 OFFCURVE",
"521 475 CURVE",
"487 479 LINE",
"598 606 LINE",
"612 536 LINE",
"563 618 OFFCURVE",
"500 656 OFFCURVE",
"403 659 CURVE SMOOTH",
"229 665 OFFCURVE",
"111 553 OFFCURVE",
"65 336 CURVE SMOOTH"
);
},
{
closed = 1;
nodes = (
"473 0 LINE",
"554 379 LINE",
"434 379 LINE",
"378 118 LINE",
"390 118 LINE",
"394 0 LINE"
);
},
{
closed = 1;
nodes = (
"421 269 LINE",
"444 379 LINE",
"327 379 LINE",
"304 269 LINE"
);
}
);
};
layerId = "27302DAC-E04E-41A7-B2D2-BD8305143A0A";
paths = (
{
closed = 1;
nodes = (
"303 -12 OFFCURVE",
"350 6 OFFCURVE",
"393 44 CURVE",
"394 0 LINE",
"473 0 LINE",
"554 379 LINE",
"327 379 LINE",
"304 269 LINE",
"410 269 LINE",
"380 130 LINE",
"349 110 OFFCURVE",
"317 100 OFFCURVE",
"283 100 CURVE SMOOTH",
"209 100 OFFCURVE",
"173 143 OFFCURVE",
"173 228 CURVE SMOOTH",
"173 349 OFFCURVE",
"228 550 OFFCURVE",
"387 550 CURVE SMOOTH",
"435 550 OFFCURVE",
"473 534 OFFCURVE",
"505 500 CURVE",
"580 586 LINE",
"534 638 OFFCURVE",
"475 662 OFFCURVE",
"392 662 CURVE SMOOTH",
"146 662 OFFCURVE",
"51 410 OFFCURVE",
"51 218 CURVE SMOOTH",
"51 72 OFFCURVE",
"123 -12 OFFCURVE",
"251 -12 CURVE SMOOTH"
);
}
);
width = 580;
},
{
anchors = (
{
name = bottom;
position = "{250, 0}";
},
{
name = top;
position = "{378, 650}";
}
);
background = {
anchors = (
{
name = bottom;
position = "{250, 0}";
},
{
name = top;
position = "{378, 650}";
}
);
paths = (
{
closed = 1;
nodes = (
"31 126 OFFCURVE",
"98 -4 OFFCURVE",
"258 -10 CURVE SMOOTH",
"332 -12 OFFCURVE",
"389 14 OFFCURVE",
"461 83 CURVE",
"474 16 LINE",
"414 155 LINE",
"464 154 LINE",
"399 87 OFFCURVE",
"344 58 OFFCURVE",
"273 61 CURVE SMOOTH",
"154 65 OFFCURVE",
"113 153 OFFCURVE",
"150 328 CURVE SMOOTH",
"188 504 OFFCURVE",
"275 593 OFFCURVE",
"402 588 CURVE SMOOTH",
"468 586 OFFCURVE",
"511 559 OFFCURVE",
"557 488 CURVE",
"484 492 LINE",
"603 629 LINE",
"615 531 LINE",
"558 619 OFFCURVE",
"499 656 OFFCURVE",
"406 659 CURVE SMOOTH",
"237 665 OFFCURVE",
"122 553 OFFCURVE",
"76 337 CURVE SMOOTH"
);
},
{
closed = 1;
nodes = (
"464 0 LINE",
"540 358 LINE",
"466 358 LINE",
"407 79 LINE",
"421 79 LINE",
"417 0 LINE"
);
},
{
closed = 1;
nodes = (
"461 288 LINE",
"476 358 LINE",
"333 358 LINE",
"318 288 LINE"
);
}
);
};
layerId = "B9B856C8-1FA2-46F4-A929-F36A99765E59";
paths = (
{
closed = 1;
nodes = (
"323 -12 OFFCURVE",
"369 5 OFFCURVE",
"419 45 CURVE",
"417 0 LINE",
"464 0 LINE",
"540 358 LINE",
"333 358 LINE",
"318 288 LINE",
"451 288 LINE",
"413 107 LINE",
"371 74 OFFCURVE",
"330 59 OFFCURVE",
"283 59 CURVE SMOOTH",
"184 59 OFFCURVE",
"137 110 OFFCURVE",
"137 218 CURVE SMOOTH",
"137 365 OFFCURVE",
"203 591 OFFCURVE",
"394 591 CURVE SMOOTH",
"448 591 OFFCURVE",
"487 576 OFFCURVE",
"523 538 CURVE",
"571 593 LINE",
"525 641 OFFCURVE",
"471 662 OFFCURVE",
"395 662 CURVE SMOOTH",
"153 662 OFFCURVE",
"62 407 OFFCURVE",
"62 217 CURVE SMOOTH",
"62 70 OFFCURVE",
"135 -12 OFFCURVE",
"266 -12 CURVE SMOOTH"
);
}
);
width = 580;
},
{
anchors = (
{
name = bottom;
position = "{249, 0}";
},
{
name = top;
position = "{378, 650}";
}
);
associatedMasterId = "27302DAC-E04E-41A7-B2D2-BD8305143A0A";
background = {
anchors = (
{
name = bottom;
position = "{249, 0}";
},
{
name = top;
position = "{378, 650}";
}
);
paths = (
{
closed = 1;
nodes = (
"21 121 OFFCURVE",
"90 -12 OFFCURVE",
"247 -12 CURVE SMOOTH",
"322 -12 OFFCURVE",
"388 20 OFFCURVE",
"458 105 CURVE",
"475 44 LINE",
"419 171 LINE",
"447 190 LINE",
"389 130 OFFCURVE",
"338 100 OFFCURVE",
"277 100 CURVE SMOOTH",
"184 100 OFFCURVE",
"154 171 OFFCURVE",
"185 320 CURVE SMOOTH",
"217 470 OFFCURVE",
"289 550 OFFCURVE",
"393 550 CURVE SMOOTH",
"444 550 OFFCURVE",
"485 532 OFFCURVE",
"521 482 CURVE",
"487 479 LINE",
"598 606 LINE",
"611 545 LINE",
"560 624 OFFCURVE",
"498 662 OFFCURVE",
"398 662 CURVE SMOOTH",
"227 662 OFFCURVE",
"112 549 OFFCURVE",
"66 330 CURVE SMOOTH"
);
},
{
closed = 1;
nodes = (
"473 0 LINE",
"554 379 LINE",
"434 379 LINE",
"378 118 LINE",
"390 118 LINE",
"394 0 LINE"
);
},
{
closed = 1;
nodes = (
"411 269 LINE",
"434 379 LINE",
"327 379 LINE",
"304 269 LINE"
);
}
);
};
layerId = "D91B971C-6B3A-4525-834C-71288D97F2EA";
name = slanted;
paths = (
{
closed = 1;
nodes = (
"186 325 LINE",
"218 475 OFFCURVE",
"284 550 OFFCURVE",
"384 550 CURVE SMOOTH",
"439 550 OFFCURVE",
"481 528 OFFCURVE",
"517 478 CURVE",
"485 479 LINE",
"594 606 LINE",
"613 549 LINE",
"564 628 OFFCURVE",
"502 662 OFFCURVE",
"407 662 CURVE SMOOTH",
"231 662 OFFCURVE",
"111 544 OFFCURVE",
"64 325 CURVE"
);
},
{
closed = 1;
nodes = (
"318 -12 OFFCURVE",
"387 24 OFFCURVE",
"457 109 CURVE",
"475 44 LINE",
"420 171 LINE",
"448 186 LINE",
"391 126 OFFCURVE",
"343 100 OFFCURVE",
"286 100 CURVE SMOOTH",
"189 100 OFFCURVE",
"155 176 OFFCURVE",
"186 325 CURVE",
"64 325 LINE",
"20 116 OFFCURVE",
"86 -12 OFFCURVE",
"238 -12 CURVE SMOOTH"
);
},
{
closed = 1;
nodes = (
"473 0 LINE",
"554 379 LINE",
"434 379 LINE",
"378 118 LINE",
"388 118 LINE",
"393 0 LINE"
);
},
{
closed = 1;
nodes = (
"411 269 LINE",
"434 379 LINE",
"327 379 LINE",
"304 269 LINE"
);
}
);
width = 580;
},
{
anchors = (
{
name = bottom;
position = "{249, 0}";
},
{
name = top;
position = "{378, 650}";
}
);
associatedMasterId = "27302DAC-E04E-41A7-B2D2-BD8305143A0A";
background = {
anchors = (
{
name = bottom;
position = "{249, 0}";
},
{
name = top;
position = "{378, 650}";
}
);
paths = (
{
closed = 1;
nodes = (
"186 325 LINE",
"218 475 OFFCURVE",
"284 550 OFFCURVE",
"384 550 CURVE SMOOTH",
"439 550 OFFCURVE",
"481 528 OFFCURVE",
"517 478 CURVE",
"485 479 LINE",
"594 606 LINE",
"613 549 LINE",
"564 628 OFFCURVE",
"502 662 OFFCURVE",
"407 662 CURVE SMOOTH",
"231 662 OFFCURVE",
"111 544 OFFCURVE",
"64 325 CURVE"
);
},
{
closed = 1;
nodes = (
"318 -12 OFFCURVE",
"387 24 OFFCURVE",
"457 109 CURVE",
"475 44 LINE",
"420 171 LINE",
"448 186 LINE",
"391 126 OFFCURVE",
"343 100 OFFCURVE",
"286 100 CURVE SMOOTH",
"189 100 OFFCURVE",
"155 176 OFFCURVE",
"186 325 CURVE",
"64 325 LINE",
"20 116 OFFCURVE",
"86 -12 OFFCURVE",
"238 -12 CURVE SMOOTH"
);
},
{
closed = 1;
nodes = (
"473 0 LINE",
"554 379 LINE",
"434 379 LINE",
"378 118 LINE",
"388 118 LINE",
"393 0 LINE"
);
},
{
closed = 1;
nodes = (
"411 269 LINE",
"434 379 LINE",
"327 379 LINE",
"304 269 LINE"
);
}
);
};
layerId = "77983B85-FC91-47D3-9673-F7D2714E58EE";
name = cursify;
paths = (
{
closed = 1;
nodes = (
"21 121 OFFCURVE",
"90 -12 OFFCURVE",
"247 -12 CURVE SMOOTH",
"322 -12 OFFCURVE",
"388 20 OFFCURVE",
"458 105 CURVE",
"475 44 LINE",
"419 171 LINE",
"447 190 LINE",
"389 130 OFFCURVE",
"338 100 OFFCURVE",
"277 100 CURVE SMOOTH",
"184 100 OFFCURVE",
"154 171 OFFCURVE",
"185 320 CURVE SMOOTH",
"217 470 OFFCURVE",
"289 550 OFFCURVE",
"393 550 CURVE SMOOTH",
"444 550 OFFCURVE",
"485 532 OFFCURVE",
"521 482 CURVE",
"487 479 LINE",
"598 606 LINE",
"611 545 LINE",
"560 624 OFFCURVE",
"498 662 OFFCURVE",
"398 662 CURVE SMOOTH",
"227 662 OFFCURVE",
"112 549 OFFCURVE",
"66 330 CURVE SMOOTH"
);
},
{
closed = 1;
nodes = (
"473 0 LINE",
"554 379 LINE",
"434 379 LINE",
"378 118 LINE",
"390 118 LINE",
"394 0 LINE"
);
},
{
closed = 1;
nodes = (
"411 269 LINE",
"434 379 LINE",
"327 379 LINE",
"304 269 LINE"
);
}
);
width = 580;
},
{
anchors = (
{
name = bottom;
position = "{250, 0}";
},
{
name = top;
position = "{378, 650}";
}
);
associatedMasterId = "B9B856C8-1FA2-46F4-A929-F36A99765E59";
background = {
anchors = (
{
name = bottom;
position = "{250, 0}";
},
{
name = top;
position = "{378, 650}";
}
);
paths = (
{
closed = 1;
nodes = (
"31 116 OFFCURVE",
"98 -12 OFFCURVE",
"258 -12 CURVE SMOOTH",
"332 -12 OFFCURVE",
"392 16 OFFCURVE",
"464 88 CURVE",
"474 21 LINE",
"414 158 LINE",
"464 159 LINE",
"399 90 OFFCURVE",
"344 59 OFFCURVE",
"273 59 CURVE SMOOTH",
"154 59 OFFCURVE",
"113 146 OFFCURVE",
"150 322 CURVE SMOOTH",
"188 499 OFFCURVE",
"275 591 OFFCURVE",
"402 591 CURVE SMOOTH",
"468 591 OFFCURVE",
"511 566 OFFCURVE",
"557 496 CURVE",
"484 492 LINE",
"603 629 LINE",
"615 541 LINE",
"558 627 OFFCURVE",
"499 662 OFFCURVE",
"406 662 CURVE SMOOTH",
"237 662 OFFCURVE",
"122 546 OFFCURVE",
"76 328 CURVE SMOOTH"
);
},
{
closed = 1;
nodes = (
"464 0 LINE",
"540 358 LINE",
"466 358 LINE",
"407 79 LINE",
"421 79 LINE",
"417 0 LINE"
);
},
{
closed = 1;
nodes = (
"451 288 LINE",
"466 358 LINE",
"333 358 LINE",
"318 288 LINE"
);
}
);
};
layerId = "F524EDC7-F0FE-4EDE-A8B9-0E12FE7B7436";
name = slanted;
paths = (
{
closed = 1;
nodes = (
"151 325 LINE",
"189 502 OFFCURVE",
"272 591 OFFCURVE",
"397 591 CURVE SMOOTH",
"465 591 OFFCURVE",
"509 564 OFFCURVE",
"555 494 CURVE",
"483 492 LINE",
"601 629 LINE",
"616 543 LINE",
"561 629 OFFCURVE",
"502 662 OFFCURVE",
"412 662 CURVE SMOOTH",
"240 662 OFFCURVE",
"121 543 OFFCURVE",
"75 325 CURVE"
);
},
{
closed = 1;
nodes = (
"329 -12 OFFCURVE",
"391 18 OFFCURVE",
"463 90 CURVE",
"475 21 LINE",
"415 158 LINE",
"465 157 LINE",
"400 88 OFFCURVE",
"347 59 OFFCURVE",
"279 59 CURVE SMOOTH",
"157 59 OFFCURVE",
"114 149 OFFCURVE",
"151 325 CURVE",
"75 325 LINE",
"30 113 OFFCURVE",
"95 -12 OFFCURVE",
"252 -12 CURVE SMOOTH"
);
},
{
closed = 1;
nodes = (
"464 0 LINE",
"540 358 LINE",
"466 358 LINE",
"407 79 LINE",
"421 79 LINE",
"417 0 LINE"
);
},
{
closed = 1;
nodes = (
"451 288 LINE",
"466 358 LINE",
"333 358 LINE",
"318 288 LINE"
);
}
);
width = 580;
},
{
anchors = (
{
name = bottom;
position = "{250, 0}";
},
{
name = top;
position = "{378, 650}";
}
);
associatedMasterId = "B9B856C8-1FA2-46F4-A929-F36A99765E59";
background = {
anchors = (
{
name = bottom;
position = "{250, 0}";
},
{
name = top;
position = "{378, 650}";
}
);
paths = (
{
closed = 1;
nodes = (
"151 325 LINE",
"189 502 OFFCURVE",
"272 591 OFFCURVE",
"397 591 CURVE SMOOTH",
"465 591 OFFCURVE",
"509 564 OFFCURVE",
"555 494 CURVE",
"483 492 LINE",
"601 629 LINE",
"616 543 LINE",
"561 629 OFFCURVE",
"502 662 OFFCURVE",
"412 662 CURVE SMOOTH",
"240 662 OFFCURVE",
"121 543 OFFCURVE",
"75 325 CURVE"
);
},
{
closed = 1;
nodes = (
"329 -12 OFFCURVE",
"391 18 OFFCURVE",
"463 90 CURVE",
"475 21 LINE",
"415 158 LINE",
"465 157 LINE",
"400 88 OFFCURVE",
"347 59 OFFCURVE",
"279 59 CURVE SMOOTH",
"157 59 OFFCURVE",
"114 149 OFFCURVE",
"151 325 CURVE",
"75 325 LINE",
"30 113 OFFCURVE",
"95 -12 OFFCURVE",
"252 -12 CURVE SMOOTH"
);
},
{
closed = 1;
nodes = (
"464 0 LINE",
"540 358 LINE",
"466 358 LINE",
"407 79 LINE",
"421 79 LINE",
"417 0 LINE"
);
},
{
closed = 1;
nodes = (
"451 288 LINE",
"466 358 LINE",
"333 358 LINE",
"318 288 LINE"
);
}
);
};
layerId = "6A67E078-D973-4F12-889E-D687BA263D59";
name = cursify;
paths = (
{
closed = 1;
nodes = (
"31 116 OFFCURVE",
"98 -12 OFFCURVE",
"258 -12 CURVE SMOOTH",
"332 -12 OFFCURVE",
"392 16 OFFCURVE",
"464 88 CURVE",
"474 21 LINE",
"414 158 LINE",
"464 159 LINE",
"399 90 OFFCURVE",
"344 59 OFFCURVE",
"273 59 CURVE SMOOTH",
"154 59 OFFCURVE",
"113 146 OFFCURVE",
"150 322 CURVE SMOOTH",
"188 499 OFFCURVE",
"275 591 OFFCURVE",
"402 591 CURVE SMOOTH",
"468 591 OFFCURVE",
"511 566 OFFCURVE",
"557 496 CURVE",
"484 492 LINE",
"603 629 LINE",
"615 541 LINE",
"558 627 OFFCURVE",
"499 662 OFFCURVE",
"406 662 CURVE SMOOTH",
"237 662 OFFCURVE",
"122 546 OFFCURVE",
"76 328 CURVE SMOOTH"
);
},
{
closed = 1;
nodes = (
"464 0 LINE",
"540 358 LINE",
"466 358 LINE",
"407 79 LINE",
"421 79 LINE",
"417 0 LINE"
);
},
{
closed = 1;
nodes = (
"451 288 LINE",
"466 358 LINE",
"333 358 LINE",
"318 288 LINE"
);
}
);
width = 580;
}
);
unicode = 0047;
},
{
color = 0;
glyphname = H;
layers = (
{
anchors = (
{
name = bottom;
position = "{239, 0}";
},
{
name = center;
position = "{350, 518}";
},
{
name = top;
position = "{378, 650}";
},
{
name = topleft;
position = "{98, 650}";
}
);
background = {
anchors = (
{
name = bottom;
position = "{239, 0}";
},
{
name = center;
position = "{350, 518}";
},
{
name = top;
position = "{378, 650}";
},
{
name = topleft;
position = "{98, 650}";
}
);
paths = (
{
closed = 1;
nodes = (
"464 0 LINE",
"603 650 LINE",
"483 650 LINE",
"344 0 LINE"
);
},
{
closed = 1;
nodes = (
"134 0 LINE",
"273 650 LINE",
"153 650 LINE",
"14 0 LINE"
);
},
{
closed = 1;
nodes = (
"413 276 LINE",
"436 386 LINE",
"206 386 LINE",
"183 276 LINE"
);
}
);
};
layerId = "27302DAC-E04E-41A7-B2D2-BD8305143A0A";
paths = (
{
closed = 1;
nodes = (
"134 0 LINE",
"193 276 LINE",
"403 276 LINE",
"344 0 LINE",
"464 0 LINE",
"603 650 LINE",
"483 650 LINE",
"427 386 LINE",
"217 386 LINE",
"273 650 LINE",
"153 650 LINE",
"14 0 LINE"
);
}
);
width = 580;
},
{
anchors = (
{
name = bottom;
position = "{240, 0}";
},
{
name = center;
position = "{348, 508}";
},
{
name = top;
position = "{378, 650}";
},
{
name = topleft;
position = "{98, 650}";
}
);
background = {
anchors = (
{
name = bottom;
position = "{240, 0}";
},
{
name = center;
position = "{348, 508}";
},
{
name = top;
position = "{378, 650}";
},
{
name = topleft;
position = "{98, 650}";
}
);
paths = (
{
closed = 1;
nodes = (
"455 0 LINE",
"593 650 LINE",
"519 650 LINE",
"381 0 LINE"
);
},
{
closed = 1;
nodes = (
"99 0 LINE",
"237 650 LINE",
"163 650 LINE",
"25 0 LINE"
);
},
{
closed = 1;
nodes = (
"454 296 LINE",
"469 366 LINE",
"167 366 LINE",
"152 296 LINE"
);
}
);
};
layerId = "B9B856C8-1FA2-46F4-A929-F36A99765E59";
paths = (
{
closed = 1;
nodes = (
"99 0 LINE",
"162 296 LINE",
"444 296 LINE",
"381 0 LINE",
"455 0 LINE",
"593 650 LINE",
"519 650 LINE",
"459 366 LINE",
"177 366 LINE",
"237 650 LINE",
"163 650 LINE",
"25 0 LINE"
);
}
);
width = 580;
}
);
unicode = 0048;
},
{
color = 0;
glyphname = Hbar;
layers = (
{
anchors = (
{
name = bottom;
position = "{240, 0}";
},
{
name = center;
position = "{348, 508}";
},
{
name = top;
position = "{378, 650}";
},
{
name = topleft;
position = "{98, 650}";
}
);
background = {
anchors = (
{
name = bottom;
position = "{240, 0}";
},
{
name = center;
position = "{348, 508}";
},
{
name = top;
position = "{378, 650}";
},
{
name = topleft;
position = "{98, 650}";
}
);
paths = (
{
closed = 1;
nodes = (
"455 0 LINE",
"593 650 LINE",
"519 650 LINE",
"381 0 LINE"
);
},
{
closed = 1;
nodes = (
"99 0 LINE",
"237 650 LINE",
"163 650 LINE",
"25 0 LINE"
);
},
{
closed = 1;
nodes = (
"448 266 LINE",
"462 336 LINE",
"160 336 LINE",
"146 266 LINE"
);
},
{
closed = 1;
nodes = (
"598 461 LINE",
"612 525 LINE",
"92 525 LINE",
"78 461 LINE"
);
}
);
};
hints = (
{
horizontal = 1;
origin = "{0, 19}";
target = up;
type = BottomGhost;
},
{
horizontal = 1;
origin = "{0, 1}";
target = "{1, 3}";
},
{
horizontal = 1;
origin = "{0, 17}";
target = "{0, 16}";
},
{
horizontal = 1;
origin = "{0, 14}";
target = down;
type = TopGhost;
}
);
layerId = "B9B856C8-1FA2-46F4-A929-F36A99765E59";
paths = (
{
closed = 1;
nodes = (
"99 0 LINE",
"155 266 LINE",
"437 266 LINE",
"381 0 LINE",
"455 0 LINE",
"553 461 LINE",
"598 461 LINE",
"612 525 LINE",
"566 525 LINE",
"593 650 LINE",
"519 650 LINE",
"492 525 LINE",
"210 525 LINE",
"237 650 LINE",
"163 650 LINE",
"136 525 LINE",
"92 525 LINE",
"78 461 LINE",
"123 461 LINE",
"25 0 LINE"
);
},
{
closed = 1;
nodes = (
"197 461 LINE",
"479 461 LINE",
"452 336 LINE",
"170 336 LINE"
);
}
);
width = 580;
},
{
anchors = (
{
name = bottom;
position = "{239, 0}";
},
{
name = center;
position = "{350, 518}";
},
{
name = top;
position = "{378, 650}";
},
{
name = topleft;
position = "{98, 650}";
}
);
background = {
anchors = (
{
name = bottom;
position = "{239, 0}";
},
{
name = center;
position = "{350, 518}";
},
{
name = top;
position = "{378, 650}";
},
{
name = topleft;
position = "{98, 650}";
}
);
paths = (
{
closed = 1;
nodes = (
"464 0 LINE",
"603 650 LINE",
"483 650 LINE",
"344 0 LINE"
);
},
{
closed = 1;
nodes = (
"134 0 LINE",
"273 650 LINE",
"153 650 LINE",
"14 0 LINE"
);
},
{
closed = 1;
nodes = (
"407 246 LINE",
"430 356 LINE",
"200 356 LINE",
"177 246 LINE"
);
},
{
closed = 1;
nodes = (
"603 455 LINE",
"624 551 LINE",
"90 551 LINE",
"69 455 LINE"
);
}
);
};
layerId = "27302DAC-E04E-41A7-B2D2-BD8305143A0A";
paths = (
{
closed = 1;
nodes = (
"134 0 LINE",
"187 246 LINE",
"397 246 LINE",
"344 0 LINE",
"464 0 LINE",
"561 455 LINE",
"603 455 LINE",
"624 551 LINE",
"582 551 LINE",
"603 650 LINE",
"483 650 LINE",
"462 551 LINE",
"252 551 LINE",
"273 650 LINE",
"153 650 LINE",
"132 551 LINE",
"90 551 LINE",
"69 455 LINE",
"111 455 LINE",
"14 0 LINE"
);
},
{
closed = 1;
nodes = (
"231 455 LINE",
"441 455 LINE",
"420 356 LINE",
"210 356 LINE"
);
}
);
width = 580;
}
);
unicode = 0126;
},
{
color = 0;
glyphname = I;
layers = (
{
anchors = (
{
name = bottom;
position = "{239, 0}";
},
{
name = ogonek;
position = "{345, 0}";
},
{
name = top;
position = "{378, 650}";
},
{
name = topleft;
position = "{98, 650}";
}
);
background = {
anchors = (
{
name = bottom;
position = "{239, 0}";
},
{
name = ogonek;
position = "{345, 0}";
},
{
name = top;
position = "{378, 650}";
},
{
name = topleft;
position = "{98, 650}";
}
);
paths = (
{
closed = 1;
nodes = (
"299 0 LINE",
"438 650 LINE",
"318 650 LINE",
"179 0 LINE"
);
},
{
closed = 1;
nodes = (
"189 0 LINE",
"213 110 LINE",
"46 110 LINE",
"22 0 LINE"
);
},
{
closed = 1;
nodes = (
"456 0 LINE",
"480 110 LINE",
"313 110 LINE",
"289 0 LINE"
);
},
{
closed = 1;
nodes = (
"304 540 LINE",
"328 650 LINE",
"161 650 LINE",
"137 540 LINE"
);
},
{
closed = 1;
nodes = (
"571 540 LINE",
"595 650 LINE",
"428 650 LINE",
"404 540 LINE"
);
}
);
};
layerId = "27302DAC-E04E-41A7-B2D2-BD8305143A0A";
paths = (
{
closed = 1;
nodes = (
"456 0 LINE",
"480 110 LINE",
"323 110 LINE",
"414 540 LINE",
"571 540 LINE",
"595 650 LINE",
"161 650 LINE",
"137 540 LINE",
"294 540 LINE",
"203 110 LINE",
"46 110 LINE",
"22 0 LINE"
);
}
);
width = 580;
},
{
anchors = (
{
name = bottom;
position = "{240, 0}";
},
{
name = ogonek;
position = "{335, 0}";
},
{
name = top;
position = "{378, 650}";
},
{
name = topleft;
position = "{98, 650}";
}
);
background = {
anchors = (
{
name = bottom;
position = "{240, 0}";
},
{
name = ogonek;
position = "{335, 0}";
},
{
name = top;
position = "{378, 650}";
},
{
name = topleft;
position = "{98, 650}";
}
);
paths = (
{
closed = 1;
nodes = (
"277 0 LINE",
"415 650 LINE",
"341 650 LINE",
"203 0 LINE"
);
},
{
closed = 1;
nodes = (
"213 0 LINE",
"228 70 LINE",
"47 70 LINE",
"32 0 LINE"
);
},
{
closed = 1;
nodes = (
"448 0 LINE",
"463 70 LINE",
"282 70 LINE",
"267 0 LINE"
);
},
{
closed = 1;
nodes = (
"336 580 LINE",
"351 650 LINE",
"170 650 LINE",
"155 580 LINE"
);
},
{
closed = 1;
nodes = (
"571 580 LINE",
"586 650 LINE",
"405 650 LINE",
"390 580 LINE"
);
}
);
};
layerId = "B9B856C8-1FA2-46F4-A929-F36A99765E59";
paths = (
{
closed = 1;
nodes = (
"448 0 LINE",
"463 70 LINE",
"292 70 LINE",
"400 580 LINE",
"571 580 LINE",
"586 650 LINE",
"170 650 LINE",
"155 580 LINE",
"326 580 LINE",
"218 70 LINE",
"47 70 LINE",
"32 0 LINE"
);
}
);
width = 580;
}
);
unicode = 0049;
},
{
color = 0;
glyphname = J;
layers = (
{
anchors = (
{
name = bottom;
position = "{240, 0}";
},
{
name = top;
position = "{411, 650}";
}
);
background = {
anchors = (
{
name = bottom;
position = "{240, 0}";
},
{
name = top;
position = "{411, 650}";
}
);
paths = (
{
closed = 1;
nodes = (
"365 -12 OFFCURVE",
"452 60 OFFCURVE",
"481 196 CURVE SMOOTH",
"578 650 LINE",
"457 650 LINE",
"364 213 LINE SMOOTH",
"349 143 OFFCURVE",
"303 100 OFFCURVE",
"226 100 CURVE SMOOTH",
"172 100 OFFCURVE",
"131 120 OFFCURVE",
"88 175 CURVE",
"153 222 LINE",
"-14 47 LINE",
"4 102 LINE",
"61 25 OFFCURVE",
"125 -12 OFFCURVE",
"226 -12 CURVE SMOOTH"
);
},
{
closed = 1;
nodes = (
"443 540 LINE",
"467 650 LINE",
"245 650 LINE",
"221 540 LINE"
);
}
);
};
layerId = "27302DAC-E04E-41A7-B2D2-BD8305143A0A";
paths = (
{
closed = 1;
nodes = (
"365 -12 OFFCURVE",
"452 59 OFFCURVE",
"481 196 CURVE SMOOTH",
"578 650 LINE",
"245 650 LINE",
"221 540 LINE",
"434 540 LINE",
"364 213 LINE SMOOTH",
"348 140 OFFCURVE",
"300 100 OFFCURVE",
"226 100 CURVE SMOOTH",
"174 100 OFFCURVE",
"136 119 OFFCURVE",
"97 165 CURVE",
"20 82 LINE",
"75 16 OFFCURVE",
"137 -12 OFFCURVE",
"226 -12 CURVE SMOOTH"
);
}
);
width = 580;
},
{
anchors = (
{
name = bottom;
position = "{238, 0}";
},
{
name = top;
position = "{414, 650}";
}
);
background = {
anchors = (
{
name = bottom;
position = "{238, 0}";
},
{
name = top;
position = "{414, 650}";
}
);
paths = (
{
closed = 1;
nodes = (
"356 -12 OFFCURVE",
"441 59 OFFCURVE",
"468 190 CURVE SMOOTH",
"566 650 LINE",
"492 650 LINE",
"397 203 LINE SMOOTH",
"378 113 OFFCURVE",
"317 59 OFFCURVE",
"224 59 CURVE SMOOTH",
"159 59 OFFCURVE",
"107 86 OFFCURVE",
"65 147 CURVE",
"103 149 LINE",
"-13 19 LINE",
"8 101 LINE",
"63 24 OFFCURVE",
"126 -12 OFFCURVE",
"223 -12 CURVE SMOOTH"
);
},
{
closed = 1;
nodes = (
"487 580 LINE",
"502 650 LINE",
"263 650 LINE",
"248 580 LINE"
);
}
);
};
layerId = "B9B856C8-1FA2-46F4-A929-F36A99765E59";
paths = (
{
closed = 1;
nodes = (
"355 -12 OFFCURVE",
"440 59 OFFCURVE",
"468 190 CURVE SMOOTH",
"566 650 LINE",
"263 650 LINE",
"248 580 LINE",
"477 580 LINE",
"397 203 LINE SMOOTH",
"377 111 OFFCURVE",
"315 59 OFFCURVE",
"224 59 CURVE SMOOTH",
"166 59 OFFCURVE",
"121 80 OFFCURVE",
"82 125 CURVE",
"33 70 LINE",
"83 13 OFFCURVE",
"141 -12 OFFCURVE",
"223 -12 CURVE SMOOTH"
);
}
);
width = 580;
},
{
anchors = (
{
name = bottom;
position = "{240, 0}";
},
{
name = top;
position = "{411, 650}";
}
);
associatedMasterId = "27302DAC-E04E-41A7-B2D2-BD8305143A0A";
background = {
anchors = (
{
name = bottom;
position = "{240, 0}";
},
{
name = top;
position = "{411, 650}";
}
);
paths = (
{
closed = 1;
nodes = (
"360 -12 OFFCURVE",
"452 60 OFFCURVE",
"481 196 CURVE SMOOTH",
"578 650 LINE",
"457 650 LINE",
"364 213 LINE SMOOTH",
"349 143 OFFCURVE",
"298 100 OFFCURVE",
"221 100 CURVE SMOOTH",
"167 100 OFFCURVE",
"126 120 OFFCURVE",
"89 176 CURVE",
"155 221 LINE",
"-16 48 LINE",
"4 102 LINE",
"56 25 OFFCURVE",
"120 -12 OFFCURVE",
"221 -12 CURVE SMOOTH"
);
},
{
closed = 1;
nodes = (
"433 540 LINE",
"457 650 LINE",
"245 650 LINE",
"221 540 LINE"
);
}
);
};
layerId = "1377F67E-7CD1-4D57-B9F9-AAE7FC82D92F";
name = slanted;
paths = (
{
closed = 1;
nodes = (
"356 -12 OFFCURVE",
"453 65 OFFCURVE",
"482 201 CURVE SMOOTH",
"578 650 LINE",
"457 650 LINE",
"363 208 LINE SMOOTH",
"348 138 OFFCURVE",
"303 100 OFFCURVE",
"230 100 CURVE SMOOTH",
"172 100 OFFCURVE",
"130 124 OFFCURVE",
"93 180 CURVE",
"155 221 LINE",
"-14 48 LINE",
"0 98 LINE",
"52 21 OFFCURVE",
"116 -12 OFFCURVE",
"212 -12 CURVE SMOOTH"
);
},
{
closed = 1;
nodes = (
"433 540 LINE",
"457 650 LINE",
"245 650 LINE",
"221 540 LINE"
);
}
);
width = 580;
},
{
anchors = (
{
name = bottom;
position = "{240, 0}";
},
{
name = top;
position = "{411, 650}";
}
);
associatedMasterId = "27302DAC-E04E-41A7-B2D2-BD8305143A0A";
background = {
anchors = (
{
name = bottom;
position = "{240, 0}";
},
{
name = top;
position = "{411, 650}";
}
);
paths = (
{
closed = 1;
nodes = (
"356 -12 OFFCURVE",
"453 65 OFFCURVE",
"482 201 CURVE SMOOTH",
"578 650 LINE",
"457 650 LINE",
"363 208 LINE SMOOTH",
"348 138 OFFCURVE",
"303 100 OFFCURVE",
"230 100 CURVE SMOOTH",
"172 100 OFFCURVE",
"130 124 OFFCURVE",
"93 180 CURVE",
"155 221 LINE",
"-14 48 LINE",
"0 98 LINE",
"52 21 OFFCURVE",
"116 -12 OFFCURVE",
"212 -12 CURVE SMOOTH"
);
},
{
closed = 1;
nodes = (
"433 540 LINE",
"457 650 LINE",
"245 650 LINE",
"221 540 LINE"
);
}
);
};
layerId = "4EC3374C-A273-40C6-A778-AAB7E37D2391";
name = cursify;
paths = (
{
closed = 1;
nodes = (
"360 -12 OFFCURVE",
"452 60 OFFCURVE",
"481 196 CURVE SMOOTH",
"578 650 LINE",
"457 650 LINE",
"364 213 LINE SMOOTH",
"349 143 OFFCURVE",
"298 100 OFFCURVE",
"221 100 CURVE SMOOTH",
"167 100 OFFCURVE",
"126 120 OFFCURVE",
"89 176 CURVE",
"155 221 LINE",
"-16 48 LINE",
"4 102 LINE",
"56 25 OFFCURVE",
"120 -12 OFFCURVE",
"221 -12 CURVE SMOOTH"
);
},
{
closed = 1;
nodes = (
"433 540 LINE",
"457 650 LINE",
"245 650 LINE",
"221 540 LINE"
);
}
);
width = 580;
},
{
anchors = (
{
name = bottom;
position = "{238, 0}";
},
{
name = top;
position = "{414, 650}";
}
);
associatedMasterId = "B9B856C8-1FA2-46F4-A929-F36A99765E59";
background = {
anchors = (
{
name = bottom;
position = "{238, 0}";
},
{
name = top;
position = "{414, 650}";
}
);
paths = (
{
closed = 1;
nodes = (
"352 -12 OFFCURVE",
"441 59 OFFCURVE",
"468 190 CURVE SMOOTH",
"566 650 LINE",
"492 650 LINE",
"397 203 LINE SMOOTH",
"378 113 OFFCURVE",
"313 59 OFFCURVE",
"220 59 CURVE SMOOTH",
"155 59 OFFCURVE",
"103 86 OFFCURVE",
"65 147 CURVE",
"105 147 LINE",
"-15 21 LINE",
"8 101 LINE",
"59 24 OFFCURVE",
"122 -12 OFFCURVE",
"219 -12 CURVE SMOOTH"
);
},
{
closed = 1;
nodes = (
"477 580 LINE",
"492 650 LINE",
"263 650 LINE",
"248 580 LINE"
);
}
);
};
layerId = "C427DFDE-F272-4A94-B3E0-748133207012";
name = slanted;
paths = (
{
closed = 1;
nodes = (
"349 -12 OFFCURVE",
"441 62 OFFCURVE",
"469 193 CURVE SMOOTH",
"566 650 LINE",
"492 650 LINE",
"397 200 LINE SMOOTH",
"377 110 OFFCURVE",
"316 59 OFFCURVE",
"226 59 CURVE SMOOTH",
"158 59 OFFCURVE",
"106 88 OFFCURVE",
"68 149 CURVE",
"106 147 LINE",
"-14 21 LINE",
"5 99 LINE",
"57 22 OFFCURVE",
"119 -12 OFFCURVE",
"213 -12 CURVE SMOOTH"
);
},
{
closed = 1;
nodes = (
"477 580 LINE",
"492 650 LINE",
"263 650 LINE",
"248 580 LINE"
);
}
);
width = 580;
},
{
anchors = (
{
name = bottom;
position = "{238, 0}";
},
{
name = top;
position = "{414, 650}";
}
);
associatedMasterId = "B9B856C8-1FA2-46F4-A929-F36A99765E59";
background = {
anchors = (
{
name = bottom;
position = "{238, 0}";
},
{
name = top;
position = "{414, 650}";
}
);
paths = (
{
closed = 1;
nodes = (
"349 -12 OFFCURVE",
"441 62 OFFCURVE",
"469 193 CURVE SMOOTH",
"566 650 LINE",
"492 650 LINE",
"397 200 LINE SMOOTH",
"377 110 OFFCURVE",
"316 59 OFFCURVE",
"226 59 CURVE SMOOTH",
"158 59 OFFCURVE",
"106 88 OFFCURVE",
"68 149 CURVE",
"106 147 LINE",
"-14 21 LINE",
"5 99 LINE",
"57 22 OFFCURVE",
"119 -12 OFFCURVE",
"213 -12 CURVE SMOOTH"
);
},
{
closed = 1;
nodes = (
"477 580 LINE",
"492 650 LINE",
"263 650 LINE",
"248 580 LINE"
);
}
);
};
layerId = "8ED14104-17F2-4EC2-903F-D523E515B220";
name = cursify;
paths = (
{
closed = 1;
nodes = (
"352 -12 OFFCURVE",
"441 59 OFFCURVE",
"468 190 CURVE SMOOTH",
"566 650 LINE",
"492 650 LINE",
"397 203 LINE SMOOTH",
"378 113 OFFCURVE",
"313 59 OFFCURVE",
"220 59 CURVE SMOOTH",
"155 59 OFFCURVE",
"103 86 OFFCURVE",
"65 147 CURVE",
"105 147 LINE",
"-15 21 LINE",
"8 101 LINE",
"59 24 OFFCURVE",
"122 -12 OFFCURVE",
"219 -12 CURVE SMOOTH"
);
},
{
closed = 1;
nodes = (
"477 580 LINE",
"492 650 LINE",
"263 650 LINE",
"248 580 LINE"
);
}
);
width = 580;
}
);
unicode = 004A;
},
{
color = 0;
glyphname = K;
layers = (
{
anchors = (
{
name = bottom;
position = "{253, 0}";
},
{
name = top;
position = "{377, 650}";
}
);
background = {
anchors = (
{
name = bottom;
position = "{253, 0}";
},
{
name = top;
position = "{377, 650}";
}
);
paths = (
{
closed = 1;
nodes = (
"54 285 LINE",
"168 177 LINE",
"648 650 LINE",
"493 650 LINE",
"25 177 LINE"
);
},
{
closed = 1;
nodes = (
"133 0 LINE",
"272 650 LINE",
"152 650 LINE",
"13 0 LINE"
);
},
{
closed = 1;
nodes = (
"512 0 LINE",
"374 409 LINE",
"219 307 LINE",
"245 409 LINE",
"381 0 LINE"
);
}
);
};
layerId = "27302DAC-E04E-41A7-B2D2-BD8305143A0A";
paths = (
{
closed = 1;
nodes = (
"133 0 LINE",
"172 181 LINE",
"285 292 LINE",
"382 0 LINE",
"512 0 LINE",
"381 387 LINE",
"648 650 LINE",
"492 650 LINE",
"211 364 LINE",
"272 650 LINE",
"152 650 LINE",
"13 0 LINE"
);
}
);
width = 580;
},
{
anchors = (
{
name = bottom;
position = "{255, 0}";
},
{
name = top;
position = "{380, 650}";
}
);
background = {
anchors = (
{
name = bottom;
position = "{255, 0}";
},
{
name = top;
position = "{380, 650}";
}
);
paths = (
{
closed = 1;
nodes = (
"71 285 LINE",
"142 204 LINE",
"631 650 LINE",
"533 650 LINE",
"48 204 LINE"
);
},
{
closed = 1;
nodes = (
"105 0 LINE",
"243 650 LINE",
"169 650 LINE",
"31 0 LINE"
);
},
{
closed = 1;
nodes = (
"496 0 LINE",
"344 397 LINE",
"238 295 LINE",
"265 396 LINE",
"416 0 LINE"
);
}
);
};
layerId = "B9B856C8-1FA2-46F4-A929-F36A99765E59";
paths = (
{
closed = 1;
nodes = (
"105 0 LINE",
"150 211 LINE",
"288 337 LINE",
"416 0 LINE",
"496 0 LINE",
"346 391 LINE",
"631 650 LINE",
"533 650 LINE",
"173 319 LINE",
"243 650 LINE",
"169 650 LINE",
"31 0 LINE"
);
}
);
width = 580;
},
{
anchors = (
{
name = bottom;
position = "{253, 0}";
},
{
name = top;
position = "{377, 650}";
}
);
associatedMasterId = "27302DAC-E04E-41A7-B2D2-BD8305143A0A";
background = {
anchors = (
{
name = bottom;
position = "{253, 0}";
},
{
name = top;
position = "{377, 650}";
}
);
paths = (
{
closed = 1;
nodes = (
"54 285 LINE",
"168 177 LINE",
"648 650 LINE",
"496 650 LINE",
"28 177 LINE"
);
},
{
closed = 1;
nodes = (
"133 0 LINE",
"272 650 LINE",
"152 650 LINE",
"13 0 LINE"
);
},
{
closed = 1;
nodes = (
"512 0 LINE",
"374 409 LINE",
"219 307 LINE",
"242 409 LINE",
"378 0 LINE"
);
}
);
};
layerId = "A4612599-6393-4111-B0D4-8D9E555B9D2F";
name = slanted;
paths = (
{
closed = 1;
nodes = (
"53 285 LINE",
"165 177 LINE",
"647 650 LINE",
"498 650 LINE",
"30 177 LINE"
);
},
{
closed = 1;
nodes = (
"133 0 LINE",
"272 650 LINE",
"152 650 LINE",
"13 0 LINE"
);
},
{
closed = 1;
nodes = (
"513 0 LINE",
"377 409 LINE",
"221 307 LINE",
"240 409 LINE",
"376 0 LINE"
);
}
);
width = 580;
},
{
anchors = (
{
name = bottom;
position = "{255, 0}";
},
{
name = top;
position = "{380, 650}";
}
);
associatedMasterId = "B9B856C8-1FA2-46F4-A929-F36A99765E59";
background = {
anchors = (
{
name = bottom;
position = "{255, 0}";
},
{
name = top;
position = "{380, 650}";
}
);
paths = (
{
closed = 1;
nodes = (
"71 285 LINE",
"142 204 LINE",
"631 650 LINE",
"536 650 LINE",
"51 204 LINE"
);
},
{
closed = 1;
nodes = (
"105 0 LINE",
"243 650 LINE",
"169 650 LINE",
"31 0 LINE"
);
},
{
closed = 1;
nodes = (
"496 0 LINE",
"344 397 LINE",
"238 295 LINE",
"261 396 LINE",
"412 0 LINE"
);
}
);
};
layerId = "18FBB058-6B22-4A87-BD07-A9AC4CEBC3CF";
name = slanted;
paths = (
{
closed = 1;
nodes = (
"70 285 LINE",
"140 204 LINE",
"630 650 LINE",
"537 650 LINE",
"52 204 LINE"
);
},
{
closed = 1;
nodes = (
"105 0 LINE",
"243 650 LINE",
"169 650 LINE",
"31 0 LINE"
);
},
{
closed = 1;
nodes = (
"497 0 LINE",
"346 397 LINE",
"239 295 LINE",
"260 396 LINE",
"411 0 LINE"
);
}
);
width = 580;
},
{
anchors = (
{
name = bottom;
position = "{255, 0}";
},
{
name = top;
position = "{380, 650}";
}
);
associatedMasterId = "B9B856C8-1FA2-46F4-A929-F36A99765E59";
background = {
anchors = (
{
name = bottom;
position = "{255, 0}";
},
{
name = top;
position = "{380, 650}";
}
);
paths = (
{
closed = 1;
nodes = (
"70 285 LINE",
"140 204 LINE",
"630 650 LINE",
"537 650 LINE",
"52 204 LINE"
);
},
{
closed = 1;
nodes = (
"105 0 LINE",
"243 650 LINE",
"169 650 LINE",
"31 0 LINE"
);
},
{
closed = 1;
nodes = (
"497 0 LINE",
"346 397 LINE",
"239 295 LINE",
"260 396 LINE",
"411 0 LINE"
);
}
);
};
layerId = "F0448517-D566-49EA-AA8F-B876DD34948C";
name = cursify;
paths = (
{
closed = 1;
nodes = (
"71 285 LINE",
"142 204 LINE",
"631 650 LINE",
"536 650 LINE",
"51 204 LINE"
);
},
{
closed = 1;
nodes = (
"105 0 LINE",
"243 650 LINE",
"169 650 LINE",
"31 0 LINE"
);
},
{
closed = 1;
nodes = (
"496 0 LINE",
"344 397 LINE",
"238 295 LINE",
"261 396 LINE",
"412 0 LINE"
);
}
);
width = 580;
},
{
anchors = (
{
name = bottom;
position = "{253, 0}";
},
{
name = top;
position = "{377, 650}";
}
);
associatedMasterId = "27302DAC-E04E-41A7-B2D2-BD8305143A0A";
background = {
anchors = (
{
name = bottom;
position = "{253, 0}";
},
{
name = top;
position = "{377, 650}";
}
);
paths = (
{
closed = 1;
nodes = (
"53 285 LINE",
"165 177 LINE",
"647 650 LINE",
"498 650 LINE",
"30 177 LINE"
);
},
{
closed = 1;
nodes = (
"133 0 LINE",
"272 650 LINE",
"152 650 LINE",
"13 0 LINE"
);
},
{
closed = 1;
nodes = (
"513 0 LINE",
"377 409 LINE",
"221 307 LINE",
"240 409 LINE",
"376 0 LINE"
);
}
);
};
layerId = "BE9CD5EC-8E68-4A1A-AB31-471CEA9BE4D0";
name = cursify;
paths = (
{
closed = 1;
nodes = (
"54 285 LINE",
"168 177 LINE",
"648 650 LINE",
"496 650 LINE",
"28 177 LINE"
);
},
{
closed = 1;
nodes = (
"133 0 LINE",
"272 650 LINE",
"152 650 LINE",
"13 0 LINE"
);
},
{
closed = 1;
nodes = (
"512 0 LINE",
"374 409 LINE",
"219 307 LINE",
"242 409 LINE",
"378 0 LINE"
);
}
);
width = 580;
}
);
unicode = 004B;
},
{
color = 0;
glyphname = L;
layers = (
{
anchors = (
{
name = bottom;
position = "{260, 0}";
},
{
name = center;
position = "{306, 325}";
},
{
name = top;
position = "{246, 650}";
},
{
name = topright;
position = "{432, 650}";
}
);
background = {
anchors = (
{
name = bottom;
position = "{260, 0}";
},
{
name = center;
position = "{306, 325}";
},
{
name = top;
position = "{246, 650}";
},
{
name = topright;
position = "{432, 650}";
}
);
paths = (
{
closed = 1;
nodes = (
"167 0 LINE",
"306 650 LINE",
"186 650 LINE",
"47 0 LINE"
);
},
{
closed = 1;
nodes = (
"474 0 LINE",
"498 110 LINE",
"181 110 LINE",
"157 0 LINE"
);
}
);
};
layerId = "27302DAC-E04E-41A7-B2D2-BD8305143A0A";
paths = (
{
closed = 1;
nodes = (
"474 0 LINE",
"498 110 LINE",
"191 110 LINE",
"306 650 LINE",
"186 650 LINE",
"47 0 LINE"
);
}
);
width = 580;
},
{
anchors = (
{
name = bottom;
position = "{263, 0}";
},
{
name = center;
position = "{311, 325}";
},
{
name = top;
position = "{237, 650}";
},
{
name = topright;
position = "{394, 650}";
}
);
background = {
anchors = (
{
name = bottom;
position = "{263, 0}";
},
{
name = center;
position = "{311, 325}";
},
{
name = top;
position = "{237, 650}";
},
{
name = topright;
position = "{394, 650}";
}
);
paths = (
{
closed = 1;
nodes = (
"136 0 LINE",
"274 650 LINE",
"200 650 LINE",
"62 0 LINE"
);
},
{
closed = 1;
nodes = (
"464 0 LINE",
"479 70 LINE",
"141 70 LINE",
"126 0 LINE"
);
}
);
};
layerId = "B9B856C8-1FA2-46F4-A929-F36A99765E59";
paths = (
{
closed = 1;
nodes = (
"464 0 LINE",
"479 70 LINE",
"151 70 LINE",
"274 650 LINE",
"200 650 LINE",
"62 0 LINE"
);
}
);
width = 580;
}
);
unicode = 004C;
},
{
color = 1;
glyphname = Lslash;
layers = (
{
anchors = (
{
name = _center;
position = "{338, 325}";
}
);
background = {
anchors = (
{
name = _center;
position = "{338, 325}";
}
);
components = (
{
name = L;
transform = "{1, 0, 0, 1, 19, 0}";
}
);
paths = (
{
closed = 1;
nodes = (
"457 381 LINE",
"425 444 LINE",
"39 244 LINE",
"71 181 LINE"
);
}
);
};
components = (
{
name = L;
transform = "{1, 0, 0, 1, 19, 0}";
}
);
layerId = "B9B856C8-1FA2-46F4-A929-F36A99765E59";
paths = (
{
closed = 1;
nodes = (
"457 381 LINE",
"425 444 LINE",
"39 244 LINE",
"71 181 LINE"
);
}
);
width = 580;
},
{
anchors = (
{
name = _center;
position = "{335, 325}";
}
);
background = {
anchors = (
{
name = _center;
position = "{335, 325}";
}
);
components = (
{
name = L;
transform = "{1, 0, 0, 1, 17, 0}";
}
);
paths = (
{
closed = 1;
nodes = (
"477 383 LINE",
"432 473 LINE",
"26 265 LINE",
"71 175 LINE"
);
}
);
};
components = (
{
name = L;
transform = "{1, 0, 0, 1, 17, 0}";
}
);
layerId = "27302DAC-E04E-41A7-B2D2-BD8305143A0A";
paths = (
{
closed = 1;
nodes = (
"477 383 LINE",
"432 473 LINE",
"26 265 LINE",
"71 175 LINE"
);
}
);
width = 580;
},
{
anchors = (
{
name = _center;
position = "{338, 325}";
},
{
name = bottom;
position = "{282, 0}";
},
{
name = center;
position = "{330, 325}";
},
{
name = top;
position = "{256, 650}";
},
{
name = topright;
position = "{413, 650}";
}
);
associatedMasterId = "B9B856C8-1FA2-46F4-A929-F36A99765E59";
background = {
anchors = (
{
name = _center;
position = "{338, 325}";
}
);
components = (
{
name = L;
transform = "{1, 0, 0, 1, 19, 0}";
}
);
paths = (
{
closed = 1;
nodes = (
"458 385 LINE",
"435 447 LINE",
"49 247 LINE",
"72 185 LINE"
);
}
);
};
components = (
{
name = L;
transform = "{1, 0, 0, 1, 19, 0}";
}
);
guideLines = (
{
angle = 120.0294;
position = "{61, 169}";
}
);
layerId = "D1D67223-76D9-4B0F-9832-D5A783CB8AD5";
name = slanted;
paths = (
{
closed = 1;
nodes = (
"459 385 LINE",
"437 447 LINE",
"49 247 LINE",
"70 185 LINE"
);
}
);
width = 580;
},
{
anchors = (
{
name = _center;
position = "{338, 325}";
}
);
associatedMasterId = "B9B856C8-1FA2-46F4-A929-F36A99765E59";
background = {
anchors = (
{
name = _center;
position = "{338, 325}";
},
{
name = bottom;
position = "{282, 0}";
},
{
name = center;
position = "{330, 325}";
},
{
name = top;
position = "{256, 650}";
},
{
name = topright;
position = "{413, 650}";
}
);
paths = (
{
closed = 1;
nodes = (
"459 385 LINE",
"437 447 LINE",
"49 247 LINE",
"70 185 LINE"
);
},
{
closed = 1;
nodes = (
"155 0 LINE",
"293 650 LINE",
"219 650 LINE",
"81 0 LINE"
);
},
{
closed = 1;
nodes = (
"483 0 LINE",
"498 70 LINE",
"170 70 LINE",
"155 0 LINE"
);
}
);
};
components = (
{
name = L;
transform = "{1, 0, 0, 1, 19, 0}";
}
);
guideLines = (
{
angle = 120.0294;
position = "{61, 169}";
}
);
layerId = "AE38FB37-F1BF-4499-9CE4-9AF0AC1CE1EC";
name = cursify;
paths = (
{
closed = 1;
nodes = (
"458 385 LINE",
"435 447 LINE",
"49 247 LINE",
"72 185 LINE"
);
}
);
width = 580;
},
{
anchors = (
{
name = _center;
position = "{335, 325}";
},
{
name = bottom;
position = "{277, 0}";
},
{
name = center;
position = "{323, 325}";
},
{
name = top;
position = "{263, 650}";
},
{
name = topright;
position = "{449, 650}";
}
);
associatedMasterId = "27302DAC-E04E-41A7-B2D2-BD8305143A0A";
background = {
anchors = (
{
name = _center;
position = "{335, 325}";
}
);
components = (
{
name = L;
transform = "{1, 0, 0, 1, 17, 0}";
}
);
paths = (
{
closed = 1;
nodes = (
"480 387 LINE",
"447 475 LINE",
"41 267 LINE",
"74 179 LINE"
);
}
);
};
components = (
{
name = L;
transform = "{1, 0, 0, 1, 17, 0}";
}
);
guideLines = (
{
angle = 119.6772;
position = "{561, 374}";
},
{
angle = 119.6772;
position = "{-119, 166}";
}
);
layerId = "3312BAA3-8043-4F6F-B915-57AC88C257D1";
name = slanted;
paths = (
{
closed = 1;
nodes = (
"481 387 LINE",
"449 475 LINE",
"40 267 LINE",
"71 179 LINE"
);
}
);
width = 580;
},
{
anchors = (
{
name = _center;
position = "{335, 325}";
}
);
associatedMasterId = "27302DAC-E04E-41A7-B2D2-BD8305143A0A";
background = {
anchors = (
{
name = _center;
position = "{335, 325}";
},
{
name = bottom;
position = "{277, 0}";
},
{
name = center;
position = "{323, 325}";
},
{
name = top;
position = "{263, 650}";
},
{
name = topright;
position = "{449, 650}";
}
);
paths = (
{
closed = 1;
nodes = (
"481 387 LINE",
"449 475 LINE",
"40 267 LINE",
"71 179 LINE"
);
},
{
closed = 1;
nodes = (
"184 0 LINE",
"323 650 LINE",
"203 650 LINE",
"64 0 LINE"
);
},
{
closed = 1;
nodes = (
"491 0 LINE",
"515 110 LINE",
"208 110 LINE",
"184 0 LINE"
);
}
);
};
components = (
{
name = L;
transform = "{1, 0, 0, 1, 17, 0}";
}
);
guideLines = (
{
angle = 119.6772;
position = "{561, 374}";
},
{
angle = 119.6772;
position = "{-119, 166}";
}
);
layerId = "9E0C3C10-5D78-4234-B7B2-9792BB2C2B6E";
name = cursify;
paths = (
{
closed = 1;
nodes = (
"480 387 LINE",
"447 475 LINE",
"41 267 LINE",
"74 179 LINE"
);
}
);
width = 580;
}
);
unicode = 0141;
},
{
color = 0;
glyphname = M;
layers = (
{
anchors = (
{
name = bottom;
position = "{239, 0}";
},
{
name = top;
position = "{378, 650}";
}
);
background = {
anchors = (
{
name = bottom;
position = "{239, 0}";
},
{
name = top;
position = "{378, 650}";
}
);
paths = (
{
closed = 1;
nodes = (
"269 126 LINE",
"334 197 LINE",
"315 126 LINE",
"279 650 LINE",
"197 650 LINE",
"232 126 LINE"
);
},
{
closed = 1;
nodes = (
"106 0 LINE",
"245 650 LINE",
"143 650 LINE",
"4 0 LINE"
);
},
{
closed = 1;
nodes = (
"474 0 LINE",
"613 650 LINE",
"505 650 LINE",
"366 0 LINE"
);
},
{
closed = 1;
nodes = (
"553 650 LINE",
"463 650 LINE",
"205 126 LINE",
"223 197 LINE",
"260 126 LINE",
"294 126 LINE"
);
}
);
};
layerId = "27302DAC-E04E-41A7-B2D2-BD8305143A0A";
paths = (
{
closed = 1;
nodes = (
"106 0 LINE",
"208 479 LINE",
"232 126 LINE",
"294 126 LINE",
"468 479 LINE",
"366 0 LINE",
"474 0 LINE",
"613 650 LINE",
"463 650 LINE",
"302 322 LINE",
"279 650 LINE",
"143 650 LINE",
"4 0 LINE"
);
}
);
width = 580;
},
{
anchors = (
{
name = bottom;
position = "{240, 0}";
},
{
name = top;
position = "{378, 650}";
}
);
background = {
anchors = (
{
name = bottom;
position = "{240, 0}";
},
{
name = top;
position = "{378, 650}";
}
);
paths = (
{
closed = 1;
nodes = (
"270 132 LINE",
"318 214 LINE",
"298 132 LINE",
"252 650 LINE",
"192 650 LINE",
"239 132 LINE"
);
},
{
closed = 1;
nodes = (
"84 0 LINE",
"222 650 LINE",
"154 650 LINE",
"16 0 LINE"
);
},
{
closed = 1;
nodes = (
"464 0 LINE",
"602 650 LINE",
"530 650 LINE",
"392 0 LINE"
);
},
{
closed = 1;
nodes = (
"560 650 LINE",
"496 650 LINE",
"230 132 LINE",
"249 214 LINE",
"266 132 LINE",
"293 132 LINE"
);
}
);
};
layerId = "B9B856C8-1FA2-46F4-A929-F36A99765E59";
paths = (
{
closed = 1;
nodes = (
"84 0 LINE",
"201 551 LINE",
"239 132 LINE",
"293 132 LINE",
"509 551 LINE",
"392 0 LINE",
"464 0 LINE",
"602 650 LINE",
"496 650 LINE",
"288 244 LINE",
"252 650 LINE",
"154 650 LINE",
"16 0 LINE"
);
}
);
width = 580;
},
{
anchors = (
{
name = bottom;
position = "{240, 0}";
},
{
name = top;
position = "{378, 650}";
}
);
associatedMasterId = "B9B856C8-1FA2-46F4-A929-F36A99765E59";
background = {
anchors = (
{
name = bottom;
position = "{240, 0}";
},
{
name = top;
position = "{378, 650}";
}
);
paths = (
{
closed = 1;
nodes = (
"272 132 LINE",
"321 214 LINE",
"302 132 LINE",
"256 650 LINE",
"194 650 LINE",
"241 132 LINE"
);
},
{
closed = 1;
nodes = (
"84 0 LINE",
"222 650 LINE",
"154 650 LINE",
"16 0 LINE"
);
},
{
closed = 1;
nodes = (
"464 0 LINE",
"602 650 LINE",
"530 650 LINE",
"392 0 LINE"
);
},
{
closed = 1;
nodes = (
"564 650 LINE",
"500 650 LINE",
"234 132 LINE",
"254 214 LINE",
"270 132 LINE",
"297 132 LINE"
);
}
);
};
layerId = "19F2104D-5058-4627-80BF-5CEE29FFAE1B";
name = slanted;
paths = (
{
closed = 1;
nodes = (
"271 132 LINE",
"321 214 LINE",
"303 132 LINE",
"257 650 LINE",
"193 650 LINE",
"240 132 LINE"
);
},
{
closed = 1;
nodes = (
"84 0 LINE",
"222 650 LINE",
"154 650 LINE",
"16 0 LINE"
);
},
{
closed = 1;
nodes = (
"464 0 LINE",
"602 650 LINE",
"530 650 LINE",
"392 0 LINE"
);
},
{
closed = 1;
nodes = (
"563 650 LINE",
"501 650 LINE",
"235 132 LINE",
"253 214 LINE",
"269 132 LINE",
"296 132 LINE"
);
}
);
width = 580;
},
{
anchors = (
{
name = bottom;
position = "{239, 0}";
},
{
name = top;
position = "{378, 650}";
}
);
associatedMasterId = "27302DAC-E04E-41A7-B2D2-BD8305143A0A";
background = {
anchors = (
{
name = bottom;
position = "{239, 0}";
},
{
name = top;
position = "{378, 650}";
}
);
paths = (
{
closed = 1;
nodes = (
"271 126 LINE",
"338 197 LINE",
"320 126 LINE",
"284 650 LINE",
"199 650 LINE",
"234 126 LINE"
);
},
{
closed = 1;
nodes = (
"106 0 LINE",
"245 650 LINE",
"143 650 LINE",
"4 0 LINE"
);
},
{
closed = 1;
nodes = (
"474 0 LINE",
"613 650 LINE",
"505 650 LINE",
"366 0 LINE"
);
},
{
closed = 1;
nodes = (
"557 650 LINE",
"468 650 LINE",
"210 126 LINE",
"228 197 LINE",
"263 126 LINE",
"298 126 LINE"
);
}
);
};
layerId = "0997F0A8-BDED-4FDD-B7A6-2FB717825191";
name = slanted;
paths = (
{
closed = 1;
nodes = (
"269 126 LINE",
"336 197 LINE",
"321 126 LINE",
"286 650 LINE",
"198 650 LINE",
"233 126 LINE"
);
},
{
closed = 1;
nodes = (
"106 0 LINE",
"245 650 LINE",
"143 650 LINE",
"4 0 LINE"
);
},
{
closed = 1;
nodes = (
"474 0 LINE",
"613 650 LINE",
"505 650 LINE",
"366 0 LINE"
);
},
{
closed = 1;
nodes = (
"556 650 LINE",
"470 650 LINE",
"211 126 LINE",
"226 197 LINE",
"261 126 LINE",
"297 126 LINE"
);
}
);
width = 580;
},
{
anchors = (
{
name = bottom;
position = "{240, 0}";
},
{
name = top;
position = "{378, 650}";
}
);
associatedMasterId = "B9B856C8-1FA2-46F4-A929-F36A99765E59";
background = {
anchors = (
{
name = bottom;
position = "{240, 0}";
},
{
name = top;
position = "{378, 650}";
}
);
paths = (
{
closed = 1;
nodes = (
"271 132 LINE",
"321 214 LINE",
"303 132 LINE",
"257 650 LINE",
"193 650 LINE",
"240 132 LINE"
);
},
{
closed = 1;
nodes = (
"84 0 LINE",
"222 650 LINE",
"154 650 LINE",
"16 0 LINE"
);
},
{
closed = 1;
nodes = (
"464 0 LINE",
"602 650 LINE",
"530 650 LINE",
"392 0 LINE"
);
},
{
closed = 1;
nodes = (
"563 650 LINE",
"501 650 LINE",
"235 132 LINE",
"253 214 LINE",
"269 132 LINE",
"296 132 LINE"
);
}
);
};
layerId = "F808E1C5-01F2-4BD8-AAC7-132521C5511F";
name = cursify;
paths = (
{
closed = 1;
nodes = (
"272 132 LINE",
"321 214 LINE",
"302 132 LINE",
"256 650 LINE",
"194 650 LINE",
"241 132 LINE"
);
},
{
closed = 1;
nodes = (
"84 0 LINE",
"222 650 LINE",
"154 650 LINE",
"16 0 LINE"
);
},
{
closed = 1;
nodes = (
"464 0 LINE",
"602 650 LINE",
"530 650 LINE",
"392 0 LINE"
);
},
{
closed = 1;
nodes = (
"564 650 LINE",
"500 650 LINE",
"234 132 LINE",
"254 214 LINE",
"270 132 LINE",
"297 132 LINE"
);
}
);
width = 580;
},
{
anchors = (
{
name = bottom;
position = "{239, 0}";
},
{
name = top;
position = "{378, 650}";
}
);
associatedMasterId = "27302DAC-E04E-41A7-B2D2-BD8305143A0A";
background = {
anchors = (
{
name = bottom;
position = "{239, 0}";
},
{
name = top;
position = "{378, 650}";
}
);
paths = (
{
closed = 1;
nodes = (
"269 126 LINE",
"336 197 LINE",
"321 126 LINE",
"286 650 LINE",
"198 650 LINE",
"233 126 LINE"
);
},
{
closed = 1;
nodes = (
"106 0 LINE",
"245 650 LINE",
"143 650 LINE",
"4 0 LINE"
);
},
{
closed = 1;
nodes = (
"474 0 LINE",
"613 650 LINE",
"505 650 LINE",
"366 0 LINE"
);
},
{
closed = 1;
nodes = (
"556 650 LINE",
"470 650 LINE",
"211 126 LINE",
"226 197 LINE",
"261 126 LINE",
"297 126 LINE"
);
}
);
};
layerId = "6A725E0E-0EC7-42C2-B21B-E0C42FD84CB8";
name = cursify;
paths = (
{
closed = 1;
nodes = (
"271 126 LINE",
"338 197 LINE",
"320 126 LINE",
"284 650 LINE",
"199 650 LINE",
"234 126 LINE"
);
},
{
closed = 1;
nodes = (
"106 0 LINE",
"245 650 LINE",
"143 650 LINE",
"4 0 LINE"
);
},
{
closed = 1;
nodes = (
"474 0 LINE",
"613 650 LINE",
"505 650 LINE",
"366 0 LINE"
);
},
{
closed = 1;
nodes = (
"557 650 LINE",
"468 650 LINE",
"210 126 LINE",
"228 197 LINE",
"263 126 LINE",
"298 126 LINE"
);
}
);
width = 580;
}
);
unicode = 004D;
},
{
color = 0;
glyphname = N;
layers = (
{
anchors = (
{
name = bottom;
position = "{239, 0}";
},
{
name = top;
position = "{378, 650}";
}
);
background = {
anchors = (
{
name = bottom;
position = "{239, 0}";
},
{
name = top;
position = "{378, 650}";
}
);
paths = (
{
closed = 1;
nodes = (
"488 105 LINE",
"461 0 LINE",
"283 650 LINE",
"176 650 LINE",
"356 0 LINE"
);
},
{
closed = 1;
nodes = (
"122 0 LINE",
"261 650 LINE",
"153 650 LINE",
"14 0 LINE"
);
},
{
closed = 1;
nodes = (
"464 0 LINE",
"603 650 LINE",
"495 650 LINE",
"365 45 LINE",
"356 0 LINE"
);
}
);
};
layerId = "27302DAC-E04E-41A7-B2D2-BD8305143A0A";
paths = (
{
closed = 1;
nodes = (
"122 0 LINE",
"224 477 LINE",
"356 0 LINE",
"464 0 LINE",
"603 650 LINE",
"495 650 LINE",
"402 216 LINE",
"283 650 LINE",
"153 650 LINE",
"14 0 LINE"
);
}
);
width = 580;
},
{
anchors = (
{
name = bottom;
position = "{240, 0}";
},
{
name = top;
position = "{378, 650}";
}
);
background = {
anchors = (
{
name = bottom;
position = "{240, 0}";
},
{
name = top;
position = "{378, 650}";
}
);
paths = (
{
closed = 1;
nodes = (
"461 21 LINE",
"453 0 LINE",
"255 650 LINE",
"183 650 LINE",
"381 0 LINE"
);
},
{
closed = 1;
nodes = (
"95 0 LINE",
"233 650 LINE",
"163 650 LINE",
"25 0 LINE"
);
},
{
closed = 1;
nodes = (
"455 0 LINE",
"593 650 LINE",
"523 650 LINE",
"390 28 LINE",
"381 0 LINE"
);
}
);
};
layerId = "B9B856C8-1FA2-46F4-A929-F36A99765E59";
paths = (
{
closed = 1;
nodes = (
"95 0 LINE",
"212 553 LINE",
"381 0 LINE",
"455 0 LINE",
"593 650 LINE",
"523 650 LINE",
"413 134 LINE",
"255 650 LINE",
"163 650 LINE",
"25 0 LINE"
);
}
);
width = 580;
},
{
anchors = (
{
name = bottom;
position = "{239, 0}";
},
{
name = top;
position = "{378, 650}";
}
);
associatedMasterId = "27302DAC-E04E-41A7-B2D2-BD8305143A0A";
background = {
anchors = (
{
name = bottom;
position = "{239, 0}";
},
{
name = top;
position = "{378, 650}";
}
);
paths = (
{
closed = 1;
nodes = (
"486 105 LINE",
"462 0 LINE",
"284 650 LINE",
"174 650 LINE",
"354 0 LINE"
);
},
{
closed = 1;
nodes = (
"122 0 LINE",
"261 650 LINE",
"153 650 LINE",
"14 0 LINE"
);
},
{
closed = 1;
nodes = (
"464 0 LINE",
"603 650 LINE",
"495 650 LINE",
"365 45 LINE",
"354 0 LINE"
);
}
);
};
layerId = "F462AB8E-D894-43FF-BC64-49EB820E5EF1";
name = slanted;
paths = (
{
closed = 1;
nodes = (
"486 105 LINE",
"464 0 LINE",
"287 650 LINE",
"174 650 LINE",
"351 0 LINE"
);
},
{
closed = 1;
nodes = (
"122 0 LINE",
"261 650 LINE",
"153 650 LINE",
"14 0 LINE"
);
},
{
closed = 1;
nodes = (
"464 0 LINE",
"603 650 LINE",
"495 650 LINE",
"366 45 LINE",
"351 0 LINE"
);
}
);
width = 580;
},
{
anchors = (
{
name = bottom;
position = "{240, 0}";
},
{
name = top;
position = "{378, 650}";
}
);
associatedMasterId = "B9B856C8-1FA2-46F4-A929-F36A99765E59";
background = {
anchors = (
{
name = bottom;
position = "{240, 0}";
},
{
name = top;
position = "{378, 650}";
}
);
paths = (
{
closed = 1;
nodes = (
"461 21 LINE",
"454 0 LINE",
"256 650 LINE",
"182 650 LINE",
"380 0 LINE"
);
},
{
closed = 1;
nodes = (
"95 0 LINE",
"233 650 LINE",
"163 650 LINE",
"25 0 LINE"
);
},
{
closed = 1;
nodes = (
"455 0 LINE",
"593 650 LINE",
"523 650 LINE",
"390 28 LINE",
"380 0 LINE"
);
}
);
};
layerId = "3A64BC62-EF49-415C-9EC4-AEAE3AB4DEC5";
name = slanted;
paths = (
{
closed = 1;
nodes = (
"460 21 LINE",
"455 0 LINE",
"257 650 LINE",
"181 650 LINE",
"379 0 LINE"
);
},
{
closed = 1;
nodes = (
"95 0 LINE",
"233 650 LINE",
"163 650 LINE",
"25 0 LINE"
);
},
{
closed = 1;
nodes = (
"455 0 LINE",
"593 650 LINE",
"523 650 LINE",
"391 28 LINE",
"379 0 LINE"
);
}
);
width = 580;
},
{
anchors = (
{
name = bottom;
position = "{240, 0}";
},
{
name = top;
position = "{378, 650}";
}
);
associatedMasterId = "B9B856C8-1FA2-46F4-A929-F36A99765E59";
background = {
anchors = (
{
name = bottom;
position = "{240, 0}";
},
{
name = top;
position = "{378, 650}";
}
);
paths = (
{
closed = 1;
nodes = (
"460 21 LINE",
"455 0 LINE",
"257 650 LINE",
"181 650 LINE",
"379 0 LINE"
);
},
{
closed = 1;
nodes = (
"95 0 LINE",
"233 650 LINE",
"163 650 LINE",
"25 0 LINE"
);
},
{
closed = 1;
nodes = (
"455 0 LINE",
"593 650 LINE",
"523 650 LINE",
"391 28 LINE",
"379 0 LINE"
);
}
);
};
layerId = "587603F9-2142-4E80-872F-535C9EF08749";
name = cursify;
paths = (
{
closed = 1;
nodes = (
"461 21 LINE",
"454 0 LINE",
"256 650 LINE",
"182 650 LINE",
"380 0 LINE"
);
},
{
closed = 1;
nodes = (
"95 0 LINE",
"233 650 LINE",
"163 650 LINE",
"25 0 LINE"
);
},
{
closed = 1;
nodes = (
"455 0 LINE",
"593 650 LINE",
"523 650 LINE",
"390 28 LINE",
"380 0 LINE"
);
}
);
width = 580;
},
{
anchors = (
{
name = bottom;
position = "{239, 0}";
},
{
name = top;
position = "{378, 650}";
}
);
associatedMasterId = "27302DAC-E04E-41A7-B2D2-BD8305143A0A";
background = {
anchors = (
{
name = bottom;
position = "{239, 0}";
},
{
name = top;
position = "{378, 650}";
}
);
paths = (
{
closed = 1;
nodes = (
"486 105 LINE",
"464 0 LINE",
"287 650 LINE",
"174 650 LINE",
"351 0 LINE"
);
},
{
closed = 1;
nodes = (
"122 0 LINE",
"261 650 LINE",
"153 650 LINE",
"14 0 LINE"
);
},
{
closed = 1;
nodes = (
"464 0 LINE",
"603 650 LINE",
"495 650 LINE",
"366 45 LINE",
"351 0 LINE"
);
}
);
};
layerId = "27356D4A-F3EE-4DB2-935D-B2A08C8E0EA3";
name = cursify;
paths = (
{
closed = 1;
nodes = (
"486 105 LINE",
"462 0 LINE",
"284 650 LINE",
"174 650 LINE",
"354 0 LINE"
);
},
{
closed = 1;
nodes = (
"122 0 LINE",
"261 650 LINE",
"153 650 LINE",
"14 0 LINE"
);
},
{
closed = 1;
nodes = (
"464 0 LINE",
"603 650 LINE",
"495 650 LINE",
"365 45 LINE",
"354 0 LINE"
);
}
);
width = 580;
}
);
unicode = 004E;
},
{
color = 0;
glyphname = Eng;
layers = (
{
anchors = (
{
name = bottom;
position = "{240, 0}";
},
{
name = top;
position = "{378, 650}";
}
);
background = {
components = (
{
name = N;
}
);
paths = (
{
closed = 1;
nodes = (
"123 -170 LINE",
"159 -204 OFFCURVE",
"198 -222 OFFCURVE",
"253 -222 CURVE SMOOTH",
"356 -222 OFFCURVE",
"421 -160 OFFCURVE",
"447 -36 CURVE SMOOTH",
"472 78 LINE",
"398 78 LINE",
"378 -15 LINE SMOOTH",
"357 -111 OFFCURVE",
"322 -151 OFFCURVE",
"255 -151 CURVE SMOOTH",
"216 -151 OFFCURVE",
"187 -137 OFFCURVE",
"158 -106 CURVE",
"212 -63 LINE",
"114 -250 LINE"
);
}
);
};
layerId = "B9B856C8-1FA2-46F4-A929-F36A99765E59";
paths = (
{
closed = 1;
nodes = (
"358 -222 OFFCURVE",
"420 -164 OFFCURVE",
"446 -40 CURVE SMOOTH",
"593 650 LINE",
"523 650 LINE",
"413 134 LINE",
"255 650 LINE",
"163 650 LINE",
"25 0 LINE",
"95 0 LINE",
"212 553 LINE",
"381 0 LINE",
"377 -19 LINE SMOOTH",
"357 -115 OFFCURVE",
"323 -151 OFFCURVE",
"256 -151 CURVE SMOOTH",
"227 -151 OFFCURVE",
"203 -143 OFFCURVE",
"179 -126 CURVE",
"146 -190 LINE",
"178 -212 OFFCURVE",
"213 -222 OFFCURVE",
"254 -222 CURVE SMOOTH"
);
}
);
width = 580;
},
{
anchors = (
{
name = bottom;
position = "{239, 0}";
},
{
name = top;
position = "{378, 650}";
}
);
background = {
components = (
{
name = N;
}
);
paths = (
{
closed = 1;
nodes = (
"97 -169 LINE",
"136 -203 OFFCURVE",
"178 -222 OFFCURVE",
"237 -222 CURVE SMOOTH",
"357 -222 OFFCURVE",
"432 -151 OFFCURVE",
"461 -14 CURVE SMOOTH",
"498 158 LINE",
"378 158 LINE",
"344 0 LINE SMOOTH",
"329 -73 OFFCURVE",
"294 -112 OFFCURVE",
"233 -112 CURVE SMOOTH",
"205 -112 OFFCURVE",
"180 -103 OFFCURVE",
"155 -80 CURVE",
"200 -31 LINE",
"105 -230 LINE"
);
}
);
};
layerId = "27302DAC-E04E-41A7-B2D2-BD8305143A0A";
paths = (
{
closed = 1;
nodes = (
"360 -222 OFFCURVE",
"430 -157 OFFCURVE",
"460 -18 CURVE SMOOTH",
"603 650 LINE",
"495 650 LINE",
"402 216 LINE",
"283 650 LINE",
"153 650 LINE",
"14 0 LINE",
"122 0 LINE",
"224 477 LINE",
"349 25 LINE",
"343 -4 LINE SMOOTH",
"326 -80 OFFCURVE",
"294 -112 OFFCURVE",
"235 -112 CURVE SMOOTH",
"213 -112 OFFCURVE",
"192 -106 OFFCURVE",
"171 -92 CURVE",
"124 -191 LINE",
"157 -212 OFFCURVE",
"196 -222 OFFCURVE",
"240 -222 CURVE SMOOTH"
);
}
);
width = 580;
},
{
associatedMasterId = "B9B856C8-1FA2-46F4-A929-F36A99765E59";
background = {
anchors = (
{
name = bottom;
position = "{240, 0}";
},
{
name = top;
position = "{378, 650}";
}
);
paths = (
{
closed = 1;
nodes = (
"460 21 LINE",
"455 0 LINE",
"257 650 LINE",
"181 650 LINE",
"379 0 LINE"
);
},
{
closed = 1;
nodes = (
"95 0 LINE",
"233 650 LINE",
"163 650 LINE",
"25 0 LINE"
);
},
{
closed = 1;
nodes = (
"455 0 LINE",
"593 650 LINE",
"523 650 LINE",
"391 28 LINE",
"379 0 LINE"
);
},
{
closed = 1;
nodes = (
"123 -170 LINE",
"157 -204 OFFCURVE",
"196 -222 OFFCURVE",
"251 -222 CURVE SMOOTH",
"354 -222 OFFCURVE",
"421 -160 OFFCURVE",
"447 -36 CURVE SMOOTH",
"472 78 LINE",
"398 78 LINE",
"378 -15 LINE SMOOTH",
"357 -111 OFFCURVE",
"320 -151 OFFCURVE",
"253 -151 CURVE SMOOTH",
"214 -151 OFFCURVE",
"185 -137 OFFCURVE",
"158 -106 CURVE",
"217 -66 LINE",
"109 -247 LINE"
);
}
);
};
components = (
{
name = N;
}
);
layerId = "9F89E237-1214-4D6C-8C49-53427755D26E";
name = slanted;
paths = (
{
closed = 1;
nodes = (
"120 -172 LINE",
"154 -206 OFFCURVE",
"193 -222 OFFCURVE",
"245 -222 CURVE SMOOTH",
"351 -222 OFFCURVE",
"422 -157 OFFCURVE",
"448 -33 CURVE SMOOTH",
"472 78 LINE",
"398 78 LINE",
"377 -18 LINE SMOOTH",
"357 -114 OFFCURVE",
"323 -151 OFFCURVE",
"259 -151 CURVE SMOOTH",
"217 -151 OFFCURVE",
"187 -135 OFFCURVE",
"161 -104 CURVE",
"217 -66 LINE",
"110 -247 LINE"
);
}
);
width = 580;
},
{
associatedMasterId = "27302DAC-E04E-41A7-B2D2-BD8305143A0A";
background = {
anchors = (
{
name = bottom;
position = "{239, 0}";
},
{
name = top;
position = "{378, 650}";
}
);
paths = (
{
closed = 1;
nodes = (
"486 105 LINE",
"464 0 LINE",
"287 650 LINE",
"174 650 LINE",
"351 0 LINE"
);
},
{
closed = 1;
nodes = (
"122 0 LINE",
"261 650 LINE",
"153 650 LINE",
"14 0 LINE"
);
},
{
closed = 1;
nodes = (
"464 0 LINE",
"603 650 LINE",
"495 650 LINE",
"366 45 LINE",
"351 0 LINE"
);
},
{
closed = 1;
nodes = (
"97 -169 LINE",
"134 -203 OFFCURVE",
"175 -222 OFFCURVE",
"234 -222 CURVE SMOOTH",
"354 -222 OFFCURVE",
"432 -151 OFFCURVE",
"461 -14 CURVE SMOOTH",
"498 158 LINE",
"378 158 LINE",
"344 0 LINE SMOOTH",
"329 -73 OFFCURVE",
"292 -112 OFFCURVE",
"231 -112 CURVE SMOOTH",
"203 -112 OFFCURVE",
"178 -103 OFFCURVE",
"155 -80 CURVE",
"208 -36 LINE",
"97 -225 LINE"
);
}
);
};
components = (
{
name = N;
}
);
layerId = "2811972A-A4ED-4964-9457-47140EF080C3";
name = slanted;
paths = (
{
closed = 1;
nodes = (
"94 -172 LINE",
"130 -206 OFFCURVE",
"170 -222 OFFCURVE",
"225 -222 CURVE SMOOTH",
"349 -222 OFFCURVE",
"433 -146 OFFCURVE",
"462 -9 CURVE SMOOTH",
"498 158 LINE",
"378 158 LINE",
"343 -5 LINE SMOOTH",
"328 -78 OFFCURVE",
"297 -112 OFFCURVE",
"240 -112 CURVE SMOOTH",
"208 -112 OFFCURVE",
"182 -100 OFFCURVE",
"159 -77 CURVE",
"208 -36 LINE",
"100 -225 LINE"
);
}
);
width = 580;
},
{
associatedMasterId = "27302DAC-E04E-41A7-B2D2-BD8305143A0A";
background = {
anchors = (
{
name = bottom;
position = "{239, 0}";
},
{
name = top;
position = "{378, 650}";
}
);
paths = (
{
closed = 1;
nodes = (
"94 -172 LINE",
"130 -206 OFFCURVE",
"170 -222 OFFCURVE",
"225 -222 CURVE SMOOTH",
"349 -222 OFFCURVE",
"433 -146 OFFCURVE",
"462 -9 CURVE SMOOTH",
"498 158 LINE",
"378 158 LINE",
"343 -5 LINE SMOOTH",
"328 -78 OFFCURVE",
"297 -112 OFFCURVE",
"240 -112 CURVE SMOOTH",
"208 -112 OFFCURVE",
"182 -100 OFFCURVE",
"159 -77 CURVE",
"208 -36 LINE",
"100 -225 LINE"
);
},
{
closed = 1;
nodes = (
"486 105 LINE",
"464 0 LINE",
"287 650 LINE",
"174 650 LINE",
"351 0 LINE"
);
},
{
closed = 1;
nodes = (
"122 0 LINE",
"261 650 LINE",
"153 650 LINE",
"14 0 LINE"
);
},
{
closed = 1;
nodes = (
"464 0 LINE",
"603 650 LINE",
"495 650 LINE",
"366 45 LINE",
"351 0 LINE"
);
}
);
};
components = (
{
name = N;
}
);
layerId = "6853BA2D-058E-4BF0-8408-6C206C8589D6";
name = cursify;
paths = (
{
closed = 1;
nodes = (
"97 -169 LINE",
"134 -203 OFFCURVE",
"175 -222 OFFCURVE",
"234 -222 CURVE SMOOTH",
"354 -222 OFFCURVE",
"432 -151 OFFCURVE",
"461 -14 CURVE SMOOTH",
"498 158 LINE",
"378 158 LINE",
"344 0 LINE SMOOTH",
"329 -73 OFFCURVE",
"292 -112 OFFCURVE",
"231 -112 CURVE SMOOTH",
"203 -112 OFFCURVE",
"178 -103 OFFCURVE",
"155 -80 CURVE",
"208 -36 LINE",
"97 -225 LINE"
);
}
);
width = 580;
},
{
associatedMasterId = "B9B856C8-1FA2-46F4-A929-F36A99765E59";
background = {
anchors = (
{
name = bottom;
position = "{240, 0}";
},
{
name = top;
position = "{378, 650}";
}
);
paths = (
{
closed = 1;
nodes = (
"120 -172 LINE",
"154 -206 OFFCURVE",
"193 -222 OFFCURVE",
"245 -222 CURVE SMOOTH",
"351 -222 OFFCURVE",
"422 -157 OFFCURVE",
"448 -33 CURVE SMOOTH",
"472 78 LINE",
"398 78 LINE",
"377 -18 LINE SMOOTH",
"357 -114 OFFCURVE",
"323 -151 OFFCURVE",
"259 -151 CURVE SMOOTH",
"217 -151 OFFCURVE",
"187 -135 OFFCURVE",
"161 -104 CURVE",
"217 -66 LINE",
"110 -247 LINE"
);
},
{
closed = 1;
nodes = (
"460 21 LINE",
"455 0 LINE",
"257 650 LINE",
"181 650 LINE",
"379 0 LINE"
);
},
{
closed = 1;
nodes = (
"95 0 LINE",
"233 650 LINE",
"163 650 LINE",
"25 0 LINE"
);
},
{
closed = 1;
nodes = (
"455 0 LINE",
"593 650 LINE",
"523 650 LINE",
"391 28 LINE",
"379 0 LINE"
);
}
);
};
components = (
{
name = N;
}
);
layerId = "A67E8D2D-01CE-4A12-90AF-AA4E66A20AE6";
name = cursify;
paths = (
{
closed = 1;
nodes = (
"123 -170 LINE",
"157 -204 OFFCURVE",
"196 -222 OFFCURVE",
"251 -222 CURVE SMOOTH",
"354 -222 OFFCURVE",
"421 -160 OFFCURVE",
"447 -36 CURVE SMOOTH",
"472 78 LINE",
"398 78 LINE",
"378 -15 LINE SMOOTH",
"357 -111 OFFCURVE",
"320 -151 OFFCURVE",
"253 -151 CURVE SMOOTH",
"214 -151 OFFCURVE",
"185 -137 OFFCURVE",
"158 -106 CURVE",
"217 -66 LINE",
"109 -247 LINE"
);
}
);
width = 580;
}
);
unicode = 014A;
},
{
color = 0;
glyphname = O;
layers = (
{
anchors = (
{
name = bottom;
position = "{240, 0}";
},
{
name = center;
position = "{309, 325}";
},
{
name = ogonek;
position = "{482, 10}";
},
{
name = top;
position = "{378, 650}";
},
{
name = topleft;
position = "{98, 650}";
},
{
name = topright;
position = "{658, 650}";
}
);
background = {
anchors = (
{
name = bottom;
position = "{240, 0}";
},
{
name = center;
position = "{309, 325}";
},
{
name = ogonek;
position = "{482, 10}";
},
{
name = top;
position = "{378, 650}";
},
{
name = topleft;
position = "{98, 650}";
},
{
name = topright;
position = "{658, 650}";
}
);
paths = (
{
closed = 1;
nodes = (
"399 -16 OFFCURVE",
"504 95 OFFCURVE",
"551 313 CURVE SMOOTH",
"599 535 OFFCURVE",
"539 654 OFFCURVE",
"377 660 CURVE SMOOTH",
"219 666 OFFCURVE",
"114 555 OFFCURVE",
"67 337 CURVE SMOOTH",
"20 115 OFFCURVE",
"79 -4 OFFCURVE",
"241 -10 CURVE SMOOTH"
);
},
{
closed = 1;
nodes = (
"138 65 OFFCURVE",
"104 152 OFFCURVE",
"141 325 CURVE SMOOTH",
"179 504 OFFCURVE",
"257 593 OFFCURVE",
"371 589 CURVE SMOOTH",
"481 585 OFFCURVE",
"515 498 OFFCURVE",
"477 325 CURVE SMOOTH",
"439 146 OFFCURVE",
"362 57 OFFCURVE",
"247 61 CURVE SMOOTH"
);
}
);
};
backgroundImage = {
crop = "{{0, 0}, {82.38, 144.54}}";
imagePath = "scan-image/scan2017-1-CO.png";
transform = "{8.62745, 0, 3.66764, 8.62745, -271.914, -327}";
};
layerId = "B9B856C8-1FA2-46F4-A929-F36A99765E59";
paths = (
{
closed = 1;
nodes = (
"481 -12 OFFCURVE",
"567 264 OFFCURVE",
"567 446 CURVE SMOOTH",
"567 588 OFFCURVE",
"499 662 OFFCURVE",
"365 662 CURVE SMOOTH",
"137 662 OFFCURVE",
"51 386 OFFCURVE",
"51 204 CURVE SMOOTH",
"51 62 OFFCURVE",
"119 -12 OFFCURVE",
"253 -12 CURVE SMOOTH"
);
},
{
closed = 1;
nodes = (
"169 59 OFFCURVE",
"126 108 OFFCURVE",
"126 208 CURVE SMOOTH",
"126 347 OFFCURVE",
"190 591 OFFCURVE",
"364 591 CURVE SMOOTH",
"449 591 OFFCURVE",
"492 542 OFFCURVE",
"492 442 CURVE SMOOTH",
"492 303 OFFCURVE",
"428 59 OFFCURVE",
"254 59 CURVE SMOOTH"
);
}
);
width = 580;
},
{
anchors = (
{
name = bottom;
position = "{240, 0}";
},
{
name = center;
position = "{309, 325}";
},
{
name = ogonek;
position = "{482, 10}";
},
{
name = top;
position = "{378, 650}";
},
{
name = topleft;
position = "{98, 650}";
},
{
name = topright;
position = "{658, 650}";
}
);
associatedMasterId = "B9B856C8-1FA2-46F4-A929-F36A99765E59";
background = {
anchors = (
{
name = bottom;
position = "{240, 0}";
},
{
name = center;
position = "{309, 325}";
},
{
name = ogonek;
position = "{482, 10}";
},
{
name = top;
position = "{378, 650}";
},
{
name = topleft;
position = "{98, 650}";
},
{
name = topright;
position = "{658, 650}";
}
);
paths = (
{
closed = 1;
nodes = (
"400 -12 OFFCURVE",
"504 100 OFFCURVE",
"551 319 CURVE SMOOTH",
"599 544 OFFCURVE",
"538 662 OFFCURVE",
"375 662 CURVE SMOOTH",
"218 662 OFFCURVE",
"114 550 OFFCURVE",
"67 331 CURVE SMOOTH",
"20 106 OFFCURVE",
"80 -12 OFFCURVE",
"243 -12 CURVE SMOOTH"
);
},
{
closed = 1;
nodes = (
"138 59 OFFCURVE",
"104 144 OFFCURVE",
"141 319 CURVE SMOOTH",
"179 500 OFFCURVE",
"257 591 OFFCURVE",
"371 591 CURVE SMOOTH",
"481 591 OFFCURVE",
"515 506 OFFCURVE",
"477 331 CURVE SMOOTH",
"439 150 OFFCURVE",
"362 59 OFFCURVE",
"247 59 CURVE SMOOTH"
);
}
);
};
backgroundImage = {
crop = "{{0, 0}, {82.38, 144.54}}";
imagePath = "scan-image/scan2017-1-CO.png";
transform = "{8.62745, 0, 3.66764, 8.62745, -271.914, -327}";
};
layerId = "41FA0189-5E4B-43D4-8503-1DC8662BD953";
name = slanted;
paths = (
{
closed = 1;
nodes = (
"397 -12 OFFCURVE",
"505 103 OFFCURVE",
"552 325 CURVE SMOOTH",
"599 547 OFFCURVE",
"541 662 OFFCURVE",
"381 662 CURVE SMOOTH",
"221 662 OFFCURVE",
"113 547 OFFCURVE",
"66 325 CURVE SMOOTH",
"19 103 OFFCURVE",
"77 -12 OFFCURVE",
"237 -12 CURVE SMOOTH"
);
},
{
closed = 1;
nodes = (
"141 59 OFFCURVE",
"104 147 OFFCURVE",
"142 325 CURVE SMOOTH",
"180 503 OFFCURVE",
"254 591 OFFCURVE",
"366 591 CURVE SMOOTH",
"478 591 OFFCURVE",
"514 503 OFFCURVE",
"476 325 CURVE SMOOTH",
"438 147 OFFCURVE",
"365 59 OFFCURVE",
"253 59 CURVE SMOOTH"
);
}
);
width = 580;
},
{
anchors = (
{
name = bottom;
position = "{240, 0}";
},
{
name = center;
position = "{309, 325}";
},
{
name = ogonek;
position = "{482, 10}";
},
{
name = top;
position = "{378, 650}";
},
{
name = topleft;
position = "{98, 650}";
},
{
name = topright;
position = "{658, 650}";
}
);
associatedMasterId = "B9B856C8-1FA2-46F4-A929-F36A99765E59";
background = {
anchors = (
{
name = bottom;
position = "{240, 0}";
},
{
name = center;
position = "{309, 325}";
},
{
name = ogonek;
position = "{482, 10}";
},
{
name = top;
position = "{378, 650}";
},
{
name = topleft;
position = "{98, 650}";
},
{
name = topright;
position = "{658, 650}";
}
);
paths = (
{
closed = 1;
nodes = (
"397 -12 OFFCURVE",
"505 103 OFFCURVE",
"552 325 CURVE SMOOTH",
"599 547 OFFCURVE",
"541 662 OFFCURVE",
"381 662 CURVE SMOOTH",
"221 662 OFFCURVE",
"113 547 OFFCURVE",
"66 325 CURVE SMOOTH",
"19 103 OFFCURVE",
"77 -12 OFFCURVE",
"237 -12 CURVE SMOOTH"
);
},
{
closed = 1;
nodes = (
"141 59 OFFCURVE",
"104 147 OFFCURVE",
"142 325 CURVE SMOOTH",
"180 503 OFFCURVE",
"254 591 OFFCURVE",
"366 591 CURVE SMOOTH",
"478 591 OFFCURVE",
"514 503 OFFCURVE",
"476 325 CURVE SMOOTH",
"438 147 OFFCURVE",
"365 59 OFFCURVE",
"253 59 CURVE SMOOTH"
);
}
);
};
backgroundImage = {
crop = "{{0, 0}, {82.38, 144.54}}";
imagePath = "scan-image/scan2017-1-CO.png";
transform = "{8.62745, 0, 3.66764, 8.62745, -271.914, -327}";
};
layerId = "764E917C-2421-4259-AD1F-2E3B172A03B7";
name = cursify;
paths = (
{
closed = 1;
nodes = (
"400 -12 OFFCURVE",
"504 100 OFFCURVE",
"551 319 CURVE SMOOTH",
"599 544 OFFCURVE",
"538 662 OFFCURVE",
"375 662 CURVE SMOOTH",
"218 662 OFFCURVE",
"114 550 OFFCURVE",
"67 331 CURVE SMOOTH",
"20 106 OFFCURVE",
"80 -12 OFFCURVE",
"243 -12 CURVE SMOOTH"
);
},
{
closed = 1;
nodes = (
"138 59 OFFCURVE",
"104 144 OFFCURVE",
"141 319 CURVE SMOOTH",
"179 500 OFFCURVE",
"257 591 OFFCURVE",
"371 591 CURVE SMOOTH",
"481 591 OFFCURVE",
"515 506 OFFCURVE",
"477 331 CURVE SMOOTH",
"439 150 OFFCURVE",
"362 59 OFFCURVE",
"247 59 CURVE SMOOTH"
);
}
);
width = 580;
},
{
anchors = (
{
name = bottom;
position = "{239, 0}";
},
{
name = center;
position = "{308, 325}";
},
{
name = ogonek;
position = "{482, 10}";
},
{
name = top;
position = "{378, 650}";
},
{
name = topleft;
position = "{98, 650}";
},
{
name = topright;
position = "{658, 650}";
}
);
background = {
anchors = (
{
name = bottom;
position = "{239, 0}";
},
{
name = center;
position = "{308, 325}";
},
{
name = ogonek;
position = "{482, 10}";
},
{
name = top;
position = "{378, 650}";
},
{
name = topleft;
position = "{98, 650}";
},
{
name = topright;
position = "{658, 650}";
}
);
paths = (
{
closed = 1;
nodes = (
"405 -16 OFFCURVE",
"513 93 OFFCURVE",
"559 313 CURVE SMOOTH",
"608 535 OFFCURVE",
"544 654 OFFCURVE",
"376 660 CURVE SMOOTH",
"212 666 OFFCURVE",
"104 557 OFFCURVE",
"57 337 CURVE SMOOTH",
"9 115 OFFCURVE",
"73 -4 OFFCURVE",
"241 -10 CURVE SMOOTH"
);
},
{
closed = 1;
nodes = (
"171 104 OFFCURVE",
"145 177 OFFCURVE",
"177 322 CURVE SMOOTH",
"210 477 OFFCURVE",
"272 552 OFFCURVE",
"362 548 CURVE SMOOTH",
"446 546 OFFCURVE",
"472 473 OFFCURVE",
"440 328 CURVE SMOOTH",
"407 173 OFFCURVE",
"345 98 OFFCURVE",
"255 102 CURVE SMOOTH"
);
}
);
};
backgroundImage = {
crop = "{{0, 0}, {82.38, 144.54}}";
imagePath = "scan-image/scan2017-1-CO.png";
transform = "{7.39665, 0, 15.93752, 7.39665, -1094.512, -276}";
};
layerId = "27302DAC-E04E-41A7-B2D2-BD8305143A0A";
paths = (
{
closed = 1;
nodes = (
"487 -12 OFFCURVE",
"574 255 OFFCURVE",
"574 443 CURVE SMOOTH",
"574 588 OFFCURVE",
"503 662 OFFCURVE",
"362 662 CURVE SMOOTH",
"129 662 OFFCURVE",
"42 395 OFFCURVE",
"42 208 CURVE SMOOTH",
"42 62 OFFCURVE",
"113 -12 OFFCURVE",
"254 -12 CURVE SMOOTH"
);
},
{
closed = 1;
nodes = (
"196 100 OFFCURVE",
"164 138 OFFCURVE",
"164 218 CURVE SMOOTH",
"164 327 OFFCURVE",
"215 550 OFFCURVE",
"354 550 CURVE SMOOTH",
"420 550 OFFCURVE",
"452 512 OFFCURVE",
"452 431 CURVE SMOOTH",
"452 323 OFFCURVE",
"401 100 OFFCURVE",
"262 100 CURVE SMOOTH"
);
}
);
width = 580;
},
{
anchors = (
{
name = bottom;
position = "{239, 0}";
},
{
name = center;
position = "{308, 325}";
},
{
name = ogonek;
position = "{482, 10}";
},
{
name = top;
position = "{378, 650}";
},
{
name = topleft;
position = "{98, 650}";
},
{
name = topright;
position = "{658, 650}";
}
);
associatedMasterId = "27302DAC-E04E-41A7-B2D2-BD8305143A0A";
background = {
anchors = (
{
name = bottom;
position = "{239, 0}";
},
{
name = center;
position = "{308, 325}";
},
{
name = ogonek;
position = "{482, 10}";
},
{
name = top;
position = "{378, 650}";
},
{
name = topleft;
position = "{98, 650}";
},
{
name = topright;
position = "{658, 650}";
}
);
paths = (
{
closed = 1;
nodes = (
"407 -12 OFFCURVE",
"512 98 OFFCURVE",
"558 315 CURVE SMOOTH",
"607 542 OFFCURVE",
"542 662 OFFCURVE",
"371 662 CURVE SMOOTH",
"210 662 OFFCURVE",
"105 552 OFFCURVE",
"59 335 CURVE SMOOTH",
"10 108 OFFCURVE",
"75 -12 OFFCURVE",
"246 -12 CURVE SMOOTH"
);
},
{
closed = 1;
nodes = (
"169 100 OFFCURVE",
"145 169 OFFCURVE",
"176 315 CURVE SMOOTH",
"210 471 OFFCURVE",
"274 550 OFFCURVE",
"365 550 CURVE SMOOTH",
"448 550 OFFCURVE",
"472 481 OFFCURVE",
"441 335 CURVE SMOOTH",
"407 179 OFFCURVE",
"343 100 OFFCURVE",
"252 100 CURVE SMOOTH"
);
}
);
};
backgroundImage = {
crop = "{{0, 0}, {82.38, 144.54}}";
imagePath = "scan-image/scan2017-1-CO.png";
transform = "{7.39665, 0, 14.36531, 7.39665, -985.258, -276}";
};
layerId = "FB57FBD3-F82A-49F0-95D1-0E985F7CCC75";
name = slanted;
paths = (
{
closed = 1;
nodes = (
"403 -12 OFFCURVE",
"513 103 OFFCURVE",
"560 325 CURVE SMOOTH",
"608 547 OFFCURVE",
"546 662 OFFCURVE",
"380 662 CURVE SMOOTH",
"214 662 OFFCURVE",
"104 547 OFFCURVE",
"56 325 CURVE SMOOTH",
"9 103 OFFCURVE",
"71 -12 OFFCURVE",
"237 -12 CURVE SMOOTH"
);
},
{
closed = 1;
nodes = (
"174 100 OFFCURVE",
"146 174 OFFCURVE",
"178 325 CURVE SMOOTH",
"211 476 OFFCURVE",
"269 550 OFFCURVE",
"356 550 CURVE SMOOTH",
"443 550 OFFCURVE",
"471 476 OFFCURVE",
"438 325 CURVE SMOOTH",
"406 174 OFFCURVE",
"348 100 OFFCURVE",
"261 100 CURVE SMOOTH"
);
}
);
width = 580;
},
{
anchors = (
{
name = bottom;
position = "{239, 0}";
},
{
name = center;
position = "{308, 325}";
},
{
name = ogonek;
position = "{482, 10}";
},
{
name = top;
position = "{378, 650}";
},
{
name = topleft;
position = "{98, 650}";
},
{
name = topright;
position = "{658, 650}";
}
);
associatedMasterId = "27302DAC-E04E-41A7-B2D2-BD8305143A0A";
background = {
anchors = (
{
name = bottom;
position = "{239, 0}";
},
{
name = center;
position = "{308, 325}";
},
{
name = ogonek;
position = "{482, 10}";
},
{
name = top;
position = "{378, 650}";
},
{
name = topleft;
position = "{98, 650}";
},
{
name = topright;
position = "{658, 650}";
}
);
paths = (
{
closed = 1;
nodes = (
"403 -12 OFFCURVE",
"513 103 OFFCURVE",
"560 325 CURVE SMOOTH",
"608 547 OFFCURVE",
"546 662 OFFCURVE",
"380 662 CURVE SMOOTH",
"214 662 OFFCURVE",
"104 547 OFFCURVE",
"56 325 CURVE SMOOTH",
"9 103 OFFCURVE",
"71 -12 OFFCURVE",
"237 -12 CURVE SMOOTH"
);
},
{
closed = 1;
nodes = (
"174 100 OFFCURVE",
"146 174 OFFCURVE",
"178 325 CURVE SMOOTH",
"211 476 OFFCURVE",
"269 550 OFFCURVE",
"356 550 CURVE SMOOTH",
"443 550 OFFCURVE",
"471 476 OFFCURVE",
"438 325 CURVE SMOOTH",
"406 174 OFFCURVE",
"348 100 OFFCURVE",
"261 100 CURVE SMOOTH"
);
}
);
};
backgroundImage = {
crop = "{{0, 0}, {82.38, 144.54}}";
imagePath = "scan-image/scan2017-1-CO.png";
transform = "{7.39665, 0, 14.36531, 7.39665, -985.258, -276}";
};
layerId = "01A7A0E4-0AF1-48CB-97ED-288FB7FC0E45";
name = cursify;
paths = (
{
closed = 1;
nodes = (
"407 -12 OFFCURVE",
"512 98 OFFCURVE",
"558 315 CURVE SMOOTH",
"607 542 OFFCURVE",
"542 662 OFFCURVE",
"371 662 CURVE SMOOTH",
"210 662 OFFCURVE",
"105 552 OFFCURVE",
"59 335 CURVE SMOOTH",
"10 108 OFFCURVE",
"75 -12 OFFCURVE",
"246 -12 CURVE SMOOTH"
);
},
{
closed = 1;
nodes = (
"169 100 OFFCURVE",
"145 169 OFFCURVE",
"176 315 CURVE SMOOTH",
"210 471 OFFCURVE",
"274 550 OFFCURVE",
"365 550 CURVE SMOOTH",
"448 550 OFFCURVE",
"472 481 OFFCURVE",
"441 335 CURVE SMOOTH",
"407 179 OFFCURVE",
"343 100 OFFCURVE",
"252 100 CURVE SMOOTH"
);
}
);
width = 580;
}
);
unicode = 004F;
},
{
color = 0;
glyphname = OE;
layers = (
{
anchors = (
{
name = bottom;
position = "{238, 0}";
},
{
name = top;
position = "{377, 650}";
}
);
background = {
anchors = (
{
name = bottom;
position = "{238, 0}";
},
{
name = top;
position = "{377, 650}";
}
);
paths = (
{
closed = 1;
nodes = (
"233 0 LINE",
"255 100 LINE",
"237 100 LINE SMOOTH",
"160 100 OFFCURVE",
"115 147 OFFCURVE",
"149 325 CURVE SMOOTH",
"184 503 OFFCURVE",
"247 550 OFFCURVE",
"324 550 CURVE SMOOTH",
"350 550 LINE",
"372 650 LINE",
"334 650 LINE SMOOTH",
"180 650 OFFCURVE",
"82 543 OFFCURVE",
"42 335 CURVE SMOOTH",
"-1 117 OFFCURVE",
"62 0 OFFCURVE",
"213 0 CURVE SMOOTH"
);
},
{
closed = 1;
nodes = (
"512 0 LINE",
"534 100 LINE",
"343 100 LINE",
"321 0 LINE"
);
},
{
closed = 1;
nodes = (
"331 0 LINE",
"470 650 LINE",
"362 650 LINE",
"223 0 LINE"
);
},
{
closed = 1;
nodes = (
"543 281 LINE",
"564 381 LINE",
"402 381 LINE",
"381 281 LINE"
);
},
{
closed = 1;
nodes = (
"629 550 LINE",
"651 650 LINE",
"460 650 LINE",
"438 550 LINE"
);
}
);
};
layerId = "27302DAC-E04E-41A7-B2D2-BD8305143A0A";
paths = (
{
closed = 1;
nodes = (
"512 0 LINE",
"534 100 LINE",
"352 100 LINE",
"391 281 LINE",
"543 281 LINE",
"564 381 LINE",
"412 381 LINE",
"449 550 LINE",
"629 550 LINE",
"651 650 LINE",
"334 650 LINE SMOOTH",
"106 650 OFFCURVE",
"29 396 OFFCURVE",
"29 213 CURVE SMOOTH",
"29 73 OFFCURVE",
"93 0 OFFCURVE",
"213 0 CURVE SMOOTH"
);
},
{
closed = 1;
nodes = (
"169 100 OFFCURVE",
"138 138 OFFCURVE",
"138 222 CURVE SMOOTH",
"138 351 OFFCURVE",
"184 550 OFFCURVE",
"324 550 CURVE SMOOTH",
"341 550 LINE",
"244 100 LINE",
"237 100 LINE SMOOTH"
);
}
);
width = 580;
},
{
anchors = (
{
name = bottom;
position = "{240, 0}";
},
{
name = top;
position = "{378, 650}";
}
);
background = {
anchors = (
{
name = bottom;
position = "{240, 0}";
},
{
name = top;
position = "{378, 650}";
}
);
paths = (
{
closed = 1;
nodes = (
"248 0 LINE",
"263 69 LINE",
"234 69 LINE SMOOTH",
"135 69 OFFCURVE",
"87 132 OFFCURVE",
"125 322 CURVE SMOOTH",
"163 516 OFFCURVE",
"238 581 OFFCURVE",
"337 581 CURVE SMOOTH",
"372 581 LINE",
"386 650 LINE",
"339 650 LINE SMOOTH",
"190 650 OFFCURVE",
"92 543 OFFCURVE",
"51 331 CURVE SMOOTH",
"9 113 OFFCURVE",
"68 0 OFFCURVE",
"215 0 CURVE SMOOTH"
);
},
{
closed = 1;
nodes = (
"510 0 LINE",
"525 69 LINE",
"315 69 LINE",
"300 0 LINE"
);
},
{
closed = 1;
nodes = (
"310 0 LINE",
"448 650 LINE",
"376 650 LINE",
"238 0 LINE"
);
},
{
closed = 1;
nodes = (
"544 297 LINE",
"559 365 LINE",
"378 365 LINE",
"363 297 LINE"
);
},
{
closed = 1;
nodes = (
"634 581 LINE",
"648 650 LINE",
"438 650 LINE",
"424 581 LINE"
);
}
);
};
layerId = "B9B856C8-1FA2-46F4-A929-F36A99765E59";
paths = (
{
closed = 1;
nodes = (
"510 0 LINE",
"525 69 LINE",
"325 69 LINE",
"373 297 LINE",
"544 297 LINE",
"559 365 LINE",
"387 365 LINE",
"433 581 LINE",
"634 581 LINE",
"648 650 LINE",
"339 650 LINE SMOOTH",
"115 650 OFFCURVE",
"38 389 OFFCURVE",
"38 207 CURVE SMOOTH",
"38 71 OFFCURVE",
"99 0 OFFCURVE",
"215 0 CURVE SMOOTH"
);
},
{
closed = 1;
nodes = (
"151 69 OFFCURVE",
"112 114 OFFCURVE",
"112 210 CURVE SMOOTH",
"112 357 OFFCURVE",
"170 581 OFFCURVE",
"337 581 CURVE SMOOTH",
"361 581 LINE",
"253 69 LINE",
"234 69 LINE SMOOTH"
);
}
);
width = 580;
},
{
anchors = (
{
name = bottom;
position = "{238, 0}";
},
{
name = top;
position = "{377, 650}";
}
);
associatedMasterId = "27302DAC-E04E-41A7-B2D2-BD8305143A0A";
background = {
anchors = (
{
name = bottom;
position = "{238, 0}";
},
{
name = top;
position = "{377, 650}";
}
);
paths = (
{
closed = 1;
nodes = (
"223 0 LINE",
"245 100 LINE",
"228 100 LINE SMOOTH",
"151 100 OFFCURVE",
"111 142 OFFCURVE",
"147 315 CURVE SMOOTH",
"186 498 OFFCURVE",
"256 550 OFFCURVE",
"333 550 CURVE SMOOTH",
"340 550 LINE",
"362 650 LINE",
"340 650 LINE SMOOTH",
"186 650 OFFCURVE",
"86 543 OFFCURVE",
"42 335 CURVE SMOOTH",
"-5 117 OFFCURVE",
"56 0 OFFCURVE",
"207 0 CURVE SMOOTH"
);
},
{
closed = 1;
nodes = (
"512 0 LINE",
"534 100 LINE",
"353 100 LINE",
"331 0 LINE"
);
},
{
closed = 1;
nodes = (
"331 0 LINE",
"470 650 LINE",
"362 650 LINE",
"223 0 LINE"
);
},
{
closed = 1;
nodes = (
"543 281 LINE",
"564 381 LINE",
"412 381 LINE",
"391 281 LINE"
);
},
{
closed = 1;
nodes = (
"629 550 LINE",
"651 650 LINE",
"470 650 LINE",
"448 550 LINE"
);
}
);
};
layerId = "393A353C-A365-48C7-A0EB-6F635D11302B";
name = slanted;
paths = (
{
closed = 1;
nodes = (
"223 0 LINE",
"245 100 LINE",
"233 100 LINE SMOOTH",
"156 100 OFFCURVE",
"112 147 OFFCURVE",
"149 325 CURVE SMOOTH",
"187 503 OFFCURVE",
"251 550 OFFCURVE",
"328 550 CURVE SMOOTH",
"340 550 LINE",
"362 650 LINE",
"345 650 LINE SMOOTH",
"191 650 OFFCURVE",
"85 538 OFFCURVE",
"39 325 CURVE SMOOTH",
"-6 112 OFFCURVE",
"51 0 OFFCURVE",
"202 0 CURVE SMOOTH"
);
},
{
closed = 1;
nodes = (
"512 0 LINE",
"534 100 LINE",
"353 100 LINE",
"331 0 LINE"
);
},
{
closed = 1;
nodes = (
"331 0 LINE",
"470 650 LINE",
"362 650 LINE",
"223 0 LINE"
);
},
{
closed = 1;
nodes = (
"543 281 LINE",
"564 381 LINE",
"412 381 LINE",
"391 281 LINE"
);
},
{
closed = 1;
nodes = (
"629 550 LINE",
"651 650 LINE",
"470 650 LINE",
"448 550 LINE"
);
}
);
width = 580;
},
{
anchors = (
{
name = bottom;
position = "{238, 0}";
},
{
name = top;
position = "{377, 650}";
}
);
associatedMasterId = "27302DAC-E04E-41A7-B2D2-BD8305143A0A";
background = {
anchors = (
{
name = bottom;
position = "{238, 0}";
},
{
name = top;
position = "{377, 650}";
}
);
paths = (
{
closed = 1;
nodes = (
"223 0 LINE",
"245 100 LINE",
"233 100 LINE SMOOTH",
"156 100 OFFCURVE",
"112 147 OFFCURVE",
"149 325 CURVE SMOOTH",
"187 503 OFFCURVE",
"251 550 OFFCURVE",
"328 550 CURVE SMOOTH",
"340 550 LINE",
"362 650 LINE",
"345 650 LINE SMOOTH",
"191 650 OFFCURVE",
"85 538 OFFCURVE",
"39 325 CURVE SMOOTH",
"-6 112 OFFCURVE",
"51 0 OFFCURVE",
"202 0 CURVE SMOOTH"
);
},
{
closed = 1;
nodes = (
"512 0 LINE",
"534 100 LINE",
"353 100 LINE",
"331 0 LINE"
);
},
{
closed = 1;
nodes = (
"331 0 LINE",
"470 650 LINE",
"362 650 LINE",
"223 0 LINE"
);
},
{
closed = 1;
nodes = (
"543 281 LINE",
"564 381 LINE",
"412 381 LINE",
"391 281 LINE"
);
},
{
closed = 1;
nodes = (
"629 550 LINE",
"651 650 LINE",
"470 650 LINE",
"448 550 LINE"
);
}
);
};
layerId = "C808C4BE-A070-4104-B448-ADBB8BE384A6";
name = cursify;
paths = (
{
closed = 1;
nodes = (
"223 0 LINE",
"245 100 LINE",
"228 100 LINE SMOOTH",
"151 100 OFFCURVE",
"111 142 OFFCURVE",
"147 315 CURVE SMOOTH",
"186 498 OFFCURVE",
"256 550 OFFCURVE",
"333 550 CURVE SMOOTH",
"340 550 LINE",
"362 650 LINE",
"340 650 LINE SMOOTH",
"186 650 OFFCURVE",
"86 543 OFFCURVE",
"42 335 CURVE SMOOTH",
"-5 117 OFFCURVE",
"56 0 OFFCURVE",
"207 0 CURVE SMOOTH"
);
},
{
closed = 1;
nodes = (
"512 0 LINE",
"534 100 LINE",
"353 100 LINE",
"331 0 LINE"
);
},
{
closed = 1;
nodes = (
"331 0 LINE",
"470 650 LINE",
"362 650 LINE",
"223 0 LINE"
);
},
{
closed = 1;
nodes = (
"543 281 LINE",
"564 381 LINE",
"412 381 LINE",
"391 281 LINE"
);
},
{
closed = 1;
nodes = (
"629 550 LINE",
"651 650 LINE",
"470 650 LINE",
"448 550 LINE"
);
}
);
width = 580;
},
{
anchors = (
{
name = bottom;
position = "{240, 0}";
},
{
name = top;
position = "{378, 650}";
}
);
associatedMasterId = "B9B856C8-1FA2-46F4-A929-F36A99765E59";
background = {
anchors = (
{
name = bottom;
position = "{240, 0}";
},
{
name = top;
position = "{378, 650}";
}
);
paths = (
{
closed = 1;
nodes = (
"238 0 LINE",
"253 69 LINE",
"228 69 LINE SMOOTH",
"129 69 OFFCURVE",
"84 130 OFFCURVE",
"124 319 CURVE SMOOTH",
"165 514 OFFCURVE",
"243 581 OFFCURVE",
"342 581 CURVE SMOOTH",
"362 581 LINE",
"376 650 LINE",
"345 650 LINE SMOOTH",
"196 650 OFFCURVE",
"96 543 OFFCURVE",
"51 331 CURVE SMOOTH",
"5 113 OFFCURVE",
"62 0 OFFCURVE",
"209 0 CURVE SMOOTH"
);
},
{
closed = 1;
nodes = (
"510 0 LINE",
"525 69 LINE",
"325 69 LINE",
"310 0 LINE"
);
},
{
closed = 1;
nodes = (
"310 0 LINE",
"448 650 LINE",
"376 650 LINE",
"238 0 LINE"
);
},
{
closed = 1;
nodes = (
"544 297 LINE",
"559 365 LINE",
"388 365 LINE",
"373 297 LINE"
);
},
{
closed = 1;
nodes = (
"634 581 LINE",
"648 650 LINE",
"448 650 LINE",
"434 581 LINE"
);
}
);
};
layerId = "B3F89A60-E61F-4E07-A014-3778997F67D4";
name = slanted;
paths = (
{
closed = 1;
nodes = (
"238 0 LINE",
"253 69 LINE",
"231 69 LINE SMOOTH",
"132 69 OFFCURVE",
"84 133 OFFCURVE",
"125 325 CURVE SMOOTH",
"166 517 OFFCURVE",
"241 581 OFFCURVE",
"340 581 CURVE SMOOTH",
"362 581 LINE",
"376 650 LINE",
"348 650 LINE SMOOTH",
"199 650 OFFCURVE",
"96 540 OFFCURVE",
"50 325 CURVE SMOOTH",
"4 110 OFFCURVE",
"59 0 OFFCURVE",
"206 0 CURVE SMOOTH"
);
},
{
closed = 1;
nodes = (
"510 0 LINE",
"525 69 LINE",
"325 69 LINE",
"310 0 LINE"
);
},
{
closed = 1;
nodes = (
"310 0 LINE",
"448 650 LINE",
"376 650 LINE",
"238 0 LINE"
);
},
{
closed = 1;
nodes = (
"544 297 LINE",
"559 365 LINE",
"388 365 LINE",
"373 297 LINE"
);
},
{
closed = 1;
nodes = (
"634 581 LINE",
"648 650 LINE",
"448 650 LINE",
"434 581 LINE"
);
}
);
width = 580;
},
{
anchors = (
{
name = bottom;
position = "{240, 0}";
},
{
name = top;
position = "{378, 650}";
}
);
associatedMasterId = "B9B856C8-1FA2-46F4-A929-F36A99765E59";
background = {
anchors = (
{
name = bottom;
position = "{240, 0}";
},
{
name = top;
position = "{378, 650}";
}
);
paths = (
{
closed = 1;
nodes = (
"238 0 LINE",
"253 69 LINE",
"231 69 LINE SMOOTH",
"132 69 OFFCURVE",
"84 133 OFFCURVE",
"125 325 CURVE SMOOTH",
"166 517 OFFCURVE",
"241 581 OFFCURVE",
"340 581 CURVE SMOOTH",
"362 581 LINE",
"376 650 LINE",
"348 650 LINE SMOOTH",
"199 650 OFFCURVE",
"96 540 OFFCURVE",
"50 325 CURVE SMOOTH",
"4 110 OFFCURVE",
"59 0 OFFCURVE",
"206 0 CURVE SMOOTH"
);
},
{
closed = 1;
nodes = (
"510 0 LINE",
"525 69 LINE",
"325 69 LINE",
"310 0 LINE"
);
},
{
closed = 1;
nodes = (
"310 0 LINE",
"448 650 LINE",
"376 650 LINE",
"238 0 LINE"
);
},
{
closed = 1;
nodes = (
"544 297 LINE",
"559 365 LINE",
"388 365 LINE",
"373 297 LINE"
);
},
{
closed = 1;
nodes = (
"634 581 LINE",
"648 650 LINE",
"448 650 LINE",
"434 581 LINE"
);
}
);
};
layerId = "D0585C74-8C62-492E-832E-EA5E877EB620";
name = cursify;
paths = (
{
closed = 1;
nodes = (
"238 0 LINE",
"253 69 LINE",
"228 69 LINE SMOOTH",
"129 69 OFFCURVE",
"84 130 OFFCURVE",
"124 319 CURVE SMOOTH",
"165 514 OFFCURVE",
"243 581 OFFCURVE",
"342 581 CURVE SMOOTH",
"362 581 LINE",
"376 650 LINE",
"345 650 LINE SMOOTH",
"196 650 OFFCURVE",
"96 543 OFFCURVE",
"51 331 CURVE SMOOTH",
"5 113 OFFCURVE",
"62 0 OFFCURVE",
"209 0 CURVE SMOOTH"
);
},
{
closed = 1;
nodes = (
"510 0 LINE",
"525 69 LINE",
"325 69 LINE",
"310 0 LINE"
);
},
{
closed = 1;
nodes = (
"310 0 LINE",
"448 650 LINE",
"376 650 LINE",
"238 0 LINE"
);
},
{
closed = 1;
nodes = (
"544 297 LINE",
"559 365 LINE",
"388 365 LINE",
"373 297 LINE"
);
},
{
closed = 1;
nodes = (
"634 581 LINE",
"648 650 LINE",
"448 650 LINE",
"434 581 LINE"
);
}
);
width = 580;
}
);
unicode = 0152;
},
{
color = 0;
glyphname = P;
layers = (
{
anchors = (
{
name = bottom;
position = "{238, 0}";
},
{
name = top;
position = "{377, 650}";
}
);
background = {
anchors = (
{
name = bottom;
position = "{238, 0}";
},
{
name = top;
position = "{377, 650}";
}
);
paths = (
{
closed = 1;
nodes = (
"338 258 LINE SMOOTH",
"476 258 OFFCURVE",
"558 321 OFFCURVE",
"582 442 CURVE SMOOTH",
"608 575 OFFCURVE",
"542 650 OFFCURVE",
"404 650 CURVE SMOOTH",
"278 650 LINE",
"254 540 LINE",
"377 540 LINE SMOOTH",
"449 540 OFFCURVE",
"474 515 OFFCURVE",
"462 454 CURVE SMOOTH",
"450 393 OFFCURVE",
"417 368 OFFCURVE",
"345 368 CURVE SMOOTH",
"218 368 LINE",
"194 258 LINE"
);
},
{
closed = 1;
nodes = (
"149 0 LINE",
"288 650 LINE",
"167 650 LINE",
"28 0 LINE"
);
}
);
};
layerId = "27302DAC-E04E-41A7-B2D2-BD8305143A0A";
paths = (
{
closed = 1;
nodes = (
"149 0 LINE",
"204 258 LINE",
"338 258 LINE SMOOTH",
"496 258 OFFCURVE",
"588 346 OFFCURVE",
"588 496 CURVE SMOOTH",
"588 595 OFFCURVE",
"522 650 OFFCURVE",
"404 650 CURVE SMOOTH",
"167 650 LINE",
"28 0 LINE"
);
},
{
closed = 1;
nodes = (
"264 540 LINE",
"377 540 LINE SMOOTH",
"439 540 OFFCURVE",
"465 522 OFFCURVE",
"465 480 CURVE SMOOTH",
"465 405 OFFCURVE",
"425 368 OFFCURVE",
"345 368 CURVE SMOOTH",
"228 368 LINE"
);
}
);
width = 580;
},
{
anchors = (
{
name = bottom;
position = "{242, 0}";
},
{
name = top;
position = "{380, 650}";
}
);
background = {
anchors = (
{
name = bottom;
position = "{242, 0}";
},
{
name = top;
position = "{380, 650}";
}
);
paths = (
{
closed = 1;
nodes = (
"342 278 LINE SMOOTH",
"475 278 OFFCURVE",
"551 337 OFFCURVE",
"574 456 CURVE SMOOTH",
"599 583 OFFCURVE",
"540 650 OFFCURVE",
"407 650 CURVE SMOOTH",
"242 650 LINE",
"227 580 LINE",
"387 580 LINE SMOOTH",
"483 580 OFFCURVE",
"516 546 OFFCURVE",
"500 464 CURVE SMOOTH",
"483 382 OFFCURVE",
"438 348 OFFCURVE",
"342 348 CURVE SMOOTH",
"178 348 LINE",
"163 278 LINE"
);
},
{
closed = 1;
nodes = (
"114 0 LINE",
"252 650 LINE",
"178 650 LINE",
"40 0 LINE"
);
}
);
};
layerId = "B9B856C8-1FA2-46F4-A929-F36A99765E59";
paths = (
{
closed = 1;
nodes = (
"114 0 LINE",
"173 278 LINE",
"342 278 LINE SMOOTH",
"494 278 OFFCURVE",
"580 361 OFFCURVE",
"580 509 CURVE SMOOTH",
"580 601 OFFCURVE",
"521 650 OFFCURVE",
"407 650 CURVE SMOOTH",
"178 650 LINE",
"40 0 LINE"
);
},
{
closed = 1;
nodes = (
"237 580 LINE",
"387 580 LINE SMOOTH",
"468 580 OFFCURVE",
"504 555 OFFCURVE",
"504 500 CURVE SMOOTH",
"504 400 OFFCURVE",
"448 348 OFFCURVE",
"342 348 CURVE SMOOTH",
"188 348 LINE"
);
}
);
width = 580;
},
{
anchors = (
{
name = bottom;
position = "{242, 0}";
},
{
name = top;
position = "{380, 650}";
}
);
associatedMasterId = "B9B856C8-1FA2-46F4-A929-F36A99765E59";
background = {
anchors = (
{
name = bottom;
position = "{242, 0}";
},
{
name = top;
position = "{380, 650}";
}
);
paths = (
{
closed = 1;
nodes = (
"338 278 LINE SMOOTH",
"471 278 OFFCURVE",
"549 338 OFFCURVE",
"574 458 CURVE SMOOTH",
"601 584 OFFCURVE",
"544 650 OFFCURVE",
"411 650 CURVE SMOOTH",
"252 650 LINE",
"237 580 LINE",
"392 580 LINE SMOOTH",
"488 580 OFFCURVE",
"518 549 OFFCURVE",
"501 470 CURVE SMOOTH",
"483 385 OFFCURVE",
"433 348 OFFCURVE",
"337 348 CURVE SMOOTH",
"188 348 LINE",
"173 278 LINE"
);
},
{
closed = 1;
nodes = (
"114 0 LINE",
"252 650 LINE",
"178 650 LINE",
"40 0 LINE"
);
}
);
};
layerId = "2CA01B21-E32E-46F0-86D4-B08B9F644F61";
name = slanted;
paths = (
{
closed = 1;
nodes = (
"335 278 LINE SMOOTH",
"468 278 OFFCURVE",
"550 341 OFFCURVE",
"576 464 CURVE SMOOTH",
"602 587 OFFCURVE",
"547 650 OFFCURVE",
"414 650 CURVE SMOOTH",
"252 650 LINE",
"237 580 LINE",
"389 580 LINE SMOOTH",
"485 580 OFFCURVE",
"517 546 OFFCURVE",
"500 464 CURVE SMOOTH",
"482 382 OFFCURVE",
"436 348 OFFCURVE",
"340 348 CURVE SMOOTH",
"188 348 LINE",
"173 278 LINE"
);
},
{
closed = 1;
nodes = (
"114 0 LINE",
"252 650 LINE",
"178 650 LINE",
"40 0 LINE"
);
}
);
width = 580;
},
{
anchors = (
{
name = bottom;
position = "{242, 0}";
},
{
name = top;
position = "{380, 650}";
}
);
associatedMasterId = "B9B856C8-1FA2-46F4-A929-F36A99765E59";
background = {
anchors = (
{
name = bottom;
position = "{242, 0}";
},
{
name = top;
position = "{380, 650}";
}
);
paths = (
{
closed = 1;
nodes = (
"335 278 LINE SMOOTH",
"468 278 OFFCURVE",
"550 341 OFFCURVE",
"576 464 CURVE SMOOTH",
"602 587 OFFCURVE",
"547 650 OFFCURVE",
"414 650 CURVE SMOOTH",
"252 650 LINE",
"237 580 LINE",
"389 580 LINE SMOOTH",
"485 580 OFFCURVE",
"517 546 OFFCURVE",
"500 464 CURVE SMOOTH",
"482 382 OFFCURVE",
"436 348 OFFCURVE",
"340 348 CURVE SMOOTH",
"188 348 LINE",
"173 278 LINE"
);
},
{
closed = 1;
nodes = (
"114 0 LINE",
"252 650 LINE",
"178 650 LINE",
"40 0 LINE"
);
}
);
};
layerId = "0C1F12B6-BAE1-4733-8038-AEFA92A5EA6B";
name = cursify;
paths = (
{
closed = 1;
nodes = (
"338 278 LINE SMOOTH",
"471 278 OFFCURVE",
"549 338 OFFCURVE",
"574 458 CURVE SMOOTH",
"601 584 OFFCURVE",
"544 650 OFFCURVE",
"411 650 CURVE SMOOTH",
"252 650 LINE",
"237 580 LINE",
"392 580 LINE SMOOTH",
"488 580 OFFCURVE",
"518 549 OFFCURVE",
"501 470 CURVE SMOOTH",
"483 385 OFFCURVE",
"433 348 OFFCURVE",
"337 348 CURVE SMOOTH",
"188 348 LINE",
"173 278 LINE"
);
},
{
closed = 1;
nodes = (
"114 0 LINE",
"252 650 LINE",
"178 650 LINE",
"40 0 LINE"
);
}
);
width = 580;
},
{
anchors = (
{
name = bottom;
position = "{238, 0}";
},
{
name = top;
position = "{377, 650}";
}
);
associatedMasterId = "27302DAC-E04E-41A7-B2D2-BD8305143A0A";
background = {
anchors = (
{
name = bottom;
position = "{238, 0}";
},
{
name = top;
position = "{377, 650}";
}
);
paths = (
{
closed = 1;
nodes = (
"334 258 LINE SMOOTH",
"472 258 OFFCURVE",
"556 322 OFFCURVE",
"582 444 CURVE SMOOTH",
"610 576 OFFCURVE",
"546 650 OFFCURVE",
"408 650 CURVE SMOOTH",
"288 650 LINE",
"264 540 LINE",
"384 540 LINE SMOOTH",
"456 540 OFFCURVE",
"476 520 OFFCURVE",
"464 464 CURVE SMOOTH",
"450 398 OFFCURVE",
"410 368 OFFCURVE",
"338 368 CURVE SMOOTH",
"228 368 LINE",
"204 258 LINE"
);
},
{
closed = 1;
nodes = (
"149 0 LINE",
"288 650 LINE",
"167 650 LINE",
"28 0 LINE"
);
}
);
};
layerId = "50A4596A-9A20-4176-BB05-F8148606EF75";
name = slanted;
paths = (
{
closed = 1;
nodes = (
"329 258 LINE SMOOTH",
"467 258 OFFCURVE",
"557 327 OFFCURVE",
"584 454 CURVE SMOOTH",
"611 581 OFFCURVE",
"551 650 OFFCURVE",
"413 650 CURVE SMOOTH",
"288 650 LINE",
"264 540 LINE",
"379 540 LINE SMOOTH",
"451 540 OFFCURVE",
"475 515 OFFCURVE",
"462 454 CURVE SMOOTH",
"449 393 OFFCURVE",
"415 368 OFFCURVE",
"343 368 CURVE SMOOTH",
"228 368 LINE",
"204 258 LINE"
);
},
{
closed = 1;
nodes = (
"149 0 LINE",
"288 650 LINE",
"167 650 LINE",
"28 0 LINE"
);
}
);
width = 580;
},
{
anchors = (
{
name = bottom;
position = "{238, 0}";
},
{
name = top;
position = "{377, 650}";
}
);
associatedMasterId = "27302DAC-E04E-41A7-B2D2-BD8305143A0A";
background = {
anchors = (
{
name = bottom;
position = "{238, 0}";
},
{
name = top;
position = "{377, 650}";
}
);
paths = (
{
closed = 1;
nodes = (
"329 258 LINE SMOOTH",
"467 258 OFFCURVE",
"557 327 OFFCURVE",
"584 454 CURVE SMOOTH",
"611 581 OFFCURVE",
"551 650 OFFCURVE",
"413 650 CURVE SMOOTH",
"288 650 LINE",
"264 540 LINE",
"379 540 LINE SMOOTH",
"451 540 OFFCURVE",
"475 515 OFFCURVE",
"462 454 CURVE SMOOTH",
"449 393 OFFCURVE",
"415 368 OFFCURVE",
"343 368 CURVE SMOOTH",
"228 368 LINE",
"204 258 LINE"
);
},
{
closed = 1;
nodes = (
"149 0 LINE",
"288 650 LINE",
"167 650 LINE",
"28 0 LINE"
);
}
);
};
layerId = "099C1A76-8D31-4B46-8FE3-3A6B992EA295";
name = cursify;
paths = (
{
closed = 1;
nodes = (
"334 258 LINE SMOOTH",
"472 258 OFFCURVE",
"556 322 OFFCURVE",
"582 444 CURVE SMOOTH",
"610 576 OFFCURVE",
"546 650 OFFCURVE",
"408 650 CURVE SMOOTH",
"288 650 LINE",
"264 540 LINE",
"384 540 LINE SMOOTH",
"456 540 OFFCURVE",
"476 520 OFFCURVE",
"464 464 CURVE SMOOTH",
"450 398 OFFCURVE",
"410 368 OFFCURVE",
"338 368 CURVE SMOOTH",
"228 368 LINE",
"204 258 LINE"
);
},
{
closed = 1;
nodes = (
"149 0 LINE",
"288 650 LINE",
"167 650 LINE",
"28 0 LINE"
);
}
);
width = 580;
}
);
unicode = 0050;
},
{
color = 0;
glyphname = Thorn;
layers = (
{
anchors = (
{
name = bottom;
position = "{238, 0}";
},
{
name = top;
position = "{377, 650}";
}
);
background = {
anchors = (
{
name = bottom;
position = "{238, 0}";
},
{
name = top;
position = "{377, 650}";
}
);
paths = (
{
closed = 1;
nodes = (
"149 0 LINE",
"288 650 LINE",
"167 650 LINE",
"28 0 LINE"
);
},
{
closed = 1;
nodes = (
"314 153 LINE SMOOTH",
"452 153 OFFCURVE",
"534 216 OFFCURVE",
"558 337 CURVE SMOOTH",
"584 470 OFFCURVE",
"518 545 OFFCURVE",
"380 545 CURVE SMOOTH",
"254 545 LINE",
"230 435 LINE",
"353 435 LINE SMOOTH",
"425 435 OFFCURVE",
"450 410 OFFCURVE",
"438 349 CURVE SMOOTH",
"426 288 OFFCURVE",
"393 263 OFFCURVE",
"321 263 CURVE SMOOTH",
"194 263 LINE",
"170 153 LINE"
);
}
);
};
layerId = "27302DAC-E04E-41A7-B2D2-BD8305143A0A";
paths = (
{
closed = 1;
nodes = (
"149 0 LINE",
"182 153 LINE",
"314 153 LINE SMOOTH",
"472 153 OFFCURVE",
"564 241 OFFCURVE",
"564 391 CURVE SMOOTH",
"564 490 OFFCURVE",
"498 545 OFFCURVE",
"380 545 CURVE SMOOTH",
"266 545 LINE",
"288 650 LINE",
"167 650 LINE",
"28 0 LINE"
);
},
{
closed = 1;
nodes = (
"242 435 LINE",
"353 435 LINE SMOOTH",
"415 435 OFFCURVE",
"441 417 OFFCURVE",
"441 375 CURVE SMOOTH",
"441 300 OFFCURVE",
"401 263 OFFCURVE",
"321 263 CURVE SMOOTH",
"205 263 LINE"
);
}
);
width = 580;
},
{
anchors = (
{
name = bottom;
position = "{242, 0}";
},
{
name = top;
position = "{380, 650}";
}
);
background = {
anchors = (
{
name = bottom;
position = "{242, 0}";
},
{
name = top;
position = "{380, 650}";
}
);
paths = (
{
closed = 1;
nodes = (
"114 0 LINE",
"252 650 LINE",
"178 650 LINE",
"40 0 LINE"
);
},
{
closed = 1;
nodes = (
"318 165 LINE SMOOTH",
"451 165 OFFCURVE",
"527 224 OFFCURVE",
"550 343 CURVE SMOOTH",
"575 470 OFFCURVE",
"516 537 OFFCURVE",
"383 537 CURVE SMOOTH",
"218 537 LINE",
"203 467 LINE",
"363 467 LINE SMOOTH",
"459 467 OFFCURVE",
"492 433 OFFCURVE",
"476 351 CURVE SMOOTH",
"460 269 OFFCURVE",
"414 235 OFFCURVE",
"318 235 CURVE SMOOTH",
"154 235 LINE",
"139 165 LINE"
);
}
);
};
hints = (
{
horizontal = 1;
origin = "{0, 12}";
target = up;
type = BottomGhost;
},
{
horizontal = 1;
origin = "{0, 1}";
target = "{1, 8}";
},
{
horizontal = 1;
origin = "{1, 0}";
target = "{0, 9}";
},
{
origin = "{1, 4}";
target = "{0, 5}";
},
{
horizontal = 1;
origin = "{0, 11}";
target = down;
type = TopGhost;
}
);
layerId = "B9B856C8-1FA2-46F4-A929-F36A99765E59";
paths = (
{
closed = 1;
nodes = (
"114 0 LINE",
"149 165 LINE",
"318 165 LINE SMOOTH",
"470 165 OFFCURVE",
"556 248 OFFCURVE",
"556 396 CURVE SMOOTH",
"556 488 OFFCURVE",
"497 537 OFFCURVE",
"383 537 CURVE SMOOTH",
"228 537 LINE",
"252 650 LINE",
"178 650 LINE",
"40 0 LINE"
);
},
{
closed = 1;
nodes = (
"213 467 LINE",
"363 467 LINE SMOOTH",
"444 467 OFFCURVE",
"480 442 OFFCURVE",
"480 387 CURVE SMOOTH",
"480 287 OFFCURVE",
"424 235 OFFCURVE",
"318 235 CURVE SMOOTH",
"164 235 LINE"
);
}
);
width = 580;
},
{
anchors = (
{
name = bottom;
position = "{238, 0}";
},
{
name = top;
position = "{377, 650}";
}
);
associatedMasterId = "27302DAC-E04E-41A7-B2D2-BD8305143A0A";
background = {
anchors = (
{
name = bottom;
position = "{238, 0}";
},
{
name = top;
position = "{377, 650}";
}
);
paths = (
{
closed = 1;
nodes = (
"311 153 LINE SMOOTH",
"449 153 OFFCURVE",
"534 217 OFFCURVE",
"559 339 CURVE SMOOTH",
"588 471 OFFCURVE",
"524 545 OFFCURVE",
"386 545 CURVE SMOOTH",
"265 545 LINE",
"242 435 LINE",
"361 435 LINE SMOOTH",
"433 435 OFFCURVE",
"454 415 OFFCURVE",
"442 359 CURVE SMOOTH",
"428 293 OFFCURVE",
"388 263 OFFCURVE",
"316 263 CURVE SMOOTH",
"205 263 LINE",
"182 153 LINE"
);
},
{
closed = 1;
nodes = (
"149 0 LINE",
"288 650 LINE",
"167 650 LINE",
"28 0 LINE"
);
}
);
};
layerId = "9A6DB50D-D353-404A-AB05-33701D12D9F5";
name = slanted;
paths = (
{
closed = 1;
nodes = (
"307 153 LINE SMOOTH",
"445 153 OFFCURVE",
"535 222 OFFCURVE",
"562 349 CURVE SMOOTH",
"589 476 OFFCURVE",
"528 545 OFFCURVE",
"390 545 CURVE SMOOTH",
"265 545 LINE",
"242 435 LINE",
"357 435 LINE SMOOTH",
"429 435 OFFCURVE",
"453 410 OFFCURVE",
"440 349 CURVE SMOOTH",
"427 288 OFFCURVE",
"392 263 OFFCURVE",
"320 263 CURVE SMOOTH",
"205 263 LINE",
"182 153 LINE"
);
},
{
closed = 1;
nodes = (
"149 0 LINE",
"288 650 LINE",
"167 650 LINE",
"28 0 LINE"
);
}
);
width = 580;
},
{
anchors = (
{
name = bottom;
position = "{238, 0}";
},
{
name = top;
position = "{377, 650}";
}
);
associatedMasterId = "27302DAC-E04E-41A7-B2D2-BD8305143A0A";
background = {
anchors = (
{
name = bottom;
position = "{238, 0}";
},
{
name = top;
position = "{377, 650}";
}
);
paths = (
{
closed = 1;
nodes = (
"307 153 LINE SMOOTH",
"445 153 OFFCURVE",
"535 222 OFFCURVE",
"562 349 CURVE SMOOTH",
"589 476 OFFCURVE",
"528 545 OFFCURVE",
"390 545 CURVE SMOOTH",
"265 545 LINE",
"242 435 LINE",
"357 435 LINE SMOOTH",
"429 435 OFFCURVE",
"453 410 OFFCURVE",
"440 349 CURVE SMOOTH",
"427 288 OFFCURVE",
"392 263 OFFCURVE",
"320 263 CURVE SMOOTH",
"205 263 LINE",
"182 153 LINE"
);
},
{
closed = 1;
nodes = (
"149 0 LINE",
"288 650 LINE",
"167 650 LINE",
"28 0 LINE"
);
}
);
};
layerId = "DAD2B9CA-8208-4C6C-B228-A3C5772F102F";
name = cursify;
paths = (
{
closed = 1;
nodes = (
"311 153 LINE SMOOTH",
"449 153 OFFCURVE",
"534 217 OFFCURVE",
"559 339 CURVE SMOOTH",
"588 471 OFFCURVE",
"524 545 OFFCURVE",
"386 545 CURVE SMOOTH",
"265 545 LINE",
"242 435 LINE",
"361 435 LINE SMOOTH",
"433 435 OFFCURVE",
"454 415 OFFCURVE",
"442 359 CURVE SMOOTH",
"428 293 OFFCURVE",
"388 263 OFFCURVE",
"316 263 CURVE SMOOTH",
"205 263 LINE",
"182 153 LINE"
);
},
{
closed = 1;
nodes = (
"149 0 LINE",
"288 650 LINE",
"167 650 LINE",
"28 0 LINE"
);
}
);
width = 580;
},
{
anchors = (
{
name = bottom;
position = "{242, 0}";
},
{
name = top;
position = "{380, 650}";
}
);
associatedMasterId = "B9B856C8-1FA2-46F4-A929-F36A99765E59";
background = {
anchors = (
{
name = bottom;
position = "{242, 0}";
},
{
name = top;
position = "{380, 650}";
}
);
paths = (
{
closed = 1;
nodes = (
"314 165 LINE SMOOTH",
"448 165 OFFCURVE",
"525 225 OFFCURVE",
"550 345 CURVE SMOOTH",
"577 471 OFFCURVE",
"521 537 OFFCURVE",
"387 537 CURVE SMOOTH",
"228 537 LINE",
"213 467 LINE",
"368 467 LINE SMOOTH",
"464 467 OFFCURVE",
"494 436 OFFCURVE",
"477 357 CURVE SMOOTH",
"459 272 OFFCURVE",
"409 235 OFFCURVE",
"313 235 CURVE SMOOTH",
"164 235 LINE",
"149 165 LINE"
);
},
{
closed = 1;
nodes = (
"114 0 LINE",
"252 650 LINE",
"178 650 LINE",
"40 0 LINE"
);
}
);
};
layerId = "B7547377-5584-4EBE-A313-9321CE80457F";
name = slanted;
paths = (
{
closed = 1;
nodes = (
"311 165 LINE SMOOTH",
"445 165 OFFCURVE",
"526 228 OFFCURVE",
"552 351 CURVE SMOOTH",
"578 474 OFFCURVE",
"524 537 OFFCURVE",
"390 537 CURVE SMOOTH",
"228 537 LINE",
"213 467 LINE",
"365 467 LINE SMOOTH",
"461 467 OFFCURVE",
"493 433 OFFCURVE",
"476 351 CURVE SMOOTH",
"458 269 OFFCURVE",
"412 235 OFFCURVE",
"316 235 CURVE SMOOTH",
"164 235 LINE",
"149 165 LINE"
);
},
{
closed = 1;
nodes = (
"114 0 LINE",
"252 650 LINE",
"178 650 LINE",
"40 0 LINE"
);
}
);
width = 580;
},
{
anchors = (
{
name = bottom;
position = "{242, 0}";
},
{
name = top;
position = "{380, 650}";
}
);
associatedMasterId = "B9B856C8-1FA2-46F4-A929-F36A99765E59";
background = {
anchors = (
{
name = bottom;
position = "{242, 0}";
},
{
name = top;
position = "{380, 650}";
}
);
paths = (
{
closed = 1;
nodes = (
"311 165 LINE SMOOTH",
"445 165 OFFCURVE",
"526 228 OFFCURVE",
"552 351 CURVE SMOOTH",
"578 474 OFFCURVE",
"524 537 OFFCURVE",
"390 537 CURVE SMOOTH",
"228 537 LINE",
"213 467 LINE",
"365 467 LINE SMOOTH",
"461 467 OFFCURVE",
"493 433 OFFCURVE",
"476 351 CURVE SMOOTH",
"458 269 OFFCURVE",
"412 235 OFFCURVE",
"316 235 CURVE SMOOTH",
"164 235 LINE",
"149 165 LINE"
);
},
{
closed = 1;
nodes = (
"114 0 LINE",
"252 650 LINE",
"178 650 LINE",
"40 0 LINE"
);
}
);
};
layerId = "B9F67DC5-F61A-4C94-A65B-E367CBA05F90";
name = cursify;
paths = (
{
closed = 1;
nodes = (
"314 165 LINE SMOOTH",
"448 165 OFFCURVE",
"525 225 OFFCURVE",
"550 345 CURVE SMOOTH",
"577 471 OFFCURVE",
"521 537 OFFCURVE",
"387 537 CURVE SMOOTH",
"228 537 LINE",
"213 467 LINE",
"368 467 LINE SMOOTH",
"464 467 OFFCURVE",
"494 436 OFFCURVE",
"477 357 CURVE SMOOTH",
"459 272 OFFCURVE",
"409 235 OFFCURVE",
"313 235 CURVE SMOOTH",
"164 235 LINE",
"149 165 LINE"
);
},
{
closed = 1;
nodes = (
"114 0 LINE",
"252 650 LINE",
"178 650 LINE",
"40 0 LINE"
);
}
);
width = 580;
}
);
unicode = 00DE;
},
{
color = 0;
glyphname = Q;
layers = (
{
anchors = (
{
name = bottom;
position = "{249, 0}";
},
{
name = center;
position = "{308, 325}";
},
{
name = ogonek;
position = "{482, 10}";
},
{
name = top;
position = "{388, 650}";
},
{
name = topleft;
position = "{98, 650}";
},
{
name = topright;
position = "{658, 650}";
}
);
background = {
anchors = (
{
name = bottom;
position = "{249, 0}";
},
{
name = top;
position = "{388, 650}";
}
);
components = (
{
name = O;
}
);
paths = (
{
closed = 1;
nodes = (
"407 -222 OFFCURVE",
"462 -207 OFFCURVE",
"531 -160 CURVE",
"496 -190 LINE",
"447 -53 LINE",
"491 -65 LINE",
"445 -95 OFFCURVE",
"402 -112 OFFCURVE",
"359 -112 CURVE SMOOTH",
"308 -112 OFFCURVE",
"296 -89 OFFCURVE",
"310 -19 CURVE SMOOTH",
"319 21 LINE",
"198 21 LINE",
"190 -16 LINE SMOOTH",
"161 -153 OFFCURVE",
"211 -222 OFFCURVE",
"342 -222 CURVE SMOOTH"
);
}
);
};
layerId = "27302DAC-E04E-41A7-B2D2-BD8305143A0A";
paths = (
{
closed = 1;
nodes = (
"399 -222 OFFCURVE",
"444 -210 OFFCURVE",
"494 -183 CURVE",
"459 -83 LINE",
"422 -103 OFFCURVE",
"392 -112 OFFCURVE",
"359 -112 CURVE SMOOTH",
"321 -112 OFFCURVE",
"305 -98 OFFCURVE",
"305 -64 CURVE SMOOTH",
"305 -48 OFFCURVE",
"307 -34 OFFCURVE",
"313 -6 CURVE",
"504 37 OFFCURVE",
"574 272 OFFCURVE",
"574 443 CURVE SMOOTH",
"574 588 OFFCURVE",
"503 662 OFFCURVE",
"362 662 CURVE SMOOTH",
"129 662 OFFCURVE",
"42 395 OFFCURVE",
"42 208 CURVE SMOOTH",
"42 87 OFFCURVE",
"91 13 OFFCURVE",
"193 -7 CURVE",
"185 -45 OFFCURVE",
"182 -63 OFFCURVE",
"182 -84 CURVE SMOOTH",
"182 -176 OFFCURVE",
"235 -222 OFFCURVE",
"342 -222 CURVE SMOOTH"
);
},
{
closed = 1;
nodes = (
"196 100 OFFCURVE",
"164 138 OFFCURVE",
"164 218 CURVE SMOOTH",
"164 327 OFFCURVE",
"215 550 OFFCURVE",
"354 550 CURVE SMOOTH",
"420 550 OFFCURVE",
"452 512 OFFCURVE",
"452 431 CURVE SMOOTH",
"452 323 OFFCURVE",
"401 100 OFFCURVE",
"262 100 CURVE SMOOTH"
);
}
);
width = 580;
},
{
anchors = (
{
name = bottom;
position = "{250, 0}";
},
{
name = center;
position = "{309, 325}";
},
{
name = ogonek;
position = "{482, 10}";
},
{
name = top;
position = "{388, 650}";
},
{
name = topleft;
position = "{98, 650}";
},
{
name = topright;
position = "{658, 650}";
}
);
background = {
anchors = (
{
name = bottom;
position = "{250, 0}";
},
{
name = top;
position = "{388, 650}";
}
);
components = (
{
name = O;
}
);
paths = (
{
closed = 1;
nodes = (
"412 -222 OFFCURVE",
"478 -199 OFFCURVE",
"530 -150 CURVE",
"484 -219 LINE",
"440 -70 LINE",
"519 -81 LINE",
"484 -122 OFFCURVE",
"413 -153 OFFCURVE",
"353 -153 CURVE SMOOTH",
"288 -153 OFFCURVE",
"265 -114 OFFCURVE",
"283 -30 CURVE SMOOTH",
"292 16 LINE",
"218 16 LINE",
"208 -32 LINE SMOOTH",
"183 -152 OFFCURVE",
"233 -222 OFFCURVE",
"346 -222 CURVE SMOOTH"
);
}
);
};
hints = (
{
horizontal = 1;
origin = "{0, 30}";
target = "{0, 6}";
},
{
horizontal = 1;
origin = "{0, 18}";
target = "{1, 5}";
},
{
horizontal = 1;
origin = "{0, 24}";
target = "{1, 11}";
},
{
origin = "{0, 21}";
target = "{1, 2}";
},
{
origin = "{0, 27}";
target = "{0, 9}";
},
{
origin = "{1, 8}";
target = "{0, 15}";
}
);
layerId = "B9B856C8-1FA2-46F4-A929-F36A99765E59";
paths = (
{
closed = 1;
nodes = (
"393 -222 OFFCURVE",
"436 -211 OFFCURVE",
"475 -190 CURVE",
"455 -126 LINE",
"420 -144 OFFCURVE",
"386 -153 OFFCURVE",
"353 -153 CURVE SMOOTH",
"302 -153 OFFCURVE",
"277 -129 OFFCURVE",
"277 -79 CURVE SMOOTH",
"277 -67 OFFCURVE",
"279 -51 OFFCURVE",
"287 -10 CURVE",
"490 17 OFFCURVE",
"567 273 OFFCURVE",
"567 446 CURVE SMOOTH",
"567 588 OFFCURVE",
"499 662 OFFCURVE",
"365 662 CURVE SMOOTH",
"137 662 OFFCURVE",
"51 386 OFFCURVE",
"51 204 CURVE SMOOTH",
"51 79 OFFCURVE",
"104 5 OFFCURVE",
"213 -10 CURVE",
"205 -50 OFFCURVE",
"202 -68 OFFCURVE",
"202 -88 CURVE SMOOTH",
"202 -175 OFFCURVE",
"252 -222 OFFCURVE",
"346 -222 CURVE SMOOTH"
);
},
{
closed = 1;
nodes = (
"169 59 OFFCURVE",
"126 108 OFFCURVE",
"126 208 CURVE SMOOTH",
"126 347 OFFCURVE",
"190 591 OFFCURVE",
"364 591 CURVE SMOOTH",
"449 591 OFFCURVE",
"492 542 OFFCURVE",
"492 443 CURVE SMOOTH",
"492 303 OFFCURVE",
"428 59 OFFCURVE",
"254 59 CURVE SMOOTH"
);
}
);
width = 580;
},
{
anchors = (
{
name = bottom;
position = "{250, 0}";
},
{
name = top;
position = "{388, 650}";
}
);
associatedMasterId = "B9B856C8-1FA2-46F4-A929-F36A99765E59";
background = {
anchors = (
{
name = bottom;
position = "{250, 0}";
},
{
name = center;
position = "{309, 325}";
},
{
name = ogonek;
position = "{482, 10}";
},
{
name = top;
position = "{388, 650}";
},
{
name = topleft;
position = "{98, 650}";
},
{
name = topright;
position = "{658, 650}";
}
);
paths = (
{
closed = 1;
nodes = (
"397 -12 OFFCURVE",
"505 103 OFFCURVE",
"552 325 CURVE SMOOTH",
"599 547 OFFCURVE",
"541 662 OFFCURVE",
"381 662 CURVE SMOOTH",
"221 662 OFFCURVE",
"113 547 OFFCURVE",
"66 325 CURVE SMOOTH",
"19 103 OFFCURVE",
"77 -12 OFFCURVE",
"237 -12 CURVE SMOOTH"
);
},
{
closed = 1;
nodes = (
"141 59 OFFCURVE",
"104 147 OFFCURVE",
"142 325 CURVE SMOOTH",
"180 503 OFFCURVE",
"254 591 OFFCURVE",
"366 591 CURVE SMOOTH",
"478 591 OFFCURVE",
"514 503 OFFCURVE",
"476 325 CURVE SMOOTH",
"438 147 OFFCURVE",
"365 59 OFFCURVE",
"253 59 CURVE SMOOTH"
);
},
{
closed = 1;
nodes = (
"412 -222 OFFCURVE",
"478 -197 OFFCURVE",
"530 -149 CURVE",
"471 -222 LINE",
"457 -67 LINE",
"519 -82 LINE",
"484 -122 OFFCURVE",
"413 -153 OFFCURVE",
"353 -153 CURVE SMOOTH",
"288 -153 OFFCURVE",
"265 -114 OFFCURVE",
"283 -30 CURVE SMOOTH",
"292 16 LINE",
"218 16 LINE",
"208 -32 LINE SMOOTH",
"183 -152 OFFCURVE",
"233 -222 OFFCURVE",
"346 -222 CURVE SMOOTH"
);
}
);
};
components = (
{
name = O;
}
);
layerId = "270F0433-93CB-40BB-9833-6E0F1D7AF777";
name = slanted;
paths = (
{
closed = 1;
nodes = (
"409 -222 OFFCURVE",
"477 -195 OFFCURVE",
"529 -147 CURVE",
"473 -222 LINE",
"458 -67 LINE",
"520 -84 LINE",
"485 -124 OFFCURVE",
"416 -153 OFFCURVE",
"359 -153 CURVE SMOOTH",
"291 -153 OFFCURVE",
"265 -111 OFFCURVE",
"283 -27 CURVE SMOOTH",
"292 16 LINE",
"218 16 LINE",
"208 -35 LINE SMOOTH",
"182 -155 OFFCURVE",
"230 -222 OFFCURVE",
"340 -222 CURVE SMOOTH"
);
}
);
width = 580;
},
{
anchors = (
{
name = bottom;
position = "{250, 0}";
},
{
name = top;
position = "{388, 650}";
}
);
associatedMasterId = "B9B856C8-1FA2-46F4-A929-F36A99765E59";
background = {
anchors = (
{
name = bottom;
position = "{250, 0}";
},
{
name = center;
position = "{309, 325}";
},
{
name = ogonek;
position = "{482, 10}";
},
{
name = top;
position = "{388, 650}";
},
{
name = topleft;
position = "{98, 650}";
},
{
name = topright;
position = "{658, 650}";
}
);
paths = (
{
closed = 1;
nodes = (
"409 -222 OFFCURVE",
"477 -195 OFFCURVE",
"529 -147 CURVE",
"473 -222 LINE",
"458 -67 LINE",
"520 -84 LINE",
"485 -124 OFFCURVE",
"416 -153 OFFCURVE",
"359 -153 CURVE SMOOTH",
"291 -153 OFFCURVE",
"265 -111 OFFCURVE",
"283 -27 CURVE SMOOTH",
"292 16 LINE",
"218 16 LINE",
"208 -35 LINE SMOOTH",
"182 -155 OFFCURVE",
"230 -222 OFFCURVE",
"340 -222 CURVE SMOOTH"
);
},
{
closed = 1;
nodes = (
"397 -12 OFFCURVE",
"505 103 OFFCURVE",
"552 325 CURVE SMOOTH",
"599 547 OFFCURVE",
"541 662 OFFCURVE",
"381 662 CURVE SMOOTH",
"221 662 OFFCURVE",
"113 547 OFFCURVE",
"66 325 CURVE SMOOTH",
"19 103 OFFCURVE",
"77 -12 OFFCURVE",
"237 -12 CURVE SMOOTH"
);
},
{
closed = 1;
nodes = (
"141 59 OFFCURVE",
"104 147 OFFCURVE",
"142 325 CURVE SMOOTH",
"180 503 OFFCURVE",
"254 591 OFFCURVE",
"366 591 CURVE SMOOTH",
"478 591 OFFCURVE",
"514 503 OFFCURVE",
"476 325 CURVE SMOOTH",
"438 147 OFFCURVE",
"365 59 OFFCURVE",
"253 59 CURVE SMOOTH"
);
}
);
};
components = (
{
name = O;
}
);
layerId = "B86AD5DB-3EFA-47A2-A710-BAA82958FFB6";
name = cursify;
paths = (
{
closed = 1;
nodes = (
"412 -222 OFFCURVE",
"478 -197 OFFCURVE",
"530 -149 CURVE",
"471 -222 LINE",
"457 -67 LINE",
"519 -82 LINE",
"484 -122 OFFCURVE",
"413 -153 OFFCURVE",
"353 -153 CURVE SMOOTH",
"288 -153 OFFCURVE",
"265 -114 OFFCURVE",
"283 -30 CURVE SMOOTH",
"292 16 LINE",
"218 16 LINE",
"208 -32 LINE SMOOTH",
"183 -152 OFFCURVE",
"233 -222 OFFCURVE",
"346 -222 CURVE SMOOTH"
);
}
);
width = 580;
},
{
anchors = (
{
name = bottom;
position = "{249, 0}";
},
{
name = top;
position = "{388, 650}";
}
);
associatedMasterId = "27302DAC-E04E-41A7-B2D2-BD8305143A0A";
background = {
anchors = (
{
name = bottom;
position = "{249, 0}";
},
{
name = center;
position = "{308, 325}";
},
{
name = ogonek;
position = "{482, 10}";
},
{
name = top;
position = "{388, 650}";
},
{
name = topleft;
position = "{98, 650}";
},
{
name = topright;
position = "{658, 650}";
}
);
paths = (
{
closed = 1;
nodes = (
"403 -12 OFFCURVE",
"513 103 OFFCURVE",
"560 325 CURVE SMOOTH",
"608 547 OFFCURVE",
"546 662 OFFCURVE",
"380 662 CURVE SMOOTH",
"214 662 OFFCURVE",
"104 547 OFFCURVE",
"56 325 CURVE SMOOTH",
"9 103 OFFCURVE",
"71 -12 OFFCURVE",
"237 -12 CURVE SMOOTH"
);
},
{
closed = 1;
nodes = (
"174 100 OFFCURVE",
"146 174 OFFCURVE",
"178 325 CURVE SMOOTH",
"211 476 OFFCURVE",
"269 550 OFFCURVE",
"356 550 CURVE SMOOTH",
"443 550 OFFCURVE",
"471 476 OFFCURVE",
"438 325 CURVE SMOOTH",
"406 174 OFFCURVE",
"348 100 OFFCURVE",
"261 100 CURVE SMOOTH"
);
},
{
closed = 1;
nodes = (
"407 -222 OFFCURVE",
"461 -206 OFFCURVE",
"530 -159 CURVE",
"483 -192 LINE",
"462 -49 LINE",
"491 -66 LINE",
"445 -95 OFFCURVE",
"402 -112 OFFCURVE",
"359 -112 CURVE SMOOTH",
"308 -112 OFFCURVE",
"296 -89 OFFCURVE",
"310 -19 CURVE SMOOTH",
"319 21 LINE",
"198 21 LINE",
"190 -16 LINE SMOOTH",
"161 -153 OFFCURVE",
"211 -222 OFFCURVE",
"342 -222 CURVE SMOOTH"
);
}
);
};
components = (
{
name = O;
}
);
layerId = "86E3DF4D-C455-4DA5-A53B-08E52DECC35B";
name = slanted;
paths = (
{
closed = 1;
nodes = (
"402 -222 OFFCURVE",
"458 -203 OFFCURVE",
"527 -156 CURVE",
"486 -192 LINE",
"462 -49 LINE",
"493 -69 LINE",
"448 -98 OFFCURVE",
"407 -112 OFFCURVE",
"368 -112 CURVE SMOOTH",
"313 -112 OFFCURVE",
"297 -84 OFFCURVE",
"311 -14 CURVE SMOOTH",
"319 21 LINE",
"198 21 LINE",
"189 -21 LINE SMOOTH",
"160 -158 OFFCURVE",
"206 -222 OFFCURVE",
"333 -222 CURVE SMOOTH"
);
}
);
width = 580;
},
{
anchors = (
{
name = bottom;
position = "{249, 0}";
},
{
name = top;
position = "{388, 650}";
}
);
associatedMasterId = "27302DAC-E04E-41A7-B2D2-BD8305143A0A";
background = {
anchors = (
{
name = bottom;
position = "{249, 0}";
},
{
name = center;
position = "{308, 325}";
},
{
name = ogonek;
position = "{482, 10}";
},
{
name = top;
position = "{388, 650}";
},
{
name = topleft;
position = "{98, 650}";
},
{
name = topright;
position = "{658, 650}";
}
);
paths = (
{
closed = 1;
nodes = (
"402 -222 OFFCURVE",
"458 -203 OFFCURVE",
"527 -156 CURVE",
"486 -192 LINE",
"462 -49 LINE",
"493 -69 LINE",
"448 -98 OFFCURVE",
"407 -112 OFFCURVE",
"368 -112 CURVE SMOOTH",
"313 -112 OFFCURVE",
"297 -84 OFFCURVE",
"311 -14 CURVE SMOOTH",
"319 21 LINE",
"198 21 LINE",
"189 -21 LINE SMOOTH",
"160 -158 OFFCURVE",
"206 -222 OFFCURVE",
"333 -222 CURVE SMOOTH"
);
},
{
closed = 1;
nodes = (
"403 -12 OFFCURVE",
"513 103 OFFCURVE",
"560 325 CURVE SMOOTH",
"608 547 OFFCURVE",
"546 662 OFFCURVE",
"380 662 CURVE SMOOTH",
"214 662 OFFCURVE",
"104 547 OFFCURVE",
"56 325 CURVE SMOOTH",
"9 103 OFFCURVE",
"71 -12 OFFCURVE",
"237 -12 CURVE SMOOTH"
);
},
{
closed = 1;
nodes = (
"174 100 OFFCURVE",
"146 174 OFFCURVE",
"178 325 CURVE SMOOTH",
"211 476 OFFCURVE",
"269 550 OFFCURVE",
"356 550 CURVE SMOOTH",
"443 550 OFFCURVE",
"471 476 OFFCURVE",
"438 325 CURVE SMOOTH",
"406 174 OFFCURVE",
"348 100 OFFCURVE",
"261 100 CURVE SMOOTH"
);
}
);
};
components = (
{
name = O;
}
);
layerId = "7C18FEC7-22F9-4E81-BCF2-46B96B7E3946";
name = cursify;
paths = (
{
closed = 1;
nodes = (
"407 -222 OFFCURVE",
"461 -206 OFFCURVE",
"530 -159 CURVE",
"483 -192 LINE",
"462 -49 LINE",
"491 -66 LINE",
"445 -95 OFFCURVE",
"402 -112 OFFCURVE",
"359 -112 CURVE SMOOTH",
"308 -112 OFFCURVE",
"296 -89 OFFCURVE",
"310 -19 CURVE SMOOTH",
"319 21 LINE",
"198 21 LINE",
"190 -16 LINE SMOOTH",
"161 -153 OFFCURVE",
"211 -222 OFFCURVE",
"342 -222 CURVE SMOOTH"
);
}
);
width = 580;
}
);
unicode = 0051;
},
{
color = 0;
glyphname = R;
layers = (
{
anchors = (
{
name = bottom;
position = "{250, 0}";
},
{
name = top;
position = "{359, 650}";
}
);
background = {
anchors = (
{
name = bottom;
position = "{250, 0}";
},
{
name = top;
position = "{359, 650}";
}
);
paths = (
{
closed = 1;
nodes = (
"320 260 LINE SMOOTH",
"458 260 OFFCURVE",
"539 323 OFFCURVE",
"563 443 CURVE SMOOTH",
"589 575 OFFCURVE",
"522 650 OFFCURVE",
"386 650 CURVE SMOOTH",
"270 650 LINE",
"246 540 LINE",
"360 540 LINE SMOOTH",
"430 540 OFFCURVE",
"455 515 OFFCURVE",
"443 455 CURVE SMOOTH",
"431 395 OFFCURVE",
"398 370 OFFCURVE",
"326 370 CURVE SMOOTH",
"210 370 LINE",
"187 260 LINE"
);
},
{
closed = 1;
nodes = (
"141 0 LINE",
"280 650 LINE",
"159 650 LINE",
"20 0 LINE"
);
},
{
closed = 1;
nodes = (
"502 0 LINE",
"374 345 LINE",
"229 293 LINE",
"248 345 LINE",
"371 0 LINE"
);
}
);
};
backgroundImage = {
crop = "{{0, 0}, {82.38, 144.54}}";
imagePath = "scan-image/scan2017-1-CR.png";
transform = "{7.26217, 0, 11.01688, 7.26217, -811.023, -292}";
};
layerId = "27302DAC-E04E-41A7-B2D2-BD8305143A0A";
paths = (
{
closed = 1;
nodes = (
"141 0 LINE",
"197 260 LINE",
"279 260 LINE",
"372 0 LINE",
"502 0 LINE",
"402 269 LINE",
"509 295 OFFCURVE",
"569 377 OFFCURVE",
"569 496 CURVE SMOOTH",
"569 595 OFFCURVE",
"503 650 OFFCURVE",
"386 650 CURVE SMOOTH",
"159 650 LINE",
"20 0 LINE"
);
},
{
closed = 1;
nodes = (
"256 540 LINE",
"360 540 LINE SMOOTH",
"419 540 OFFCURVE",
"446 522 OFFCURVE",
"446 481 CURVE SMOOTH",
"446 408 OFFCURVE",
"405 370 OFFCURVE",
"326 370 CURVE SMOOTH",
"220 370 LINE"
);
}
);
width = 580;
},
{
anchors = (
{
name = bottom;
position = "{251, 0}";
},
{
name = top;
position = "{364, 650}";
}
);
background = {
anchors = (
{
name = bottom;
position = "{251, 0}";
},
{
name = top;
position = "{364, 650}";
}
);
paths = (
{
closed = 1;
nodes = (
"336 288 LINE SMOOTH",
"466 288 OFFCURVE",
"540 345 OFFCURVE",
"562 462 CURVE SMOOTH",
"587 585 OFFCURVE",
"529 650 OFFCURVE",
"399 650 CURVE SMOOTH",
"239 650 LINE",
"224 580 LINE",
"380 580 LINE SMOOTH",
"472 580 OFFCURVE",
"503 547 OFFCURVE",
"488 469 CURVE SMOOTH",
"472 391 OFFCURVE",
"429 358 OFFCURVE",
"337 358 CURVE SMOOTH",
"177 358 LINE",
"162 288 LINE"
);
},
{
closed = 1;
nodes = (
"111 0 LINE",
"249 650 LINE",
"175 650 LINE",
"37 0 LINE"
);
},
{
closed = 1;
nodes = (
"482 0 LINE",
"354 334 LINE",
"226 311 LINE",
"275 333 LINE",
"401 0 LINE"
);
}
);
};
backgroundImage = {
crop = "{{0, 0}, {82.38, 144.54}}";
imagePath = "scan-image/scan2017-1-CR.png";
transform = "{7.84314, 0, 3.33422, 7.84314, -249.035, -292}";
};
layerId = "B9B856C8-1FA2-46F4-A929-F36A99765E59";
paths = (
{
closed = 1;
nodes = (
"111 0 LINE",
"172 288 LINE",
"293 288 LINE",
"402 0 LINE",
"482 0 LINE",
"371 290 LINE",
"497 301 OFFCURVE",
"568 382 OFFCURVE",
"568 514 CURVE SMOOTH",
"568 602 OFFCURVE",
"509 650 OFFCURVE",
"399 650 CURVE SMOOTH",
"175 650 LINE",
"37 0 LINE"
);
},
{
closed = 1;
nodes = (
"234 580 LINE",
"380 580 LINE SMOOTH",
"457 580 OFFCURVE",
"492 556 OFFCURVE",
"492 503 CURVE SMOOTH",
"492 407 OFFCURVE",
"439 358 OFFCURVE",
"337 358 CURVE SMOOTH",
"187 358 LINE"
);
}
);
width = 580;
},
{
anchors = (
{
name = bottom;
position = "{251, 0}";
},
{
name = top;
position = "{364, 650}";
}
);
associatedMasterId = "B9B856C8-1FA2-46F4-A929-F36A99765E59";
background = {
anchors = (
{
name = bottom;
position = "{251, 0}";
},
{
name = top;
position = "{364, 650}";
}
);
paths = (
{
closed = 1;
nodes = (
"332 288 LINE SMOOTH",
"462 288 OFFCURVE",
"538 346 OFFCURVE",
"562 463 CURVE SMOOTH",
"589 586 OFFCURVE",
"533 650 OFFCURVE",
"403 650 CURVE SMOOTH",
"249 650 LINE",
"234 580 LINE",
"385 580 LINE SMOOTH",
"477 580 OFFCURVE",
"505 550 OFFCURVE",
"489 475 CURVE SMOOTH",
"472 394 OFFCURVE",
"424 358 OFFCURVE",
"332 358 CURVE SMOOTH",
"187 358 LINE",
"172 288 LINE"
);
},
{
closed = 1;
nodes = (
"111 0 LINE",
"249 650 LINE",
"175 650 LINE",
"37 0 LINE"
);
},
{
closed = 1;
nodes = (
"482 0 LINE",
"354 334 LINE",
"226 311 LINE",
"272 333 LINE",
"398 0 LINE"
);
}
);
};
backgroundImage = {
crop = "{{0, 0}, {82.38, 144.54}}";
imagePath = "scan-image/scan2017-1-CR.png";
transform = "{7.84314, 0, 3.33422, 7.84314, -249.035, -292}";
};
layerId = "72FB3953-1826-4424-A78A-32F95E86FFCB";
name = slanted;
paths = (
{
closed = 1;
nodes = (
"329 288 LINE SMOOTH",
"459 288 OFFCURVE",
"538 349 OFFCURVE",
"564 469 CURVE SMOOTH",
"589 589 OFFCURVE",
"536 650 OFFCURVE",
"406 650 CURVE SMOOTH",
"249 650 LINE",
"234 580 LINE",
"382 580 LINE SMOOTH",
"474 580 OFFCURVE",
"504 547 OFFCURVE",
"488 469 CURVE SMOOTH",
"471 391 OFFCURVE",
"427 358 OFFCURVE",
"335 358 CURVE SMOOTH",
"187 358 LINE",
"172 288 LINE"
);
},
{
closed = 1;
nodes = (
"111 0 LINE",
"249 650 LINE",
"175 650 LINE",
"37 0 LINE"
);
},
{
closed = 1;
nodes = (
"483 0 LINE",
"355 334 LINE",
"225 311 LINE",
"271 333 LINE",
"397 0 LINE"
);
}
);
width = 580;
},
{
anchors = (
{
name = bottom;
position = "{251, 0}";
},
{
name = top;
position = "{364, 650}";
}
);
associatedMasterId = "B9B856C8-1FA2-46F4-A929-F36A99765E59";
background = {
anchors = (
{
name = bottom;
position = "{251, 0}";
},
{
name = top;
position = "{364, 650}";
}
);
paths = (
{
closed = 1;
nodes = (
"329 288 LINE SMOOTH",
"459 288 OFFCURVE",
"538 349 OFFCURVE",
"564 469 CURVE SMOOTH",
"589 589 OFFCURVE",
"536 650 OFFCURVE",
"406 650 CURVE SMOOTH",
"249 650 LINE",
"234 580 LINE",
"382 580 LINE SMOOTH",
"474 580 OFFCURVE",
"504 547 OFFCURVE",
"488 469 CURVE SMOOTH",
"471 391 OFFCURVE",
"427 358 OFFCURVE",
"335 358 CURVE SMOOTH",
"187 358 LINE",
"172 288 LINE"
);
},
{
closed = 1;
nodes = (
"111 0 LINE",
"249 650 LINE",
"175 650 LINE",
"37 0 LINE"
);
},
{
closed = 1;
nodes = (
"483 0 LINE",
"355 334 LINE",
"225 311 LINE",
"271 333 LINE",
"397 0 LINE"
);
}
);
};
backgroundImage = {
crop = "{{0, 0}, {82.38, 144.54}}";
imagePath = "scan-image/scan2017-1-CR.png";
transform = "{7.84314, 0, 3.33422, 7.84314, -249.035, -292}";
};
layerId = "24A35BCC-B6D3-4847-8193-69C4B55CA71E";
name = cursify;
paths = (
{
closed = 1;
nodes = (
"332 288 LINE SMOOTH",
"462 288 OFFCURVE",
"538 346 OFFCURVE",
"562 463 CURVE SMOOTH",
"589 586 OFFCURVE",
"533 650 OFFCURVE",
"403 650 CURVE SMOOTH",
"249 650 LINE",
"234 580 LINE",
"385 580 LINE SMOOTH",
"477 580 OFFCURVE",
"505 550 OFFCURVE",
"489 475 CURVE SMOOTH",
"472 394 OFFCURVE",
"424 358 OFFCURVE",
"332 358 CURVE SMOOTH",
"187 358 LINE",
"172 288 LINE"
);
},
{
closed = 1;
nodes = (
"111 0 LINE",
"249 650 LINE",
"175 650 LINE",
"37 0 LINE"
);
},
{
closed = 1;
nodes = (
"482 0 LINE",
"354 334 LINE",
"226 311 LINE",
"272 333 LINE",
"398 0 LINE"
);
}
);
width = 580;
},
{
anchors = (
{
name = bottom;
position = "{250, 0}";
},
{
name = top;
position = "{359, 650}";
}
);
associatedMasterId = "27302DAC-E04E-41A7-B2D2-BD8305143A0A";
background = {
anchors = (
{
name = bottom;
position = "{250, 0}";
},
{
name = top;
position = "{359, 650}";
}
);
paths = (
{
closed = 1;
nodes = (
"316 260 LINE SMOOTH",
"453 260 OFFCURVE",
"537 324 OFFCURVE",
"563 445 CURVE SMOOTH",
"591 576 OFFCURVE",
"527 650 OFFCURVE",
"390 650 CURVE SMOOTH",
"280 650 LINE",
"256 540 LINE",
"366 540 LINE SMOOTH",
"437 540 OFFCURVE",
"457 520 OFFCURVE",
"445 465 CURVE SMOOTH",
"431 400 OFFCURVE",
"392 370 OFFCURVE",
"321 370 CURVE SMOOTH",
"220 370 LINE",
"197 260 LINE"
);
},
{
closed = 1;
nodes = (
"141 0 LINE",
"280 650 LINE",
"159 650 LINE",
"20 0 LINE"
);
},
{
closed = 1;
nodes = (
"502 0 LINE",
"374 345 LINE",
"229 293 LINE",
"242 345 LINE",
"365 0 LINE"
);
}
);
};
backgroundImage = {
crop = "{{0, 0}, {82.38, 144.54}}";
imagePath = "scan-image/scan2017-1-CR.png";
transform = "{7.26217, 0, 11.01688, 7.26217, -811.023, -292}";
};
layerId = "E1B62809-0970-468F-98A2-A70A5325CD6C";
name = slanted;
paths = (
{
closed = 1;
nodes = (
"312 260 LINE SMOOTH",
"449 260 OFFCURVE",
"538 329 OFFCURVE",
"565 455 CURVE SMOOTH",
"592 581 OFFCURVE",
"532 650 OFFCURVE",
"395 650 CURVE SMOOTH",
"280 650 LINE",
"256 540 LINE",
"361 540 LINE SMOOTH",
"432 540 OFFCURVE",
"456 515 OFFCURVE",
"443 455 CURVE SMOOTH",
"430 395 OFFCURVE",
"396 370 OFFCURVE",
"325 370 CURVE SMOOTH",
"220 370 LINE",
"197 260 LINE"
);
},
{
closed = 1;
nodes = (
"141 0 LINE",
"280 650 LINE",
"159 650 LINE",
"20 0 LINE"
);
},
{
closed = 1;
nodes = (
"503 0 LINE",
"377 345 LINE",
"230 293 LINE",
"241 345 LINE",
"363 0 LINE"
);
}
);
width = 580;
},
{
anchors = (
{
name = bottom;
position = "{250, 0}";
},
{
name = top;
position = "{359, 650}";
}
);
associatedMasterId = "27302DAC-E04E-41A7-B2D2-BD8305143A0A";
background = {
anchors = (
{
name = bottom;
position = "{250, 0}";
},
{
name = top;
position = "{359, 650}";
}
);
paths = (
{
closed = 1;
nodes = (
"312 260 LINE SMOOTH",
"449 260 OFFCURVE",
"538 329 OFFCURVE",
"565 455 CURVE SMOOTH",
"592 581 OFFCURVE",
"532 650 OFFCURVE",
"395 650 CURVE SMOOTH",
"280 650 LINE",
"256 540 LINE",
"361 540 LINE SMOOTH",
"432 540 OFFCURVE",
"456 515 OFFCURVE",
"443 455 CURVE SMOOTH",
"430 395 OFFCURVE",
"396 370 OFFCURVE",
"325 370 CURVE SMOOTH",
"220 370 LINE",
"197 260 LINE"
);
},
{
closed = 1;
nodes = (
"141 0 LINE",
"280 650 LINE",
"159 650 LINE",
"20 0 LINE"
);
},
{
closed = 1;
nodes = (
"503 0 LINE",
"377 345 LINE",
"230 293 LINE",
"241 345 LINE",
"363 0 LINE"
);
}
);
};
backgroundImage = {
crop = "{{0, 0}, {82.38, 144.54}}";
imagePath = "scan-image/scan2017-1-CR.png";
transform = "{7.26217, 0, 14.10412, 7.26217, -1036.333, -292}";
};
layerId = "19783BF4-AD41-45C6-99DC-8358AD4A50A1";
name = cursify;
paths = (
{
closed = 1;
nodes = (
"316 260 LINE SMOOTH",
"453 260 OFFCURVE",
"537 324 OFFCURVE",
"563 445 CURVE SMOOTH",
"591 576 OFFCURVE",
"527 650 OFFCURVE",
"390 650 CURVE SMOOTH",
"280 650 LINE",
"256 540 LINE",
"366 540 LINE SMOOTH",
"437 540 OFFCURVE",
"457 520 OFFCURVE",
"445 465 CURVE SMOOTH",
"431 400 OFFCURVE",
"392 370 OFFCURVE",
"321 370 CURVE SMOOTH",
"220 370 LINE",
"197 260 LINE"
);
},
{
closed = 1;
nodes = (
"141 0 LINE",
"280 650 LINE",
"159 650 LINE",
"20 0 LINE"
);
},
{
closed = 1;
nodes = (
"502 0 LINE",
"374 345 LINE",
"229 293 LINE",
"242 345 LINE",
"365 0 LINE"
);
}
);
width = 580;
}
);
unicode = 0052;
},
{
color = 0;
glyphname = S;
layers = (
{
anchors = (
{
name = bottom;
position = "{239, 0}";
},
{
name = top;
position = "{373, 650}";
}
);
background = {
anchors = (
{
name = bottom;
position = "{239, 0}";
},
{
name = top;
position = "{373, 650}";
}
);
paths = (
{
closed = 1;
nodes = (
"391 -14 OFFCURVE",
"496 51 OFFCURVE",
"515 169 CURVE SMOOTH",
"532 275 OFFCURVE",
"487 343 OFFCURVE",
"387 370 CURVE SMOOTH",
"300 393 LINE SMOOTH",
"251 406 OFFCURVE",
"232 431 OFFCURVE",
"237 471 CURVE SMOOTH",
"244 525 OFFCURVE",
"292 550 OFFCURVE",
"366 549 CURVE SMOOTH",
"430 548 OFFCURVE",
"480 527 OFFCURVE",
"521 489 CURVE",
"497 476 LINE",
"599 621 LINE",
"594 579 LINE",
"540 629 OFFCURVE",
"471 659 OFFCURVE",
"379 661 CURVE SMOOTH",
"238 663 OFFCURVE",
"136 599 OFFCURVE",
"117 480 CURVE SMOOTH",
"100 375 OFFCURVE",
"145 307 OFFCURVE",
"245 280 CURVE SMOOTH",
"332 256 LINE SMOOTH",
"381 244 OFFCURVE",
"400 219 OFFCURVE",
"395 178 CURVE SMOOTH",
"388 125 OFFCURVE",
"337 99 OFFCURVE",
"255 101 CURVE SMOOTH",
"182 102 OFFCURVE",
"129 125 OFFCURVE",
"86 176 CURVE",
"110 190 LINE",
"-7 43 LINE",
"11 84 LINE",
"66 23 OFFCURVE",
"137 -9 OFFCURVE",
"239 -11 CURVE SMOOTH"
);
}
);
};
layerId = "27302DAC-E04E-41A7-B2D2-BD8305143A0A";
paths = (
{
closed = 1;
nodes = (
"423 -12 OFFCURVE",
"519 72 OFFCURVE",
"519 213 CURVE SMOOTH",
"519 299 OFFCURVE",
"473 357 OFFCURVE",
"387 378 CURVE SMOOTH",
"300 399 LINE SMOOTH",
"256 410 OFFCURVE",
"236 429 OFFCURVE",
"236 462 CURVE SMOOTH",
"236 517 OFFCURVE",
"279 550 OFFCURVE",
"360 550 CURVE SMOOTH",
"420 550 OFFCURVE",
"469 533 OFFCURVE",
"512 498 CURVE",
"579 593 LINE",
"522 638 OFFCURVE",
"450 662 OFFCURVE",
"368 662 CURVE SMOOTH",
"210 662 OFFCURVE",
"113 577 OFFCURVE",
"113 443 CURVE SMOOTH",
"113 363 OFFCURVE",
"159 307 OFFCURVE",
"245 286 CURVE SMOOTH",
"332 265 LINE SMOOTH",
"376 254 OFFCURVE",
"396 228 OFFCURVE",
"396 192 CURVE SMOOTH",
"396 132 OFFCURVE",
"350 100 OFFCURVE",
"265 100 CURVE SMOOTH",
"190 100 OFFCURVE",
"138 121 OFFCURVE",
"93 167 CURVE",
"19 75 LINE",
"80 16 OFFCURVE",
"155 -12 OFFCURVE",
"256 -12 CURVE SMOOTH"
);
}
);
width = 580;
},
{
anchors = (
{
name = bottom;
position = "{239, 0}";
},
{
name = top;
position = "{373, 650}";
}
);
background = {
anchors = (
{
name = bottom;
position = "{239, 0}";
},
{
name = top;
position = "{373, 650}";
}
);
paths = (
{
closed = 1;
nodes = (
"383 -13 OFFCURVE",
"484 53 OFFCURVE",
"503 173 CURVE SMOOTH",
"518 269 OFFCURVE",
"476 325 OFFCURVE",
"380 353 CURVE SMOOTH",
"283 380 LINE SMOOTH",
"219 399 OFFCURVE",
"197 428 OFFCURVE",
"204 483 CURVE SMOOTH",
"213 554 OFFCURVE",
"280 591 OFFCURVE",
"369 590 CURVE SMOOTH",
"443 589 OFFCURVE",
"502 561 OFFCURVE",
"546 507 CURVE",
"492 494 LINE",
"614 651 LINE",
"593 562 LINE",
"543 625 OFFCURVE",
"472 659 OFFCURVE",
"379 661 CURVE SMOOTH",
"247 663 OFFCURVE",
"148 600 OFFCURVE",
"130 488 CURVE SMOOTH",
"115 395 OFFCURVE",
"157 339 OFFCURVE",
"253 311 CURVE SMOOTH",
"350 283 LINE SMOOTH",
"414 265 OFFCURVE",
"436 236 OFFCURVE",
"428 178 CURVE SMOOTH",
"417 99 OFFCURVE",
"350 58 OFFCURVE",
"251 60 CURVE SMOOTH",
"169 61 OFFCURVE",
"107 91 OFFCURVE",
"64 150 CURVE",
"111 168 LINE",
"-29 8 LINE",
"21 90 LINE",
"68 25 OFFCURVE",
"140 -9 OFFCURVE",
"240 -11 CURVE SMOOTH"
);
}
);
};
layerId = "B9B856C8-1FA2-46F4-A929-F36A99765E59";
paths = (
{
closed = 1;
nodes = (
"409 -12 OFFCURVE",
"506 73 OFFCURVE",
"506 209 CURVE SMOOTH",
"506 288 OFFCURVE",
"465 335 OFFCURVE",
"380 358 CURVE SMOOTH",
"283 384 LINE SMOOTH",
"226 399 OFFCURVE",
"203 425 OFFCURVE",
"203 469 CURVE SMOOTH",
"203 543 OFFCURVE",
"263 591 OFFCURVE",
"363 591 CURVE SMOOTH",
"425 591 OFFCURVE",
"478 572 OFFCURVE",
"522 534 CURVE",
"567 591 LINE",
"515 638 OFFCURVE",
"448 662 OFFCURVE",
"369 662 CURVE SMOOTH",
"221 662 OFFCURVE",
"127 581 OFFCURVE",
"127 458 CURVE SMOOTH",
"127 386 OFFCURVE",
"167 338 OFFCURVE",
"253 315 CURVE SMOOTH",
"350 289 LINE SMOOTH",
"407 274 OFFCURVE",
"430 249 OFFCURVE",
"430 200 CURVE SMOOTH",
"430 112 OFFCURVE",
"367 59 OFFCURVE",
"261 59 CURVE SMOOTH",
"184 59 OFFCURVE",
"127 82 OFFCURVE",
"80 131 CURVE",
"31 76 LINE",
"81 18 OFFCURVE",
"158 -12 OFFCURVE",
"253 -12 CURVE SMOOTH"
);
}
);
width = 580;
},
{
anchors = (
{
name = bottom;
position = "{239, 0}";
},
{
name = top;
position = "{373, 650}";
}
);
associatedMasterId = "B9B856C8-1FA2-46F4-A929-F36A99765E59";
background = {
anchors = (
{
name = bottom;
position = "{239, 0}";
},
{
name = top;
position = "{373, 650}";
}
);
paths = (
{
closed = 1;
nodes = (
"382 -12 OFFCURVE",
"477 57 OFFCURVE",
"503 177 CURVE SMOOTH",
"523 274 OFFCURVE",
"483 326 OFFCURVE",
"386 352 CURVE SMOOTH",
"277 381 LINE SMOOTH",
"213 398 OFFCURVE",
"192 424 OFFCURVE",
"203 475 CURVE SMOOTH",
"219 548 OFFCURVE",
"283 591 OFFCURVE",
"374 591 CURVE SMOOTH",
"446 591 OFFCURVE",
"504 566 OFFCURVE",
"546 511 CURVE",
"491 497 LINE",
"620 648 LINE",
"593 567 LINE",
"543 629 OFFCURVE",
"473 662 OFFCURVE",
"380 662 CURVE SMOOTH",
"248 662 OFFCURVE",
"154 596 OFFCURVE",
"130 484 CURVE SMOOTH",
"110 391 OFFCURVE",
"151 338 OFFCURVE",
"247 312 CURVE SMOOTH",
"356 283 LINE SMOOTH",
"420 266 OFFCURVE",
"441 240 OFFCURVE",
"430 186 CURVE SMOOTH",
"412 104 OFFCURVE",
"347 59 OFFCURVE",
"245 59 CURVE SMOOTH",
"166 59 OFFCURVE",
"104 86 OFFCURVE",
"64 146 CURVE",
"110 166 LINE",
"-32 10 LINE",
"20 85 LINE",
"67 21 OFFCURVE",
"139 -12 OFFCURVE",
"239 -12 CURVE SMOOTH"
);
}
);
};
guideLines = (
{
angle = 90;
position = "{251, 532}";
},
{
angle = 90;
position = "{564, 232}";
},
{
angle = 90;
position = "{235, 532}";
},
{
angle = 90;
position = "{548, 232}";
}
);
layerId = "F0DCAD24-AB1C-410D-ADF9-3E9574FAA89D";
name = slanted;
paths = (
{
closed = 1;
nodes = (
"379 -12 OFFCURVE",
"478 60 OFFCURVE",
"504 183 CURVE SMOOTH",
"524 277 OFFCURVE",
"486 327 OFFCURVE",
"389 353 CURVE SMOOTH",
"280 382 LINE SMOOTH",
"216 399 OFFCURVE",
"193 427 OFFCURVE",
"204 481 CURVE SMOOTH",
"219 551 OFFCURVE",
"280 591 OFFCURVE",
"369 591 CURVE SMOOTH",
"443 591 OFFCURVE",
"502 564 OFFCURVE",
"543 509 CURVE",
"490 497 LINE",
"619 648 LINE",
"596 569 LINE",
"545 631 OFFCURVE",
"476 662 OFFCURVE",
"386 662 CURVE SMOOTH",
"251 662 OFFCURVE",
"153 593 OFFCURVE",
"129 478 CURVE SMOOTH",
"110 388 OFFCURVE",
"148 337 OFFCURVE",
"244 311 CURVE SMOOTH",
"353 282 LINE SMOOTH",
"417 265 OFFCURVE",
"440 237 OFFCURVE",
"428 180 CURVE SMOOTH",
"412 101 OFFCURVE",
"350 59 OFFCURVE",
"251 59 CURVE SMOOTH",
"169 59 OFFCURVE",
"107 88 OFFCURVE",
"67 148 CURVE",
"110 166 LINE",
"-32 10 LINE",
"17 83 LINE",
"64 19 OFFCURVE",
"136 -12 OFFCURVE",
"233 -12 CURVE SMOOTH"
);
}
);
width = 580;
},
{
anchors = (
{
name = bottom;
position = "{239, 0}";
},
{
name = top;
position = "{373, 650}";
}
);
associatedMasterId = "B9B856C8-1FA2-46F4-A929-F36A99765E59";
background = {
anchors = (
{
name = bottom;
position = "{239, 0}";
},
{
name = top;
position = "{373, 650}";
}
);
paths = (
{
closed = 1;
nodes = (
"379 -12 OFFCURVE",
"478 60 OFFCURVE",
"504 183 CURVE SMOOTH",
"524 277 OFFCURVE",
"486 327 OFFCURVE",
"389 353 CURVE SMOOTH",
"280 382 LINE SMOOTH",
"216 399 OFFCURVE",
"193 427 OFFCURVE",
"204 481 CURVE SMOOTH",
"219 551 OFFCURVE",
"280 591 OFFCURVE",
"369 591 CURVE SMOOTH",
"443 591 OFFCURVE",
"502 564 OFFCURVE",
"543 509 CURVE",
"490 497 LINE",
"619 648 LINE",
"596 569 LINE",
"545 631 OFFCURVE",
"476 662 OFFCURVE",
"386 662 CURVE SMOOTH",
"251 662 OFFCURVE",
"153 593 OFFCURVE",
"129 478 CURVE SMOOTH",
"110 388 OFFCURVE",
"148 337 OFFCURVE",
"244 311 CURVE SMOOTH",
"353 282 LINE SMOOTH",
"417 265 OFFCURVE",
"440 237 OFFCURVE",
"428 180 CURVE SMOOTH",
"412 101 OFFCURVE",
"350 59 OFFCURVE",
"251 59 CURVE SMOOTH",
"169 59 OFFCURVE",
"107 88 OFFCURVE",
"67 148 CURVE",
"110 166 LINE",
"-32 10 LINE",
"17 83 LINE",
"64 19 OFFCURVE",
"136 -12 OFFCURVE",
"233 -12 CURVE SMOOTH"
);
}
);
};
guideLines = (
{
angle = 90;
position = "{251, 532}";
},
{
angle = 90;
position = "{564, 232}";
},
{
angle = 90;
position = "{235, 532}";
},
{
angle = 90;
position = "{548, 232}";
}
);
layerId = "E6730EC7-1763-48B3-AB89-5F8A4502DB92";
name = cursify;
paths = (
{
closed = 1;
nodes = (
"382 -12 OFFCURVE",
"477 57 OFFCURVE",
"503 177 CURVE SMOOTH",
"523 274 OFFCURVE",
"483 326 OFFCURVE",
"386 352 CURVE SMOOTH",
"277 381 LINE SMOOTH",
"213 398 OFFCURVE",
"192 424 OFFCURVE",
"203 475 CURVE SMOOTH",
"219 548 OFFCURVE",
"283 591 OFFCURVE",
"374 591 CURVE SMOOTH",
"446 591 OFFCURVE",
"504 566 OFFCURVE",
"546 511 CURVE",
"491 497 LINE",
"620 648 LINE",
"593 567 LINE",
"543 629 OFFCURVE",
"473 662 OFFCURVE",
"380 662 CURVE SMOOTH",
"248 662 OFFCURVE",
"154 596 OFFCURVE",
"130 484 CURVE SMOOTH",
"110 391 OFFCURVE",
"151 338 OFFCURVE",
"247 312 CURVE SMOOTH",
"356 283 LINE SMOOTH",
"420 266 OFFCURVE",
"441 240 OFFCURVE",
"430 186 CURVE SMOOTH",
"412 104 OFFCURVE",
"347 59 OFFCURVE",
"245 59 CURVE SMOOTH",
"166 59 OFFCURVE",
"104 86 OFFCURVE",
"64 146 CURVE",
"110 166 LINE",
"-32 10 LINE",
"20 85 LINE",
"67 21 OFFCURVE",
"139 -12 OFFCURVE",
"239 -12 CURVE SMOOTH"
);
}
);
width = 580;
},
{
anchors = (
{
name = bottom;
position = "{239, 0}";
},
{
name = top;
position = "{373, 650}";
}
);
associatedMasterId = "27302DAC-E04E-41A7-B2D2-BD8305143A0A";
background = {
anchors = (
{
name = bottom;
position = "{239, 0}";
},
{
name = top;
position = "{373, 650}";
}
);
paths = (
{
closed = 1;
nodes = (
"390 -12 OFFCURVE",
"489 56 OFFCURVE",
"515 175 CURVE SMOOTH",
"537 280 OFFCURVE",
"495 341 OFFCURVE",
"393 368 CURVE SMOOTH",
"290 395 LINE SMOOTH",
"240 408 OFFCURVE",
"228 425 OFFCURVE",
"235 460 CURVE SMOOTH",
"248 518 OFFCURVE",
"297 550 OFFCURVE",
"375 550 CURVE SMOOTH",
"435 550 OFFCURVE",
"484 533 OFFCURVE",
"521 493 CURVE",
"494 479 LINE",
"604 618 LINE",
"594 584 LINE",
"541 634 OFFCURVE",
"472 662 OFFCURVE",
"381 662 CURVE SMOOTH",
"239 662 OFFCURVE",
"143 594 OFFCURVE",
"117 475 CURVE SMOOTH",
"95 370 OFFCURVE",
"137 309 OFFCURVE",
"239 282 CURVE SMOOTH",
"342 255 LINE SMOOTH",
"392 242 OFFCURVE",
"404 226 OFFCURVE",
"397 190 CURVE SMOOTH",
"384 132 OFFCURVE",
"332 100 OFFCURVE",
"246 100 CURVE SMOOTH",
"177 100 OFFCURVE",
"125 119 OFFCURVE",
"82 169 CURVE",
"110 189 LINE",
"-11 44 LINE",
"10 78 LINE",
"65 18 OFFCURVE",
"136 -12 OFFCURVE",
"237 -12 CURVE SMOOTH"
);
}
);
};
guideLines = (
{
angle = 90;
position = "{449, 186}";
},
{
angle = 90;
position = "{411, 466}";
},
{
angle = 90;
position = "{395, 466}";
},
{
angle = 90;
position = "{433, 186}";
}
);
layerId = "CF1377D1-98BD-4D71-8615-27A5A89E0C3E";
name = slanted;
paths = (
{
closed = 1;
nodes = (
"386 -12 OFFCURVE",
"490 61 OFFCURVE",
"517 185 CURVE SMOOTH",
"538 285 OFFCURVE",
"500 342 OFFCURVE",
"398 369 CURVE SMOOTH",
"295 396 LINE SMOOTH",
"244 409 OFFCURVE",
"229 430 OFFCURVE",
"237 470 CURVE SMOOTH",
"249 523 OFFCURVE",
"292 550 OFFCURVE",
"366 550 CURVE SMOOTH",
"430 550 OFFCURVE",
"480 530 OFFCURVE",
"517 490 CURVE",
"493 479 LINE",
"603 618 LINE",
"598 587 LINE",
"545 637 OFFCURVE",
"476 662 OFFCURVE",
"390 662 CURVE SMOOTH",
"243 662 OFFCURVE",
"142 589 OFFCURVE",
"115 465 CURVE SMOOTH",
"94 365 OFFCURVE",
"132 308 OFFCURVE",
"234 281 CURVE SMOOTH",
"337 254 LINE SMOOTH",
"388 241 OFFCURVE",
"403 221 OFFCURVE",
"395 180 CURVE SMOOTH",
"383 127 OFFCURVE",
"337 100 OFFCURVE",
"255 100 CURVE SMOOTH",
"182 100 OFFCURVE",
"129 122 OFFCURVE",
"86 172 CURVE",
"111 189 LINE",
"-10 44 LINE",
"4 75 LINE",
"61 15 OFFCURVE",
"132 -12 OFFCURVE",
"228 -12 CURVE SMOOTH"
);
}
);
width = 580;
},
{
anchors = (
{
name = bottom;
position = "{239, 0}";
},
{
name = top;
position = "{373, 650}";
}
);
associatedMasterId = "27302DAC-E04E-41A7-B2D2-BD8305143A0A";
background = {
anchors = (
{
name = bottom;
position = "{239, 0}";
},
{
name = top;
position = "{373, 650}";
}
);
paths = (
{
closed = 1;
nodes = (
"386 -12 OFFCURVE",
"490 61 OFFCURVE",
"517 185 CURVE SMOOTH",
"538 285 OFFCURVE",
"500 342 OFFCURVE",
"398 369 CURVE SMOOTH",
"295 396 LINE SMOOTH",
"244 409 OFFCURVE",
"229 430 OFFCURVE",
"237 470 CURVE SMOOTH",
"249 523 OFFCURVE",
"292 550 OFFCURVE",
"366 550 CURVE SMOOTH",
"430 550 OFFCURVE",
"480 530 OFFCURVE",
"517 490 CURVE",
"493 479 LINE",
"603 618 LINE",
"598 587 LINE",
"545 637 OFFCURVE",
"476 662 OFFCURVE",
"390 662 CURVE SMOOTH",
"243 662 OFFCURVE",
"142 589 OFFCURVE",
"115 465 CURVE SMOOTH",
"94 365 OFFCURVE",
"132 308 OFFCURVE",
"234 281 CURVE SMOOTH",
"337 254 LINE SMOOTH",
"388 241 OFFCURVE",
"403 221 OFFCURVE",
"395 180 CURVE SMOOTH",
"383 127 OFFCURVE",
"337 100 OFFCURVE",
"255 100 CURVE SMOOTH",
"182 100 OFFCURVE",
"129 122 OFFCURVE",
"86 172 CURVE",
"111 189 LINE",
"-10 44 LINE",
"4 75 LINE",
"61 15 OFFCURVE",
"132 -12 OFFCURVE",
"228 -12 CURVE SMOOTH"
);
}
);
};
guideLines = (
{
angle = 90;
position = "{449, 186}";
},
{
angle = 90;
position = "{411, 466}";
},
{
angle = 90;
position = "{395, 466}";
},
{
angle = 90;
position = "{433, 186}";
}
);
layerId = "E81EE6F4-A8A1-46C7-BEC8-333D1AB26A18";
name = cursify;
paths = (
{
closed = 1;
nodes = (
"390 -12 OFFCURVE",
"489 56 OFFCURVE",
"515 175 CURVE SMOOTH",
"537 280 OFFCURVE",
"495 341 OFFCURVE",
"393 368 CURVE SMOOTH",
"290 395 LINE SMOOTH",
"240 408 OFFCURVE",
"228 425 OFFCURVE",
"235 460 CURVE SMOOTH",
"248 518 OFFCURVE",
"297 550 OFFCURVE",
"375 550 CURVE SMOOTH",
"435 550 OFFCURVE",
"484 533 OFFCURVE",
"521 493 CURVE",
"494 479 LINE",
"604 618 LINE",
"594 584 LINE",
"541 634 OFFCURVE",
"472 662 OFFCURVE",
"381 662 CURVE SMOOTH",
"239 662 OFFCURVE",
"143 594 OFFCURVE",
"117 475 CURVE SMOOTH",
"95 370 OFFCURVE",
"137 309 OFFCURVE",
"239 282 CURVE SMOOTH",
"342 255 LINE SMOOTH",
"392 242 OFFCURVE",
"404 226 OFFCURVE",
"397 190 CURVE SMOOTH",
"384 132 OFFCURVE",
"332 100 OFFCURVE",
"246 100 CURVE SMOOTH",
"177 100 OFFCURVE",
"125 119 OFFCURVE",
"82 169 CURVE",
"110 189 LINE",
"-11 44 LINE",
"10 78 LINE",
"65 18 OFFCURVE",
"136 -12 OFFCURVE",
"237 -12 CURVE SMOOTH"
);
}
);
width = 580;
}
);
unicode = 0053;
},
